<mxfile host="app.diagrams.net" modified="2022-09-07T02:28:26.859Z" agent="5.0 (Windows NT 10.0; Win64; x64) AppleWebKit/537.36 (KHTML, like Gecko) Chrome/104.0.0.0 Safari/537.36" etag="f0kCLHwKn1_zYekSZ813" version="20.2.8" type="github">
  <diagram id="UpyxoVmGu65QGPxrb8z9" name="Page-1">
    <mxGraphModel dx="5130" dy="2065" grid="1" gridSize="10" guides="1" tooltips="1" connect="1" arrows="1" fold="1" page="1" pageScale="1" pageWidth="850" pageHeight="1100" math="0" shadow="0">
      <root>
        <mxCell id="0" />
        <mxCell id="1" parent="0" />
        <mxCell id="_L3SbqxIfx6lYunLBiMm-1" value="Menu" style="shape=image;verticalLabelPosition=bottom;labelBackgroundColor=#ffffff;verticalAlign=top;aspect=fixed;imageAspect=0;image=data:image/svg+xml,PHN2ZyB4bWxuczpjYz0iaHR0cDovL2NyZWF0aXZlY29tbW9ucy5vcmcvbnMjIiB4bWxuczpkYz0iaHR0cDovL3B1cmwub3JnL2RjL2VsZW1lbnRzLzEuMS8iIHhtbG5zOmlua3NjYXBlPSJodHRwOi8vd3d3Lmlua3NjYXBlLm9yZy9uYW1lc3BhY2VzL2lua3NjYXBlIiB4bWxuczpyZGY9Imh0dHA6Ly93d3cudzMub3JnLzE5OTkvMDIvMjItcmRmLXN5bnRheC1ucyMiIHhtbG5zOnNvZGlwb2RpPSJodHRwOi8vc29kaXBvZGkuc291cmNlZm9yZ2UubmV0L0RURC9zb2RpcG9kaS0wLmR0ZCIgeG1sbnM6c3ZnPSJodHRwOi8vd3d3LnczLm9yZy8yMDAwL3N2ZyIgeG1sbnM9Imh0dHA6Ly93d3cudzMub3JnLzIwMDAvc3ZnIiB4bWxuczp4bGluaz0iaHR0cDovL3d3dy53My5vcmcvMTk5OS94bGluayIgdmVyc2lvbj0iMS4xIiBpZD0ic3ZnNTg2MzQiIGlua3NjYXBlOnZlcnNpb249IjAuOTIuMyAoMjQwNTU0NiwgMjAxOC0wMy0xMSkiIHNvZGlwb2RpOmRvY25hbWU9ImFwcHMuc3ZnIiB4PSIwcHgiIHk9IjBweCIgdmlld0JveD0iMCAwIDUzLjI2IDUzLjkyIiBzdHlsZT0iZW5hYmxlLWJhY2tncm91bmQ6bmV3IDAgMCA1My4yNiA1My45MjsiIHhtbDpzcGFjZT0icHJlc2VydmUiPiYjeGE7PHNvZGlwb2RpOm5hbWVkdmlldyBib3JkZXJjb2xvcj0iIzY2NjY2NiIgYm9yZGVyb3BhY2l0eT0iMSIgZml0LW1hcmdpbi1ib3R0b209IjAiIGZpdC1tYXJnaW4tbGVmdD0iMCIgZml0LW1hcmdpbi1yaWdodD0iMCIgZml0LW1hcmdpbi10b3A9IjAiIGdyaWR0b2xlcmFuY2U9IjEwIiBndWlkZXRvbGVyYW5jZT0iMTAiIGlkPSJuYW1lZHZpZXc1ODYzNiIgaW5rc2NhcGU6Y3VycmVudC1sYXllcj0ic3ZnNTg2MzQiIGlua3NjYXBlOmN4PSIzNS41MDU2OTUiIGlua3NjYXBlOmN5PSIzNS45NDg0MjgiIGlua3NjYXBlOnBhZ2VvcGFjaXR5PSIwIiBpbmtzY2FwZTpwYWdlc2hhZG93PSIyIiBpbmtzY2FwZTp3aW5kb3ctaGVpZ2h0PSIxMDE3IiBpbmtzY2FwZTp3aW5kb3ctbWF4aW1pemVkPSIxIiBpbmtzY2FwZTp3aW5kb3ctd2lkdGg9IjE5MjAiIGlua3NjYXBlOndpbmRvdy14PSItOCIgaW5rc2NhcGU6d2luZG93LXk9Ii04IiBpbmtzY2FwZTp6b29tPSIxMi4wNjAxMjYiIG9iamVjdHRvbGVyYW5jZT0iMTAiIHBhZ2Vjb2xvcj0iI2ZmZmZmZiIgc2hvd2dyaWQ9ImZhbHNlIj4mI3hhOwk8L3NvZGlwb2RpOm5hbWVkdmlldz4mI3hhOzxnIGlkPSJnNTg2MzIiIHRyYW5zZm9ybT0idHJhbnNsYXRlKDAsMC4wMDQ0NDg2MykiPiYjeGE7CTx0aXRsZSBpZD0idGl0bGU1ODU4MiI+UGFnZS0xPC90aXRsZT4mI3hhOwk8ZyBpZD0iZ3JvdXA1NDcwLTEiPiYjeGE7CQk8dGl0bGUgaWQ9InRpdGxlNTg1ODQiPkFwcHM8L3RpdGxlPiYjeGE7CQk8ZyBpZD0ic2hhcGU1NDcxLTIiIHRyYW5zZm9ybT0idHJhbnNsYXRlKDAsLTM3LjM3NDUpIj4mI3hhOwkJCTx0aXRsZSBpZD0idGl0bGU1ODU4NiI+U2hlZXQuNTQ3MTwvdGl0bGU+JiN4YTsJCQk8cGF0aCBpZD0icGF0aDU4NTg4IiBpbmtzY2FwZTpjb25uZWN0b3ItY3VydmF0dXJlPSIwIiBzdHlsZT0iZmlsbDojNTk1OTU5OyIgZD0iTTAsMzcuMzd2MTYuNTVoMTUuOTJWMzcuMzdIMHoiLz4mI3hhOwkJPC9nPiYjeGE7CQk8ZyBpZD0ic2hhcGU1NDcyLTQiIHRyYW5zZm9ybT0idHJhbnNsYXRlKDE4LjM2NSwtMzcuMzc0NSkiPiYjeGE7CQkJPHRpdGxlIGlkPSJ0aXRsZTU4NTkxIj5TaGVldC41NDcyPC90aXRsZT4mI3hhOwkJCTxwYXRoIGlkPSJwYXRoNTg1OTMiIGlua3NjYXBlOmNvbm5lY3Rvci1jdXJ2YXR1cmU9IjAiIHN0eWxlPSJmaWxsOiM1OTU5NTk7IiBkPSJNMCwzNy4zN3YxNi41NWgxNS45MlYzNy4zN0gweiIvPiYjeGE7CQk8L2c+JiN4YTsJCTxnIGlkPSJzaGFwZTU0NzMtNiIgdHJhbnNmb3JtPSJ0cmFuc2xhdGUoMzcuMzQyMiwtMzcuMzc0NSkiPiYjeGE7CQkJPHRpdGxlIGlkPSJ0aXRsZTU4NTk2Ij5TaGVldC41NDczPC90aXRsZT4mI3hhOwkJCTxwYXRoIGlkPSJwYXRoNTg1OTgiIGlua3NjYXBlOmNvbm5lY3Rvci1jdXJ2YXR1cmU9IjAiIHN0eWxlPSJmaWxsOiM1OTU5NTk7IiBkPSJNMCwzNy4zN3YxNi41NWgxNS45MlYzNy4zN0gweiIvPiYjeGE7CQk8L2c+JiN4YTsJCTxnIGlkPSJzaGFwZTU0NzQtOCIgdHJhbnNmb3JtPSJ0cmFuc2xhdGUoMCwtMTguMzgwOSkiPiYjeGE7CQkJPHRpdGxlIGlkPSJ0aXRsZTU4NjAxIj5TaGVldC41NDc0PC90aXRsZT4mI3hhOwkJCTxwYXRoIGlkPSJwYXRoNTg2MDMiIGlua3NjYXBlOmNvbm5lY3Rvci1jdXJ2YXR1cmU9IjAiIHN0eWxlPSJmaWxsOiM1OTU5NTk7IiBkPSJNMCwzNy4zN3YxNi41NWgxNS45MlYzNy4zN0gweiIvPiYjeGE7CQk8L2c+JiN4YTsJCTxnIGlkPSJzaGFwZTU0NzUtMTAiIHRyYW5zZm9ybT0idHJhbnNsYXRlKDE4LjM2NSwtMTguMzgwOSkiPiYjeGE7CQkJPHRpdGxlIGlkPSJ0aXRsZTU4NjA2Ij5TaGVldC41NDc1PC90aXRsZT4mI3hhOwkJCTxwYXRoIGlkPSJwYXRoNTg2MDgiIGlua3NjYXBlOmNvbm5lY3Rvci1jdXJ2YXR1cmU9IjAiIHN0eWxlPSJmaWxsOiM1OTU5NTk7IiBkPSJNMCwzNy4zN3YxNi41NWgxNS45MlYzNy4zN0gweiIvPiYjeGE7CQk8L2c+JiN4YTsJCTxnIGlkPSJzaGFwZTU0NzYtMTIiIHRyYW5zZm9ybT0idHJhbnNsYXRlKDM3LjM0MjIsLTE4LjM4MDkpIj4mI3hhOwkJCTx0aXRsZSBpZD0idGl0bGU1ODYxMSI+U2hlZXQuNTQ3NjwvdGl0bGU+JiN4YTsJCQk8cGF0aCBpZD0icGF0aDU4NjEzIiBpbmtzY2FwZTpjb25uZWN0b3ItY3VydmF0dXJlPSIwIiBzdHlsZT0iZmlsbDojNTk1OTU5OyIgZD0iTTAsMzcuMzd2MTYuNTVoMTUuOTJWMzcuMzdIMHoiLz4mI3hhOwkJPC9nPiYjeGE7CQk8ZyBpZD0ic2hhcGU1NDc3LTE0Ij4mI3hhOwkJCTx0aXRsZSBpZD0idGl0bGU1ODYxNiI+U2hlZXQuNTQ3NzwvdGl0bGU+JiN4YTsJCQk8cGF0aCBpZD0icGF0aDU4NjE4IiBpbmtzY2FwZTpjb25uZWN0b3ItY3VydmF0dXJlPSIwIiBzdHlsZT0iZmlsbDojNTk1OTU5OyIgZD0iTTAsMzcuOTl2MTUuOTNoMTUuOTJWMzcuOTlIMHoiLz4mI3hhOwkJPC9nPiYjeGE7CQk8ZyBpZD0ic2hhcGU1NDc4LTE2IiB0cmFuc2Zvcm09InRyYW5zbGF0ZSgxOC4zNjUpIj4mI3hhOwkJCTx0aXRsZSBpZD0idGl0bGU1ODYyMSI+U2hlZXQuNTQ3ODwvdGl0bGU+JiN4YTsJCQk8cGF0aCBpZD0icGF0aDU4NjIzIiBpbmtzY2FwZTpjb25uZWN0b3ItY3VydmF0dXJlPSIwIiBzdHlsZT0iZmlsbDojNTk1OTU5OyIgZD0iTTAsMzcuOTl2MTUuOTNoMTUuOTJWMzcuOTlIMHoiLz4mI3hhOwkJPC9nPiYjeGE7CQk8ZyBpZD0ic2hhcGU1NDc5LTE4IiB0cmFuc2Zvcm09InRyYW5zbGF0ZSgzNy4zNDIyKSI+JiN4YTsJCQk8dGl0bGUgaWQ9InRpdGxlNTg2MjYiPlNoZWV0LjU0Nzk8L3RpdGxlPiYjeGE7CQkJPHBhdGggaWQ9InBhdGg1ODYyOCIgaW5rc2NhcGU6Y29ubmVjdG9yLWN1cnZhdHVyZT0iMCIgc3R5bGU9ImZpbGw6IzU5NTk1OTsiIGQ9Ik0wLDM3Ljk5djE1LjkzaDE1LjkyVjM3Ljk5SDB6Ii8+JiN4YTsJCTwvZz4mI3hhOwk8L2c+JiN4YTs8L2c+JiN4YTs8L3N2Zz4=;" parent="1" vertex="1">
          <mxGeometry x="403.50000000000006" y="40" width="53" height="54" as="geometry" />
        </mxCell>
        <mxCell id="_L3SbqxIfx6lYunLBiMm-3" value="Dashboard" style="sketch=0;pointerEvents=1;shadow=0;dashed=0;html=1;strokeColor=none;labelPosition=center;verticalLabelPosition=bottom;verticalAlign=top;align=center;fillColor=#505050;shape=mxgraph.mscae.intune.dashboard" parent="1" vertex="1">
          <mxGeometry x="393.96" y="154" width="80" height="70" as="geometry" />
        </mxCell>
        <mxCell id="_L3SbqxIfx6lYunLBiMm-4" value="Procesar" style="verticalLabelPosition=bottom;html=1;verticalAlign=top;align=center;strokeColor=none;fillColor=#00BEF2;shape=mxgraph.azure.cloud_service_package_file;" parent="1" vertex="1">
          <mxGeometry x="160" y="307" width="42.5" height="50" as="geometry" />
        </mxCell>
        <mxCell id="_L3SbqxIfx6lYunLBiMm-8" value="Recibir" style="shape=image;verticalLabelPosition=bottom;labelBackgroundColor=default;verticalAlign=top;aspect=fixed;imageAspect=0;image=data:image/png,iVBORw0KGgoAAAANSUhEUgAAAOEAAADhCAMAAAAJbSJIAAAAflBMVEX///8AAADy8vL4+Pj19fX6+vrx8fGUlJRYWFiurq6/v79UVFSjo6OmpqZfX1+NjY22trabm5sSEhLR0dHExMTl5eXKysro6OiKiopLS0sZGRnd3d1vb291dXVDQ0PV1dWAgIBnZ2cuLi4nJycfHx96eno3NzcUFBRFRUUzMzMqKcoXAAASRklEQVR4nOWd62LqKBCA1QRvtVarMbZaL9V6et7/BdckkACZW5T0cpY/u6ehE74wwDAM004HLkoX5HHTet8lLtibArWoqThBPfRRVBROgq7GvklWL7C4DvERorAt+i5xeD9HcVE4Eboa19PfJC77Bghh/K2AcTBxBSLwrCEg16JvFAdrsop7eWFF9HQ9rkWtiOvJvhcFyImIArcouDh0AH1bi4KLuw/wx/dggQg864UFFIprCNi/Q1xgwJZ6kFmd/teAgcdgOyoqFdcDHkkB+2EBheICKESzHuz/71X0ewGh18bxbwC8fQxm9vrPB+xLexB4lm1IfjzgPSqqNOE/DFgQ/hPLBKSiqiDkNnBSwJ+3TBjCf2IdhHrQEP6rplr+OCP82ZPMfYA54T+hoqi4K+HP7sE7lgldg3Ux/2oV7ZDHM3n5HcsEAciVX6KijDii/HoV5crvNdWE5XeoKCeOKL9jHfwCFf3ZY5AQ8ztUlAXEm/U7ANlTO5xQCtgwjISrJqwn7sEIFQUBzrbDWnnQpf7kpnoPaL3t+AbA/JwbeQRMMtvu95ZDDZA/8kcJoR5cfjNgt7v3ANkejFFCcAwOvhuwO2kGWMQqgITwOvhTCMWAPZQQmUV/CCG/4TWAmlAM+EMIGwD2kHATdB3UhIflOC8zXcZImRXVnxeroiysstFNXlrVCXHLj5JQrKL9grAJoCGc6XpcBJPShB0osEUTWrVJcRNDKB+DOUMzQEM4skRQuhJpQgWJ8wkZU60kNK0TqChSjTLVbEKBLWoT1sR5hJwtaghN82g+qnWkLWoRSka7RVgX5xKy30sTziP5GIS/F21sV4Si3URFCIhzCPndhEtIvZUWx+zoS0LZdqkkhMTZhILtkkNIvpU8MOa2S4ZQiQA7fTOXQsUilHwvm5B+q6AHcXtdEz5GIkCVyghFCqGN/nF8D6CiVbTjE7I7ehmhcEc/zGoP43scBGVkMP7bDiHvshARSl0W/cHpNOiLTDUUMOYAHUKBT0ZCGAkBrzWUiu5ZJpSONiGVwCKUOJ0khLEUUDBWk00S4YA62oTW8opQ5FWTE4YAVJmLZa1QwIKQGcYlocxtKCYM4hfdmq8PBk5pQm6eetKETDVz+CIlDOJmHRXy3hX4vUw8DddyTTgStiiWEYp6MFaqv1k9DtaH9WC02tS6U3/N7qsCxWlC+k2dOBIRVp88EhEKAGMVjw+f525Vzi+DhVNtpx9MESkZIXd36doWCaGlUyJCXkWjaPHWhco6Kautzc8SRIzi7xlm6iQgtAeNhJAFjHuzF5Av7zHdkaUjF2saH22S2woCQmdW0IR/KEIOUC1xvqwMN9dqPfOvLSqIPQYpJnWW0J32NGH3OK2V4VRCqKI+rJ92WXc6D/p/z0TEEAOoLQWO0JvXI7RVVSEB1fJZIOJyMP+3x0UxgCYCnCH0F647CZWaO1Wfhx/z8WqxHK2PF1DWnMFgAXuur40FvJNQRQer3ut6Ya2BKnl8qIl6uBtQ0YR10+MuQhVbR3m7Zb1CenAlPfdvBbSsXooQipM5soBvKKCq5pjLCq7T/7BFAR9BVmwfA0EIGo/prkuXFzwe9KmsRAyvxd+y1jEEIEGIWcfLiVvmuhT/QvomA5yVTccnyGw8vorqEcX1EqGE0jNnaZ6G2BzcdC9U3VhZYxFfDKm1wnODYYTBA4FiY8i8UFXjqOrpLmnQiFuEEAaPk4kedaN3lMg4TtxRjSg9Hm1S/+QwYfhAoL5pM7UAXPc6nsl6AsXh0SbA4QtIGD6cshxdC6Je3Kum23f9X8D5oPBoE6hFEGELiQKM8h1IcdHKAA7ML5xqwhUebQK2CCBsIVZNDdjJMRPXN3v+l2oDPPPF4dEm8PlgnbCNcMr+X2TKdsQps//qptfW6j2IZ5oqIp4GblGNsI1ow3iJqZwDOOna/WaiRBwnhorRaBPsk/uErYRTmi0Fbqxljt29ASwsW+Nqm3jikGgTVKc8wnbiRWNtiKErRe6bNxavWSGm5Zh0xDXN/eEStgSoDbZP8/PIk58dvqhyV7HRPx3rf3viYB8pOMnUCVuK+DWWmInR23q7p9wlZniqFVDH7pRLKJXchJj2bMLWYrafnM4ptG/giIsT476x/L/vYv2i5nWLsL2oe+2eKH7B7DFeYktcXHowLKl6fjrcBWgRtnjz5ZS/41I8WBiWwqwuLtSXAYS2VaeN9QcHEHgt3aKSsM2bL8U79Jbd2j0MTA+urJ9URQ/Nv3cBVoRtjcGK8KCfWa6YlzQ/4e2bbf2LI0T39ok+T+V0yos2aeXmS+QSVmcu1zLONh5H86/UkaJH7PkuQI+wnas9PmFnVbliuuueMpvj7tgVUxLeA+gStnXzpXjHR1Wjbzl/H8pTpg9PTqmlOEUUc4AOYWt3l4p3OCedlWexLO9+M7WhcFEEYMzqlEXY3uWsYul+d6qtaic0G0+QCXwbKgIwZgdNRdjiNXNtQzsNUYnnkqn7K/Ske1AIhSx7S0nY5j16feBkr+bZPs+eU7vDuqxXawSBgKLsLYZQeBp32wVJvXRb28NCucYV4HP9C5tj4AVMIczeIo2nue8GqI5RqQaijlWL+qWmAo5RHU7TRQLSZNlblCza5O5Lyvr40zgkLHFah54AaXpFmSr4u4qytyhZtMn9uSw0xxoQl5uk0CmTsV8nSMiFJHuLkkWbBLikvLEHmxdOqWYj0HdvfMhIOI0ke0vWIglhiFvYerwNOmKFMF2IHiLy8TRFUCNPGOSSsjlRSqXiOkd8CtIv5MJNtJ+PJQxzzVydTY8IAY2xusPfyEjQO3qWMFSiADP1T5QI0DhLbz/KL69X0NEmATMhmCOJVSRQiNJt80JX5FsUM/E0ATMhGEfFeROzqRKroI2aNS4s1spMEgbNZfFWInKtqwAHTFWuRdnqRBGGTdYRvQs7pmem0Zt11LGtCMLA+WRU5Ub0zwSdsql2VSlVT9oinPBuU80XZwXUbHGhpdOGCbvhW6Q/OUoYOJ9MfvgyqVqPbNf2VsgVtVAQq72vUxhhaMBCmBV7eZ7XdFAth9Vz3/Hm1iT+0ow/aBDCwAlzymBPJx5oOrLmnP7q8G4/RK217LV4tEl9VoAJW+nB/ObLouuU193b4HE0PwxP3s+xHUUBiBIChy8gYSNAcySb+YXoCIK8Xm/Y5cuWvG2NR5tA8zpEKFfRK1K8WSwnh+3083I6n8/vl4fjx2C8sc+zfXEjmu7agdQQpLK3gAsXQCjd36hOOp5PL2Bk+uvnYdx3xFmmWv8A/UpZBuSLIzzaBF6Z64RCFY1nhxPZ0G73kk2X4H1LgnFAWw4Rnr0FMT1qhJIejPaDT4ZOl89JosDbetEIGI/PwxnzXSM8ewtmW/mEPKDypnWuHJcqAsWl44N1QPM8PIwTblebn64gfywIAfQJWcDVxysMQpQdbodGvc0yy+6ySNNYyTI7wz5S3Dp2CYnUBVnZrGkUtJxJW1v6BwAKJ11DQDh7CwjYf0TC9C/Tj/l4sd8k17LZL8aD7Ut9fv2LM8pt9wKiGSCYvQUCXIB53d4/JpsUeGN/M69NJDtklZMCEpfgyQ2cRUgtE8CB5p/DmLTWerOj9xsv0Na3YQ82BhRmb9n7eC9z7i5EfFWn/sg7IzzWzE0xIJF3gASsZ28Bx6CbEey6J5DdbuxF0d5b29f+sVTLPVjP3gLPota+7uExFZz5WC1KXQ1/tk4R++NZIko5onsQymDCOlFk2VuMlp7micrDH5ynyXiynu5Or8/PZ730uTqlvFFsppx8szgTZOS4dZIBCNE36WV+qzun/Hl/tfZuDWYnaDWd6rsL6S7f3mq/9ia+K7kJB+gS4qaaGU1PWRdqcelqMAQ2FgnYotRdbYZ7K9eXEBBS0YbZWwhjuwy3e5ll02GyHG0x43SGDOmNO69OE5NFieaj0iQ1zd5Cbsv4C9imrGJMp1Z/nYp68zUB3maVGA8KbZq9hd7wpl1hueAL13V7f67/Ak1I9WDD7C3cjn5WbxtUdpuYWHU6UT3XJhkGQuViC5y9pefdM/e4nmarTdrfLDYRCdjxb/pey5Hw3RMq2kL2FoX3YnnNQKFj0Crp0fv1lxFyEYPMxdZC9pZo439+U0wvSH1Y9Y3KdAY4SOndajvZW3qjNz1X7NbV7DouxYkAVS+O9vXN2Ofcu5vI/AGAFrK3lJZMvkJXOmsmQ8L8r4mLVQL5C4bzZfnbXLrAjJAHbJK9xbFFN5WtZgK2Gh83Ro9gLoy/26fZJtW53Ii1IHj2Fhswsdb/9W2AuS3qHjY55bR7OI7IxU66gZNmb7EAl1OrJeaknfFhgYBZSalk1EfqewnjRaXZWwxgb+nuaI1/qckYtAGzsvpAnee0i04CyGVvsf5qQy/Zjw7eTum098TdeCKuVh9wepo1LKcBYEQQroa7l4fpcfv2dpwOX3aARfkWueIaq6j9LJlM62+4NdrEdo6ghKwdeipPae9RUacsJtM/zjtuDRiyvT8oIcN3ntTEhQnaSJaTLZOLji1OizDCBGXLyvtjDIvDi9RtqOJy6JBn+URxW+Rmna8KtR88+ldcAwJeTbUyzwseeUmuFZ6DUhPu/Oxr9axURbkc3DAX4+cLFld0rWLMAKILm2dv4cvr53E93vvbnOCBU9W96GpPVi+C7C1lizjC+Xg2G6/2SQpu4UKr6LVKnJr1Hz83ILK31H3oHCEZHhhgHayJK/O84HmwmmVvoXwTefEvBdriQq2DlriovI2I3kIQZG+xW0SvCvm3xHI9tDAGr/pgfMyYOUNlb4FbNCbx8jL/ijFYKER5JfhMAHLZW/wWqaXz519mZbE89rv5MvfFqP24vLsUVkX1uUkZn4lkWxJkb+FmhTxqrHDxIJbpMbbEhVXRKosSMvozX15OiAM2ahEyC51XLQHGqdnAnOCtvSR7S7MWYTF2ayMvqIr2FHUbsRQHx9PcGhCbIMFduw1zGtcIUA/p6hICdBuxFEcC3hAQO4I9DM9ZLoTAPVgaH7CVIUmNcdO1AjWDA4WeOFdQU8BqSICL012ZIzwRtSfJBNppHGl5UIuS4+m09saYUdFqXQYXilYB85IuVsvlIrEv0b+TsdhAi8xi9zaresn0YAUIp8NtS0UBcbY3Eb8RAQCmtvd3ONnYrbMAwVlG0oPBFi4nwSjrZq3E1Vaev+tFeQ+jAgR3FO2raCXuOmiixJp6yHndem0Ku++3szSOYmuSATIrfC1gocg9S1MfiCie6rVEeP5wvqlspwcqQJ3K3hJqDJZvslp8qk19tRYlmNPHL7vmgNyhuitCBpjb7hsrFtrT1FqLnINCKlk26JghHeWS7C3NxmD1vZTlg/9ru6b9Fjl/cHja6/RmWyRSvPEYNPE0gS9ngT6sKqbSa9HCUVATTb5aA10J5nKnAUXZW25RUV3s3vnj/93i/LVuMNuDFVYS7+decC14zEQCasKwgN7NF3vnkYfjOy1K3Ugx9+LRdRebjo7wUxGgNHvLPYAdL/z7+bFv4mmujzYun+PPqpLDaX19bWyLdqTZW/Srbg7wXLmzxtsqypx91w2Ju0C8LyFxxeqUTD7m4Bdm7Cxh9pa7ejB/dnRQupfBflGbLQdOQ5g4mVrrEAph9hYRIH34suSusHkOVzNn3Qkozd7Cf0redlfkXaFPb4gF2woIs7fcp6KmJEeM7+JflGH/MKrXOpwiMCDnZt2Dpud77SJQKBXly22mGi4uVvu3Px7ftO4TDOwoF4gImGgvVqn954wuAzyc8gsB77joAImLOv3Zx/N16T9OQBcOFfF7Q+skIph6t+kU2q5wkwxXQs6iDVpEXAy5RZxAxO2m2k0tCgxIPP6mHgysooLsLe2MQVZcMEDc1PneHgwVGdYkewtc2gEMFZVCZW/5N1SUz97yu5cJIp7mm1Q0cOCUIHtLYFNNEE4ZsgcF2Vu+eAwGXgcF2Vu+egyG7kE2e8tvV9Eel70l0I6+6ToYErAHBgz9G+ugVoi7AAOraC+8isKt+yYVDex0oi51f1MPtjDJ/CzAdlSUSm7yxTv6ViYZEpCW0JKKBl514NQYjQBDt+grAAW5PzrNI8MCAQqjfRhAQWoMMWD84wDztBF8YoWGLQoE2DReC6KIiswYLKD+DvzWWva9dDX2ezV7LSQuz6rAvqkxoGALLvkLPkEAc8TQgIw4JQRs+FoMkD/p7uQfIWKP/Du6Gve9vlRceZE+YIt+2PeSACol+xDNqn2ZuFBv+pmA/wHhMfV3+FPiOQAAAABJRU5ErkJggg==;" parent="1" vertex="1">
          <mxGeometry x="270" y="300" width="65" height="65" as="geometry" />
        </mxCell>
        <mxCell id="_L3SbqxIfx6lYunLBiMm-10" value="Bodega" style="shape=image;verticalLabelPosition=bottom;labelBackgroundColor=default;verticalAlign=top;aspect=fixed;imageAspect=0;image=data:image/png,iVBORw0KGgoAAAANSUhEUgAAAOEAAADhCAMAAAAJbSJIAAABJlBMVEUAAAD+/v9I0K3u7u5lbnj////+zlTt7e34+Pn09PT7+/vx8fJJ0q8eVkhN3bh8fHvOzs7/3VopeWUwJQ9xdHVNVFtaRxzBnECGeTH111cOEQ9XX2b/2FhhaXP/3lotgWylljzb29zCr0e1nkCXgjXpzVPbs0kTFRcrKysmKi7/1FY5Qku7vL2nqKlpbG9HSk0gISFcXV6VlpdOT1GhoqMsMDDFxcZM47wqUUkwQ0KHiIk2ODkABRQQGyZESU4qYlRDqpBQiX9gYmJKxaYTAAsycmI7IDRarpwbKSY7kHoaOjIiABRHZWNbx65Gu54qSUIfFxtSd3QlHAySdTBiVCJ1ZSn/6V5UQxs5LhMYEggxQUILEBVoqJ8kMS4JHhksJC0QMCipiDf7d0VBAAARzklEQVR4nO1dDXvTRhKW4m61WrmKDYZeQ2qqKy0Q7Hw4xg42BENIA7QlhdK00ON6/f9/4mZ3pZWsHcmSLdlymnke0nolr/bVzM6+M/thw/SF2DVfHBIUBSUWDYpMKyhiQQlVRaSKVdWMK4RXCK8QrrqqK4RXCNcBIQnEtnxxVFEtKKJBiRmUWCwooqqomlUZdiBUSaYiO6WoUlUZms4JUzo3g6JA51ZN2YoTFNmqyKpiVWYEYVAUqcuM1VWL1BWUYM2qUFVXCK8Q5m+WfckRgh9nQWWXESEhXm+355n2ihAifjmtrpwuXuAbGVxGnmjJAlXlaJVpOIFQ5gtVRSylyA5KbFWUVhXwD6+1ZUjZannUnruqnK1aFmsj1uZdI5StzRpZFmtTOi+RLhPitIy49C1T2tT6xxagiP5YA2gY9/o24xjXHSHg6z5G8HF53LW5za03QkK7+wn4uOyDHmvri9CCMKBzkIKPy2GHu4r1ROgws4P1P60/dpiPcc0Q2mxwiMD57B6ixwEj5SEsaTwEfHs6FO5aUMez55U3HgZQayEDVEXhG1FvMigxQwaoisKqgMDs6jDArRBKGQweiPO5NSA2VtXCrdJ5aU6Oq5FJ/rqtTaS/9T1CbcYTKMTrI9c3LRKrqohWFR9bQN2eTmCMu0DTTBsAMkDIGKlNkThfWp6PscrRE+iv9afW9C3edpsy20+IMTtKxEP5s2cLjJVFaNWI3UPsD8IloP1cgYzn+wApiBkEU9MiMFYVIYQLPWQsOGiAa7OFeQr1mcJW4aNJGs/12+/1oD9WEiHA6D/UG/xgABeozX0Mc6QzZw6Hy50OIYMH+lce9hkrqlXFIQQYA8TmpP4o1xmoD0jqsXHcpUQi5N2SkAbC6570LVYYQksbP5kqMrXxs6bGXScoEr6BsA5CYI4blAjvAv8YVfccAk3ztcj1SBuI6scDSmuLtcoXgy4q4DQI6RwjxtYlJvcpTBpklKSOOyaMHUwaL4DoIhj3OoQt3DiQxVkbgMDw7fUZ8R2LCSCczjSIh53AscIfUG8f4XjHg0pkMWBgQ+zT6Dp8gODmCaoCp6kDOPSgUuFYTd4fnS5Sy66nOtuKYguShI8nfgGfGBjAYd5C7hFUlAgtyv5IMFd84DG6QoScYOvEZGtkEe46JYUxURKudATPDXwRjPObSG27HuMzAatACOMyQkANwGdyB8INFAKJBnZPKC2LuyP+MoTHsjCa02qAj1wBQiAwemP2W8DGRMcSggcZ0zriIQV4JEe8FvCwLSS0AtpnLxchjECsdx952x4RnFMwT6hylJaFUm9lZHNaDh7JEbQAC03u98wgtFoAoZUVIQ8AMWvabRDBryn3HQQn1k//8xQpHcnQEcIr8E1g2VjP7fnhYzYPjyA0Qx2qIsWBpiJtx7RHmNdrMNFM4UApqfUQ/X1647rum0/6hf1+jQhmIJYYEBOjcg+74JZZUquk6PF/bQ7WhmbQDgbgMUQTudMgZhex4aPJ0N3YqLvDyZF+8X7XJJKOc55gkgGGsQPWl5u1hTpXbySZ4/IAsIMxLKE/GUKI0Rt5B0cTt74hpe5iGMfAEij1zQBoDsISAGNoYaXEFibBCPbjDuXjOxU+n7NMpGn/nbjuRiiuO0FsdQ+YAu+M8lUR2kGycjyDXBZCi9odJMDlzRKkhHtQTmAQ/f01GdY3pqU+nPyF6HEgB1OBkeAva9wgMtVRNEKbeUjX8E1LshJG0Hu2np24G7q4J890CsNpGvG1SIXBI51iV2SsCkVoQ89FXfiICYImkzB4VsK4XXfjCgy6Y/02cv/zhu+0mAw7EgYmkm1ZRzaEJmXeDf0x+zBEUdMOkqAMc/F3T5Pw+RhPkaxiMPBIFgDkCRl4bljh1P7CCMEvowTUI9I6oQM6JjbNCwP8SQo+2R1PEArwuOUQvzNyVaLkYX9ElRYXymKYCeQE6icOYzITwdB7XpzWh6nwpAzrpy8S3h/QHEck5ghF2+CZzuzxcMaKCJpgIx6RwZEYvUB/yD2ns/QX2urJKaKjls2TBCJNwp10Uj+ZtXRD56XROMVCAwhBQKURyQwads+1E22ASLXVa0gdPSbGIZnPMRPoqshiBP2K6WNlamzB7BFCvnjYKvsfeBl4DV3dV7w4P8uov1CPZ+e6rd7tWkTQccEDiIkF02OxGCBAqHxjBoRJ4+1AvFfJz2CAxwjaD5Oc+LgAzfkBa79IiPgZO4byCeAcLD9C8J8dvS7OmZiKHxLSR6/PhtgAnwHj8Ow1Up/gFEykc0TiEuWNNqvhC1eSEIJB4LyXSPpJhf6wFODLV2kDYLrAN1+91KscD0yJUbptlPuPOzyGyowQT7WPu34al5soKBmbxn75yp1Pfwqji2Hc47GZYE7c75hJ8ZudDSEM/Xj8STkplqk/ZtIGkgV+vYD+onpEbPW4QU0ZO4r8j43RVU6FUhFa/liBE1AgOLbDVIYQWyYzWRyfj3GCUIADD96wyKILjo/nUYKJ8uhoEZ1/4D0Z6388D8RkYAr/gOQgU2I/vprTv2DiDl/9iLTf4zTYluYKFpWQCzMjcEBirM1uId/iGd7gLfBlFtgU/E9ZCUw2AZrzk/4QkXmkgsmJXJA1QjLILYc5CVmMhHzspieJBfcxJk6Cjac/5yAwGTEOf07IyhHBpsQYmZiTtvXYAvpfDXsjPNik/hwRY+jyAuOoWP0pjO4Jks3Zaok5Azll5yTNK3gkhhDYOcW80yFfYkAla+Lztcg7MM7nITDZxB1OzvUHjkfw0vmgJUJTljg3RCIIncS5LTOYgOAZUGyZz9M3hdtnVOrDN5it9mvC50hTBYxYagGoEJEILQiXMHLyAAgo9SmaWKqFjLLnb0rTn8LovsH02Lf99TlicQ7DFjzs9cUeMMOi6Oh53PH1J2IXsGEksfdFefY5jXHyhf7wxx0SpGgpp1jYPLTIPBoUG9zEWgLBAkVylmIE7dOzpeCTGJ8hNGc84Is6fJ9DE9ZKeMSwdAU+6TOe7PKnLgm6zvfHRQjaSX6IdYwCHIChmVTmkCkwScRRjB1Di88f9nlkTQPmwDCW+/K0QAKTTdzhKRZ2gLExRy63ApfD+lrKumXEOIxYcwXORc7B49P0W9c2lmagodTdjWvIYHVoCQpAZQJZX3cWN9GeTYIZJJ6hwCYrX9xeBT4uEJjdRii5pKK2nChn+NpBX/5sOURm1Llp4+t8XxauvzydkusRsdVdP3MrepZNHGT9Z/guREJETLHUsCn4a+UQtDwY0azcpiMGb9OfXcBszzBg7JDLIsUUoIfo+sVRvgA+t8vMJkDJEVvtW4QGHID7fxRh2GFtbJ3ox/IJTDYBmvNRb9494UN8upqAkNkBPiSD/dO8GbQyxB2eIVRuX/pJ0ccSdAihZYL+cgYQJdlnRFwXCzu4HiXDSUDIp3A7CEH7ZbJYBi2HZH83gPEXvaliojzRSoEBDZ7oF15PKmSfUYHwEaGrT4CuJumQYtz106ReTXxc3Dq24IHHDRjCBpYB/d+CGd7SxXUxSr7XwBadIwT7/lt3NQNEHk/l1t8i+cEs2wJBis+glSH14c/Z4CBSOL6TyN/ipF5fOcKSh8cKICxbLj3CvDo8DLMd64ewi2WHp2W3QRooQheXYUJ5tss5btIkClG12Ju1cn5vAPEHhrDuvv2iWvI2HKnrUYTEjG8hj2QK73cZsywbQVg/wZYQrFZen9QxhHwNySBCAZ4bCs/YX8+AIkQilZXLedg8VdaQi90jKdCBYcp0BV+vIQ9TQRDWz5bY8OxyVtcQesFaIMdfX9zje9e80fPNbrhaE+mH7qultz6L3HYxK/VXKph2d/P5yCN87xqBcIqEazEwhFh6a/WSitCyqUmZjZ0agVhpxRFOWam+/zCYx1f7M5DxcH0QNoLNJWmnRqwPwmu6lTb8Bc6pp0akIrw72ly1jNRaF1SHvr+cG+E9snq5VzJCKs9D4NvPg2U2y/1YOkLbz4zLmR42z0d7ge9iCJF+uAhCOd9K/I10wUx46kfTTrA3vnNU3kf9BesZPoYIr5VkpXIuUm6IDF6ygIF/FIteB5sPNDneHMj18NSfU2dKuQkfJcjcVqrvt5ipQ7UNIXy1bPpNBx+FTRKWdKLZARMTfmJXLaPB3KzcB+fvRIx+lK9jlpVq+y3ihyzY5gyE8r3KnU40WDIsp8bVrjN5Ao2/dwnduCRlFCwWkdXZ/lYgsRTYf4Dfbf3K+bRSGkJPbbJWkpO13ePr3Pi2DconB/hSVgb0z5RHI1FT/odfBeZLxAdKvESAnGXJquS35XdlLUyWqkrD+lKtNECTdmpEKsKHc4xf2BRCIJ056lOrKxBPE2HeyCroSxZb/JMRrnX01Lj0CC+ZDpHoKR2hH1mtXz9EdJh6asSlQJh+asQ6I2xQnbXlY96VklKip3f/1uRXdfuN4kTV+av+wHfBtVKip+vtnc+npf2luv2z4kTV+WUz9ryd9vW4DotFGH/g59slI9yOP7CpISzUSnWEzUuPcGfZCLeXbaUr1GFGT5NvPKxAP9R1WE8fD7VTI1jFEab2Q4/MPjUiPYtRAYTp/TDLqRE5ES69H6aOh4tHT5XypbmjpyyxRQWsVO+HhWaiLgXCqvfDpSOsAKfJm8VYH4QpGeGUUyPs9HmLyvdDMw4nfmrETNamxYdl98MM8eEM1paTeV+0m9Ny8Xe5CC9iz2vvqBi/lOjJuK7JB3XtrpL9G3OgurEfVqDqfKc9TwEsJ3rKLOPcADPukIhIKXma7JJXi8h5c7OkHCvNLPdzIkT2vVQc4datXABvIRvRsyJckZVWB2FZWf0lIMRW7iHjofq/gteXrkaH2PrSfNFT9REuGlu8+wbkvfp055u4/LYwwt+0Ou+oQf49fPpb4zTFRk/t7Z2LO+rTd9s703Lx7cIIv23H6mx+pZjonfZOM5WXFhMfNiMItUijAIRaNPFdiLA5KyNcSBZjxQhTs4nF5Gkqo8PLb6UZEeYbDyuAcIaV6uOhivaD8H/mzExldIhGT3E4NOd+iwogTJ97Wni/RQUQLmEOuHIIC58DrpyVXjaEuqe5bFb6T9JhboRrMlpkQhgdLbSfhqg6whnjofYjHXlZW3vlCNvp0dOiWYzr2+1mNAJuT0uzkAg4LhGEF812ydGT8fvNm+//CD58uBmX97+rO/fvBzJOyn/fGKt7wjPw/niv1fohei18QpV2IxyjAJGTt3JJlRCisxiLAqzWfot9BGGW37dMlWrte/paA/j1wnVWa9/TChGWldWPSZkIq3FqxJIQrvDUiDIQlnJqxId/aaJmMYxftWtqFiMV4W/a98I9HO/1B6rxv5zo6aK5PS0X4Xqatnbt+0wIv2/Hvte+UNe+vIhda16scL9FM76aaDsjQn1lV4hw9Wv1d1IQ7syJcKeZgjB9TVS5uxGWrcNy9j3lstJSdJg7i1HgfotVISz01IhKWWkpp0Ysx9Ms4EuzZDHmX+ddmA4zWmkp0dNy+uECVrouCOf2NCXvRqgCpyl3N8KqOM3ydpSsitMUempEJfthoadGrAvC+U+N4PMWsQdGEGroC0CoVZo+b4Gwtgjz5sTGtqM69MW9rRBufxWTyIkDO/FrX0UQcohTf26FCLXv7YQI2/FrUV8aNDBEyHfHmtTBsxiE9FqHBwcH4WHRTz8eHZ0/enR0pH7uZEubU7ipZjEM/Vp0FuMhn56I/AkXlP6uf1Fd+0O/pr74y9HRo0fnR0cfwx+BFO1v9RjyO6Q1K8K4118a6sedQ4QOWTjLXiHZZ7oOKfZLpOsrXf3Xckny2X/rKD1dhymnG66jjPQshp12+N/6SXhcYXhqBEF+cXVt5QFDTo1g1hzbxyoqLYthzJtSb9S6DDJqJJyLYdXkoiFTmbCpLFgJy1W0sqpS40PLCdwQqfm3RVhe8EVLkQZVl0UiL6syVSEIa5G6Qs6ar1kVquoK4eVCmGLxagY8UpeWL8jWeZZdFXJqRGSrgl6SrahSVSFZDKaKlIdWswA15aAdS8sXVLMqff7QVHTAUhYc6lzZihOUKJ9NrCpWhcyQVqFZVwivEF4hXH2zrhBeIYwi/D+QhLzABlpMWwAAAABJRU5ErkJggg==;" parent="1" vertex="1">
          <mxGeometry x="400" y="302.5" width="65" height="65" as="geometry" />
        </mxCell>
        <mxCell id="_L3SbqxIfx6lYunLBiMm-13" value="Paquetes" style="shape=image;verticalLabelPosition=bottom;labelBackgroundColor=default;verticalAlign=top;aspect=fixed;imageAspect=0;image=data:image/png,iVBORw0KGgoAAAANSUhEUgAAAOEAAADhCAMAAAAJbSJIAAAAhFBMVEX///8AAAD6+vqDg4OZmZnp6enk5OSmpqbw8PD09PTe3t5ERET39/fl5eX7+/urq6uWlpazs7M/Pz9LS0tSUlKfn5+Li4u5ublWVlY2NjbAwMBgYGBpaWnQ0NDY2NhcXFxtbW0nJyd7e3sYGBgfHx8LCws4ODguLi58fHyHh4ccHBwUFBRZbbv7AAAMAUlEQVR4nO1d53rqOhA0hA6hd2LAJKGE93+/Q8daJGtWxcD5PP/OvZGlQW01u1oFQVrI5+LIp1ZvesgYvj8yhu+PjOH7I2P4/sgYvj8yhi+GRo1dxJZhrcouYoFRbsMuY8twk+uwy5girB+aWOaWsmRYPhTqhtxSRiguz22sMMvZMayciy2LzHIGaF/buGIWtGO4vRZsMwtyMY01krnYWDGsxYpOeUVZmPfjjezzClsxFCv2Nx1/hEbmRqzCNgynYsU/rMIWFW2anMIWDJsbsWKP43Qm1sSa9RYMC2K1M16jWaiJVbF2DHOGFVIr355i4EOsa8koas5wKVb6wWsyE2Izc7m5aVEGwzmp07PR3hJrq+MljRnWxSpb/EbzsBbrw61hU4YdscK1SaNZCMUKf+CmGjLMk004BeP7S6xxiJYzZDgUq/syazQLn2KVOdTaN2NYJLV9mjabA/KrovuvGUNiY8Ajxg7kZwVnhhFDMutz5o1mYSTWCq5uRgzJys2z9S3QE+vFdigThmT37dk0mgUydn4bSCEDho1fsaJ0ZJoTiKW4RcoYMNyK1SxtmswEtfZLQBk+wxKphat9WaEt1r0AivAZLsRKfGtQBN9i7cCpm82QKArf9o1mgS9ocBmmKF3IMRbrH2gLcBkOxArGLhrNAj2Xav0mTIZV8n3GWdsVVmILtBI4kyH38x7Q4P7IjTh0f0yHCGRUuEZZbANTAtegL35cP829gCx2Ls1iYtzzvZVuQHaMyJ0Ilo/ET6e+U1xhI4EngphMPkXuZPgyHE3MXk8gErgrmShVkTsZTfJju/EoUO8Iy8XlGoJcO3blMqkJp4r0QjCk6N4a8uNywZtGt+92HX7WBDdBo+D4wzfDO0XpQo6zBL5yf/6urJyuXuY4itI9P4b//KjppRBAo8PQo4o5SkvkTobPxfzlQxgzZMiQIUMGPvLhbvMRPkU3SwXhx1m7irZPt6Z9IPyIB8b8rf4vks2QyB0nbMOnHt7doRFu/yT8jtivwlSviXhBuNoo6J0RLZ+mhbpAuE1kd8XqPUk2pHNPTfLNtpBGuIoY/I74W77RnJwuf/SMJPj+eovhOl3pqSRgOX3pLaRqSe9KMtXAGRz56cpscD5iv3zBhWe6/NW3nIOXmpON6VLf4hP+DtMM7+qv0UusrlWY3vd17OVDBsknz8nm9Etlc1KspvEOOWyYYLn9bPS8OTn90jfwDKnxCZPMzUZP2ELwwRklHAXDbYT+RukO18roa481bL/VaBb58AMlmdqcbI4W6MawChG/g/x8LEXf/5xsjGb6dpzwzdIpwi26uo47HkkeBifYjMPcY68N4Tb5rHzHrOPFqVgdzcDBuTfVCxvzIdqTs47jOYkPztyHnYg2H+qrOGPccWbxVDoLfX0nuBFCwx06XPstBz1Z7KC9t/lwpw6GuwlY66JlNScbnbG+jhP2O2hjwNGcD8Et99CT5qtrX//5I/52fgRseOExDt7t6L+dy012PmPM58O1vgnGgWEV/TCJhnPvNvF8qJ+Te7MVR2v6D9O6IVBr67Zio1B+en1TxGaYrvNI15MmrYmSPphGNiOCSuKYivgf1NkWY7uNiAm91cEOD6NxujJ0y+kc2Kqtnr4x7Phk5JsH9Mq+e7LYAq0O5iXhlv6LV4zL/kLpiy3UJM4xU4LQi2Ma1L3MyUoHHEhXcM4asIh2w9rxnKy06vpKCRgXT6b6r0nQL7hKWlEcoBa/CNgRQG8dLQtd6Qcf0SvbX0golUGDPzcpEEUzQg8ZdCs8jL9SAdUX1gObOVkpo4Pzt334MavEmgM3RXq58WK4lwqQmX/AZGA2XItldKxM2pexQo8/mKVMiMSuGNcG6OrWG3C3EHxw1tsxHmTCTpCqyNVQkvOmNECHUX2Az8lSGf3p1m3xp6P5gIC0qjSpz+OlwuIAFVGiAtKT+Pc2ktWaXFUE7mcQ4Une7XhPTtrJJEsDdO51C/IxQX4e7aZIt0LluasEz8l6WzVc8XldV9ALHs+xmvstTbL8Jp6di3BPriUN/IR7b5K8bJFz42+yrkL+eq/bQvH960+Yk58DVPXtavfXBtGTEnuF2eMnMGyQ4bkna23YRoLWY3hmBfH7kieg2TaK8GLfHYZttNd7sHVENsWEO5kknQjnZlwFtkcwbDhHa7rDKTMw0MvnzKTkRUhsQFAvM80+aqWoVibSQEbmzjtJxplcASPNgIx8haJBclEYZoSBdRUpTHUfelqQLpFUuTC/549pY4+oW+gENNhBpmjQrdC4siP4Pdm3VO30myLdCq1DAzlzcmwvSuo3RWJjOLkkXoU8rD03UQdEPXtIaSNRLpwgryHZdxZvQBOiEEWDboUuEy6rQwEsnfAEVMUWNx2y+LnORVGVWWp11/GxxKoSNkVK33Ved7kv0rUHknqTYgORDmHXWTzosxEXOH/EgbwwEFtMqIjvdn6ofZFuU0I8zvfbhiAbQ07CjS5Q+yLdzQb5xnSZB01FzEWv5WgpUNtwjhIDK/fd/VnR2Ckb4MLWSPZFOtiViq2EuLTd8S+oWU7Qb1l6lJJ9kZbDRGv/Hg9IelGhazUnk32RNtZhFXCh1h+Px4o/ND7Y6HyRphZ+BTyiDQJYGBpzpYUTGpHms7DPL45iGT23dI9eiVIb9RvwPUrasJzLYsDBJ3z2jO5qe6kQgYUmPAcoEpbD2hRxTe+POhNwmbbLcIAiTlXI53cCrsuu5VGFNYZYiw1XKsDKgSWY/YS1dQW9M0oFdE4iPUmVWhX0A78I+0cipafr/rEB6q/f6HoSDYLX+Pxw//4GcskGR78e+ot1k34xKsCqkeABcuGnVHwY9terPkzf90qCItAfd6GqPMSJwLM+bKRzknNzXebz+4T9+6byNSevhSQo4cEXmfCvR0UDD19Ii2HuYbiS1WEhPjFEH68QnuPB5166DHPCTvToixT++bCT3LQh3PSIwQHDGXM/opE8g4eXA6SRSbj5uBYGgQOGg4NNgQ6dI8lHX+TD2wgPPr8aHDl3tKmEQeKA4WkQlcqoVU+bOpcwpOICSq9/NjQE6dAVwwA/eIo4Ppf0+L4FlmNJRPemHPliGJg4QE+P4Ehe8PhW/L0KgtLgkWHAdoBOFQxZ0dZ9ojH4ZcgjeVabZK+woHkZZB5i7wwDfE5WlAypw0QOudaXBsMAuwV9UX2lL+nob670VT6UlBgG+rvQV1+k/K2gZPslyUWUHsPgKM0m9OTVWJUzTJCqNM6hVBkGx2vfChXlFkWteO+JRjFf0NP699NmGBzTZkh6cnKLZ1UwbEpOSWMk8cUTGAbHOUnX/7tor3qzi54jv8C8Hs9hGNAUGsv7/1C+Shb/URjJLp7G8Ih7GpSYU0LJ8Pa82bjDycvwVIa3VDbxTADql+VOV3vYSWeezDA4JbQRoqgT3s5bmKSbeT5DCtPX41XIGALIGDKRMeQiYwggY8hExpCLjCGAjCETGUMuMoYAMoZMvDpD+7B61wyHjhnaZy9zypD6hRxFKthFQ7tjKIl+dheLYZG9zBHDYksmrjuNNjEIFD7BBcNPVSCB63iauglJa4ZJ8bMeIoaY0dCBLUNN9LOfmKgeLx2UBcOiNjzYW9QXlpnjDFOGUGYRM4ZYuIsmeYwlw2IZiyPaGjEcoUFKEZRsj8+QkUDK9OHsWsFhBDKTobfoZ4uKNHHIHIZ4rYmB5ijQuaAJ3ocZci4LOLvNy4u8tGGIX/gwMjuSgKeD6g6lJAGGnEs7ri/Un4BnL5tIelLHEI+ftUuvqYHF1bFEht4uz5lAfnyRNkYgqWZYY2SA9ZeVmZBEIy+79+B9BcM5PPdogKln4JmMfy4kZQxr7Qj8ytp74nApSTga+kRS+C8neuirdPVn0DsDH66TnRiaDz7NkfObER0C/pKQCfoppe7XALn5b4K6uxed7FGBXxVCoYx+fh7wl6H0cJ0gxxnc9GTPYWocD8hbLjx9V0lxfKKCP0NHsPDz7J8P4C8l3uH8wT/faMji2pVwl3ovVeTBRyEdvmSYPg7DVUMSDc1/YSS9HPwiL287gPT158UzXmr2h8b0K35j9Hf23/ReDJXbcE35Ceo00ZiuflfTdN9K/wezHbFxMnFpeAAAAABJRU5ErkJggg==;" parent="1" vertex="1">
          <mxGeometry x="530" y="299.5" width="65" height="65" as="geometry" />
        </mxCell>
        <mxCell id="_L3SbqxIfx6lYunLBiMm-14" value="Mis Paquetes" style="shape=image;verticalLabelPosition=bottom;labelBackgroundColor=default;verticalAlign=top;aspect=fixed;imageAspect=0;image=data:image/png,iVBORw0KGgoAAAANSUhEUgAAAOEAAADhCAMAAAAJbSJIAAAAhFBMVEX///8AAAD6+vqDg4OZmZnp6enk5OSmpqbw8PD09PTe3t5ERET39/fl5eX7+/urq6uWlpazs7M/Pz9LS0tSUlKfn5+Li4u5ublWVlY2NjbAwMBgYGBpaWnQ0NDY2NhcXFxtbW0nJyd7e3sYGBgfHx8LCws4ODguLi58fHyHh4ccHBwUFBRZbbv7AAAMAUlEQVR4nO1d53rqOhA0hA6hd2LAJKGE93+/Q8daJGtWxcD5PP/OvZGlQW01u1oFQVrI5+LIp1ZvesgYvj8yhu+PjOH7I2P4/sgYvj8yhi+GRo1dxJZhrcouYoFRbsMuY8twk+uwy5girB+aWOaWsmRYPhTqhtxSRiguz22sMMvZMayciy2LzHIGaF/buGIWtGO4vRZsMwtyMY01krnYWDGsxYpOeUVZmPfjjezzClsxFCv2Nx1/hEbmRqzCNgynYsU/rMIWFW2anMIWDJsbsWKP43Qm1sSa9RYMC2K1M16jWaiJVbF2DHOGFVIr355i4EOsa8koas5wKVb6wWsyE2Izc7m5aVEGwzmp07PR3hJrq+MljRnWxSpb/EbzsBbrw61hU4YdscK1SaNZCMUKf+CmGjLMk004BeP7S6xxiJYzZDgUq/syazQLn2KVOdTaN2NYJLV9mjabA/KrovuvGUNiY8Ajxg7kZwVnhhFDMutz5o1mYSTWCq5uRgzJys2z9S3QE+vFdigThmT37dk0mgUydn4bSCEDho1fsaJ0ZJoTiKW4RcoYMNyK1SxtmswEtfZLQBk+wxKphat9WaEt1r0AivAZLsRKfGtQBN9i7cCpm82QKArf9o1mgS9ocBmmKF3IMRbrH2gLcBkOxArGLhrNAj2Xav0mTIZV8n3GWdsVVmILtBI4kyH38x7Q4P7IjTh0f0yHCGRUuEZZbANTAtegL35cP829gCx2Ls1iYtzzvZVuQHaMyJ0Ilo/ET6e+U1xhI4EngphMPkXuZPgyHE3MXk8gErgrmShVkTsZTfJju/EoUO8Iy8XlGoJcO3blMqkJp4r0QjCk6N4a8uNywZtGt+92HX7WBDdBo+D4wzfDO0XpQo6zBL5yf/6urJyuXuY4itI9P4b//KjppRBAo8PQo4o5SkvkTobPxfzlQxgzZMiQIUMGPvLhbvMRPkU3SwXhx1m7irZPt6Z9IPyIB8b8rf4vks2QyB0nbMOnHt7doRFu/yT8jtivwlSviXhBuNoo6J0RLZ+mhbpAuE1kd8XqPUk2pHNPTfLNtpBGuIoY/I74W77RnJwuf/SMJPj+eovhOl3pqSRgOX3pLaRqSe9KMtXAGRz56cpscD5iv3zBhWe6/NW3nIOXmpON6VLf4hP+DtMM7+qv0UusrlWY3vd17OVDBsknz8nm9Etlc1KspvEOOWyYYLn9bPS8OTn90jfwDKnxCZPMzUZP2ELwwRklHAXDbYT+RukO18roa481bL/VaBb58AMlmdqcbI4W6MawChG/g/x8LEXf/5xsjGb6dpzwzdIpwi26uo47HkkeBifYjMPcY68N4Tb5rHzHrOPFqVgdzcDBuTfVCxvzIdqTs47jOYkPztyHnYg2H+qrOGPccWbxVDoLfX0nuBFCwx06XPstBz1Z7KC9t/lwpw6GuwlY66JlNScbnbG+jhP2O2hjwNGcD8Et99CT5qtrX//5I/52fgRseOExDt7t6L+dy012PmPM58O1vgnGgWEV/TCJhnPvNvF8qJ+Te7MVR2v6D9O6IVBr67Zio1B+en1TxGaYrvNI15MmrYmSPphGNiOCSuKYivgf1NkWY7uNiAm91cEOD6NxujJ0y+kc2Kqtnr4x7Phk5JsH9Mq+e7LYAq0O5iXhlv6LV4zL/kLpiy3UJM4xU4LQi2Ma1L3MyUoHHEhXcM4asIh2w9rxnKy06vpKCRgXT6b6r0nQL7hKWlEcoBa/CNgRQG8dLQtd6Qcf0SvbX0golUGDPzcpEEUzQg8ZdCs8jL9SAdUX1gObOVkpo4Pzt334MavEmgM3RXq58WK4lwqQmX/AZGA2XItldKxM2pexQo8/mKVMiMSuGNcG6OrWG3C3EHxw1tsxHmTCTpCqyNVQkvOmNECHUX2Az8lSGf3p1m3xp6P5gIC0qjSpz+OlwuIAFVGiAtKT+Pc2ktWaXFUE7mcQ4Une7XhPTtrJJEsDdO51C/IxQX4e7aZIt0LluasEz8l6WzVc8XldV9ALHs+xmvstTbL8Jp6di3BPriUN/IR7b5K8bJFz42+yrkL+eq/bQvH960+Yk58DVPXtavfXBtGTEnuF2eMnMGyQ4bkna23YRoLWY3hmBfH7kieg2TaK8GLfHYZttNd7sHVENsWEO5kknQjnZlwFtkcwbDhHa7rDKTMw0MvnzKTkRUhsQFAvM80+aqWoVibSQEbmzjtJxplcASPNgIx8haJBclEYZoSBdRUpTHUfelqQLpFUuTC/549pY4+oW+gENNhBpmjQrdC4siP4Pdm3VO30myLdCq1DAzlzcmwvSuo3RWJjOLkkXoU8rD03UQdEPXtIaSNRLpwgryHZdxZvQBOiEEWDboUuEy6rQwEsnfAEVMUWNx2y+LnORVGVWWp11/GxxKoSNkVK33Ved7kv0rUHknqTYgORDmHXWTzosxEXOH/EgbwwEFtMqIjvdn6ofZFuU0I8zvfbhiAbQ07CjS5Q+yLdzQb5xnSZB01FzEWv5WgpUNtwjhIDK/fd/VnR2Ckb4MLWSPZFOtiViq2EuLTd8S+oWU7Qb1l6lJJ9kZbDRGv/Hg9IelGhazUnk32RNtZhFXCh1h+Px4o/ND7Y6HyRphZ+BTyiDQJYGBpzpYUTGpHms7DPL45iGT23dI9eiVIb9RvwPUrasJzLYsDBJ3z2jO5qe6kQgYUmPAcoEpbD2hRxTe+POhNwmbbLcIAiTlXI53cCrsuu5VGFNYZYiw1XKsDKgSWY/YS1dQW9M0oFdE4iPUmVWhX0A78I+0cipafr/rEB6q/f6HoSDYLX+Pxw//4GcskGR78e+ot1k34xKsCqkeABcuGnVHwY9terPkzf90qCItAfd6GqPMSJwLM+bKRzknNzXebz+4T9+6byNSevhSQo4cEXmfCvR0UDD19Ii2HuYbiS1WEhPjFEH68QnuPB5166DHPCTvToixT++bCT3LQh3PSIwQHDGXM/opE8g4eXA6SRSbj5uBYGgQOGg4NNgQ6dI8lHX+TD2wgPPr8aHDl3tKmEQeKA4WkQlcqoVU+bOpcwpOICSq9/NjQE6dAVwwA/eIo4Ppf0+L4FlmNJRPemHPliGJg4QE+P4Ehe8PhW/L0KgtLgkWHAdoBOFQxZ0dZ9ojH4ZcgjeVabZK+woHkZZB5i7wwDfE5WlAypw0QOudaXBsMAuwV9UX2lL+nob670VT6UlBgG+rvQV1+k/K2gZPslyUWUHsPgKM0m9OTVWJUzTJCqNM6hVBkGx2vfChXlFkWteO+JRjFf0NP699NmGBzTZkh6cnKLZ1UwbEpOSWMk8cUTGAbHOUnX/7tor3qzi54jv8C8Hs9hGNAUGsv7/1C+Shb/URjJLp7G8Ih7GpSYU0LJ8Pa82bjDycvwVIa3VDbxTADql+VOV3vYSWeezDA4JbQRoqgT3s5bmKSbeT5DCtPX41XIGALIGDKRMeQiYwggY8hExpCLjCGAjCETGUMuMoYAMoZMvDpD+7B61wyHjhnaZy9zypD6hRxFKthFQ7tjKIl+dheLYZG9zBHDYksmrjuNNjEIFD7BBcNPVSCB63iauglJa4ZJ8bMeIoaY0dCBLUNN9LOfmKgeLx2UBcOiNjzYW9QXlpnjDFOGUGYRM4ZYuIsmeYwlw2IZiyPaGjEcoUFKEZRsj8+QkUDK9OHsWsFhBDKTobfoZ4uKNHHIHIZ4rYmB5ijQuaAJ3ocZci4LOLvNy4u8tGGIX/gwMjuSgKeD6g6lJAGGnEs7ri/Un4BnL5tIelLHEI+ftUuvqYHF1bFEht4uz5lAfnyRNkYgqWZYY2SA9ZeVmZBEIy+79+B9BcM5PPdogKln4JmMfy4kZQxr7Qj8ytp74nApSTga+kRS+C8neuirdPVn0DsDH66TnRiaDz7NkfObER0C/pKQCfoppe7XALn5b4K6uxed7FGBXxVCoYx+fh7wl6H0cJ0gxxnc9GTPYWocD8hbLjx9V0lxfKKCP0NHsPDz7J8P4C8l3uH8wT/faMji2pVwl3ovVeTBRyEdvmSYPg7DVUMSDc1/YSS9HPwiL287gPT158UzXmr2h8b0K35j9Hf23/ReDJXbcE35Ceo00ZiuflfTdN9K/wezHbFxMnFpeAAAAABJRU5ErkJggg==;" parent="1" vertex="1">
          <mxGeometry x="640" y="300" width="65" height="65" as="geometry" />
        </mxCell>
        <mxCell id="_L3SbqxIfx6lYunLBiMm-15" value="Paquetes" style="html=1;outlineConnect=0;whiteSpace=wrap;fillColor=#dae8fc;shape=mxgraph.archimate3.application;archiType=rounded;strokeColor=#6c8ebf;" parent="1" vertex="1">
          <mxGeometry x="140" y="250" width="580" height="40" as="geometry" />
        </mxCell>
        <mxCell id="_L3SbqxIfx6lYunLBiMm-16" value="Administrar" style="html=1;outlineConnect=0;whiteSpace=wrap;fillColor=#d5e8d4;shape=mxgraph.archimate3.application;archiType=rounded;strokeColor=#82b366;" parent="1" vertex="1">
          <mxGeometry x="142.5" y="400" width="580" height="40" as="geometry" />
        </mxCell>
        <mxCell id="_L3SbqxIfx6lYunLBiMm-17" value="Nuevo Casillero" style="shape=image;html=1;verticalAlign=top;verticalLabelPosition=bottom;labelBackgroundColor=#ffffff;imageAspect=0;aspect=fixed;image=https://cdn4.iconfinder.com/data/icons/dot/128/locker_bagage_key.png" parent="1" vertex="1">
          <mxGeometry x="142.5" y="453.5" width="78" height="78" as="geometry" />
        </mxCell>
        <mxCell id="_L3SbqxIfx6lYunLBiMm-19" value="Transporte" style="html=1;outlineConnect=0;whiteSpace=wrap;fillColor=#e1d5e7;shape=mxgraph.archimate3.application;archiType=rounded;strokeColor=#9673a6;" parent="1" vertex="1">
          <mxGeometry x="142.5" y="560" width="580" height="40" as="geometry" />
        </mxCell>
        <mxCell id="_L3SbqxIfx6lYunLBiMm-20" value="Casilleros" style="shape=image;html=1;verticalAlign=top;verticalLabelPosition=bottom;labelBackgroundColor=#ffffff;imageAspect=0;aspect=fixed;image=https://cdn0.iconfinder.com/data/icons/education-1006/32/locker_door_school_metal_storage_safety_lock_box_locker_room_cabinet-128.png" parent="1" vertex="1">
          <mxGeometry x="250" y="470" width="61.5" height="61.5" as="geometry" />
        </mxCell>
        <mxCell id="_L3SbqxIfx6lYunLBiMm-21" value="&lt;span style=&quot;white-space: pre;&quot;&gt; &lt;/span&gt;Envios" style="sketch=0;pointerEvents=1;shadow=0;dashed=0;html=1;strokeColor=none;fillColor=#005F4B;labelPosition=center;verticalLabelPosition=bottom;verticalAlign=top;align=center;outlineConnect=0;shape=mxgraph.veeam2.transport;" parent="1" vertex="1">
          <mxGeometry x="140" y="620" width="74" height="40" as="geometry" />
        </mxCell>
        <mxCell id="_L3SbqxIfx6lYunLBiMm-22" value="Facturacion" style="html=1;outlineConnect=0;whiteSpace=wrap;fillColor=#ffe6cc;shape=mxgraph.archimate3.application;archiType=rounded;strokeColor=#d79b00;" parent="1" vertex="1">
          <mxGeometry x="142.5" y="690" width="580" height="40" as="geometry" />
        </mxCell>
        <mxCell id="_L3SbqxIfx6lYunLBiMm-23" value="Facturas" style="shape=image;html=1;verticalAlign=top;verticalLabelPosition=bottom;labelBackgroundColor=#ffffff;imageAspect=0;aspect=fixed;image=https://cdn0.iconfinder.com/data/icons/elasto-online-store/26/00-ELASTOFONT-STORE-READY_invoice-128.png" parent="1" vertex="1">
          <mxGeometry x="142.5" y="750" width="78" height="78" as="geometry" />
        </mxCell>
        <mxCell id="_L3SbqxIfx6lYunLBiMm-24" value="Login" style="shape=image;verticalLabelPosition=bottom;labelBackgroundColor=#ffffff;verticalAlign=top;aspect=fixed;imageAspect=0;image=data:image/svg+xml,PHN2ZyB4bWxuczpjYz0iaHR0cDovL2NyZWF0aXZlY29tbW9ucy5vcmcvbnMjIiB4bWxuczpkYz0iaHR0cDovL3B1cmwub3JnL2RjL2VsZW1lbnRzLzEuMS8iIHhtbG5zOmlua3NjYXBlPSJodHRwOi8vd3d3Lmlua3NjYXBlLm9yZy9uYW1lc3BhY2VzL2lua3NjYXBlIiB4bWxuczpyZGY9Imh0dHA6Ly93d3cudzMub3JnLzE5OTkvMDIvMjItcmRmLXN5bnRheC1ucyMiIHhtbG5zOnNvZGlwb2RpPSJodHRwOi8vc29kaXBvZGkuc291cmNlZm9yZ2UubmV0L0RURC9zb2RpcG9kaS0wLmR0ZCIgeG1sbnM6c3ZnPSJodHRwOi8vd3d3LnczLm9yZy8yMDAwL3N2ZyIgeG1sbnM9Imh0dHA6Ly93d3cudzMub3JnLzIwMDAvc3ZnIiB4bWxuczp4bGluaz0iaHR0cDovL3d3dy53My5vcmcvMTk5OS94bGluayIgdmVyc2lvbj0iMS4xIiBpZD0ic3ZnODkyNjkiIGlua3NjYXBlOnZlcnNpb249IjAuOTIuMyAoMjQwNTU0NiwgMjAxOC0wMy0xMSkiIHNvZGlwb2RpOmRvY25hbWU9ImxvZ2luLnN2ZyIgeD0iMHB4IiB5PSIwcHgiIHZpZXdCb3g9IjAgMCA0OC4yMyA1OS4xNCIgc3R5bGU9ImVuYWJsZS1iYWNrZ3JvdW5kOm5ldyAwIDAgNDguMjMgNTkuMTQ7IiB4bWw6c3BhY2U9InByZXNlcnZlIj4mI3hhOzxzb2RpcG9kaTpuYW1lZHZpZXcgYm9yZGVyY29sb3I9IiM2NjY2NjYiIGJvcmRlcm9wYWNpdHk9IjEiIGZpdC1tYXJnaW4tYm90dG9tPSIwIiBmaXQtbWFyZ2luLWxlZnQ9IjAiIGZpdC1tYXJnaW4tcmlnaHQ9IjAiIGZpdC1tYXJnaW4tdG9wPSIwIiBncmlkdG9sZXJhbmNlPSIxMCIgZ3VpZGV0b2xlcmFuY2U9IjEwIiBpZD0ibmFtZWR2aWV3ODkyNzEiIGlua3NjYXBlOmN1cnJlbnQtbGF5ZXI9InN2Zzg5MjY5IiBpbmtzY2FwZTpjeD0iMzIuMTUxNDIzIiBpbmtzY2FwZTpjeT0iMzkuNDI5Mjg4IiBpbmtzY2FwZTpwYWdlb3BhY2l0eT0iMCIgaW5rc2NhcGU6cGFnZXNoYWRvdz0iMiIgaW5rc2NhcGU6d2luZG93LWhlaWdodD0iMTAxNyIgaW5rc2NhcGU6d2luZG93LW1heGltaXplZD0iMSIgaW5rc2NhcGU6d2luZG93LXdpZHRoPSIxOTIwIiBpbmtzY2FwZTp3aW5kb3cteD0iLTgiIGlua3NjYXBlOndpbmRvdy15PSItOCIgaW5rc2NhcGU6em9vbT0iMTAuOTAzNjMyIiBvYmplY3R0b2xlcmFuY2U9IjEwIiBwYWdlY29sb3I9IiNmZmZmZmYiIHNob3dncmlkPSJmYWxzZSI+JiN4YTsJPC9zb2RpcG9kaTpuYW1lZHZpZXc+JiN4YTs8ZyBpZD0iZzg5MjY3IiB0cmFuc2Zvcm09InRyYW5zbGF0ZSgtMC4yNDk5NzQwMywtMC4yNDk5NzQwMykiPiYjeGE7CTx0aXRsZSBpZD0idGl0bGU4OTIxOCI+UGFnZS0xPC90aXRsZT4mI3hhOwk8ZyBpZD0iZ3JvdXA1MDQ5LTEiIHRyYW5zZm9ybT0idHJhbnNsYXRlKDAuNSwtMC41KSI+JiN4YTsJCTx0aXRsZSBpZD0idGl0bGU4OTIyMCI+TG9naW48L3RpdGxlPiYjeGE7CQk8ZyBpZD0ic2hhcGU1MDUwLTIiPiYjeGE7CQkJPHRpdGxlIGlkPSJ0aXRsZTg5MjIyIj5wYXRoLTk8L3RpdGxlPiYjeGE7CQkJJiN4YTsJCQkJPHBhdGggaWQ9InBhdGg4OTIyNCIgaW5rc2NhcGU6Y29ubmVjdG9yLWN1cnZhdHVyZT0iMCIgc3R5bGU9ImZpbGw6I0FBRTlGQjtzdHJva2U6IzU1NkE4QTtzdHJva2Utd2lkdGg6MC41O3N0cm9rZS1taXRlcmxpbWl0OjM7IiBkPSIgICAgIE0wLDU4LjYxYzAsMC41NiwwLjQ1LDEuMDMsMS4wMiwxLjAzYzAsMCwwLDAsMCwwSDQ2LjdjMC41NiwwLDEuMDMtMC40NSwxLjAzLTEuMDJjMCwwLDAtMC4wMSwwLTAuMDFWMi4wMiAgICAgQzQ3LjczLDEuNDYsNDcuMjcsMSw0Ni43LDFjMCwwLDAsMCwwLDBIMS4wMkMwLjQ2LDEsMCwxLjQ2LDAsMi4wMlY1OC42MXoiLz4mI3hhOwkJPC9nPiYjeGE7CQk8ZyBpZD0iZ3JvdXA1MDUxLTQiIHRyYW5zZm9ybT0idHJhbnNsYXRlKDE1LjM0MDgsLTMxLjAyMjYpIj4mI3hhOwkJCTx0aXRsZSBpZD0idGl0bGU4OTIyNyI+RmlsbC0xNDwvdGl0bGU+JiN4YTsJCQk8ZyBpZD0iZ3JvdXA1MDUyLTUiPiYjeGE7CQkJCTx0aXRsZSBpZD0idGl0bGU4OTIyOSI+TWFzazwvdGl0bGU+JiN4YTsJCQkJPGcgaWQ9InNoYXBlNTA1My02Ij4mI3hhOwkJCQkJPHRpdGxlIGlkPSJ0aXRsZTg5MjMxIj5wYXRoLTExPC90aXRsZT4mI3hhOwkJCQkJPGNpcmNsZSBpZD0iZWxsaXBzZTg5MjMzIiBzdHlsZT0iZmlsbDojRUI0RTQ4OyIgY3g9IjguNTIiIGN5PSI1MS4xMSIgcj0iOC41MiIvPiYjeGE7CQkJCTwvZz4mI3hhOwkJCQk8ZyBpZD0ic2hhcGU1MDU0LTgiPiYjeGE7CQkJCQk8dGl0bGUgaWQ9InRpdGxlODkyMzYiPlNoZWV0LjUwNTQ8L3RpdGxlPiYjeGE7CQkJCQkmI3hhOwkJCQkJCTxjaXJjbGUgaWQ9ImVsbGlwc2U4OTIzOCIgc3R5bGU9ImZpbGw6bm9uZTtzdHJva2U6I0NDQ0NDQztzdHJva2Utd2lkdGg6NC41O3N0cm9rZS1taXRlcmxpbWl0OjM7IiBjeD0iOC41MiIgY3k9IjUxLjExIiByPSI4LjUyIi8+JiN4YTsJCQkJPC9nPiYjeGE7CQkJCTxnIGlkPSJzaGFwZTUwNTUtMTAiPiYjeGE7CQkJCQk8dGl0bGUgaWQ9InRpdGxlODkyNDEiPlNoZWV0LjUwNTU8L3RpdGxlPiYjeGE7CQkJCQkmI3hhOwkJCQkJCTxjaXJjbGUgaWQ9ImVsbGlwc2U4OTI0MyIgc3R5bGU9ImZpbGw6bm9uZTtzdHJva2U6I0ZGRkZGRjtzdHJva2Utd2lkdGg6NC41O3N0cm9rZS1taXRlcmxpbWl0OjM7IiBjeD0iOC41MiIgY3k9IjUxLjExIiByPSI4LjUyIi8+JiN4YTsJCQkJPC9nPiYjeGE7CQkJPC9nPiYjeGE7CQkJPGcgaWQ9InNoYXBlNTA1Ni0xMiIgdHJhbnNmb3JtPSJ0cmFuc2xhdGUoMi4zODYzNSkiPiYjeGE7CQkJCTx0aXRsZSBpZD0idGl0bGU4OTI0NyI+U2hlZXQuNTA1NjwvdGl0bGU+JiN4YTsJCQkJPHBhdGggaWQ9InBhdGg4OTI0OSIgaW5rc2NhcGU6Y29ubmVjdG9yLWN1cnZhdHVyZT0iMCIgc3R5bGU9ImZpbGw6I0ZGRkZGRjsiIGQ9Ik0xMi42MSw1OC4xM3YxLjUxSDB2LTEuNTFsNC4yLTIuN3YtMS4wNSAgICAgIGMtMC4yNSwwLTAuNDktMC4yNi0wLjcyLTAuNzhjLTAuMjItMC41Mi0wLjMzLTAuOTYtMC4zMy0xLjMydi0yLjFjMC0wLjg3LDAuMzEtMS42MiwwLjkzLTIuMjNjMC42Mi0wLjYyLDEuMzYtMC45MywyLjIzLTAuOTMgICAgICBzMS42MSwwLjMxLDIuMjMsMC45M2MwLjYxLDAuNjEsMC45MiwxLjM2LDAuOTIsMi4yM3YyLjFjMCwwLjM2LTAuMTEsMC44LTAuMzMsMS4zMnMtMC40NiwwLjc4LTAuNzIsMC43OHYxLjA1TDEyLjYxLDU4LjEzeiIvPiYjeGE7CQkJPC9nPiYjeGE7CQk8L2c+JiN4YTsJCTxnIGlkPSJzaGFwZTUwNTctMTQiIHRyYW5zZm9ybT0idHJhbnNsYXRlKDkuMjA0NSwtMTcuMDQ1NCkiPiYjeGE7CQkJPHRpdGxlIGlkPSJ0aXRsZTg5MjUzIj5wYXRoLTE1PC90aXRsZT4mI3hhOwkJCSYjeGE7CQkJCTxwYXRoIGlkPSJwYXRoODkyNTUiIGlua3NjYXBlOmNvbm5lY3Rvci1jdXJ2YXR1cmU9IjAiIHN0eWxlPSJmaWxsOiNGRkZGRkY7c3Ryb2tlOiM1NTZBOEE7c3Ryb2tlLXdpZHRoOjAuNTtzdHJva2UtbWl0ZXJsaW1pdDozOyIgZD0iICAgICBNMCw1OC45NWMwLDAuMzgsMC4zMSwwLjY4LDAuNjgsMC42OGwyNy45NiwwLjAxYzAuMzgsMCwwLjY4LTAuMzEsMC42OC0wLjY4bDAtNy4xNmMwLTAuMzgtMC4zMS0wLjY4LTAuNjgtMC42OEwwLjY4LDUxLjExICAgICBDMC4zLDUxLjExLDAsNTEuNDIsMCw1MS43OUwwLDU4Ljk1eiIvPiYjeGE7CQk8L2c+JiN4YTsJCTxnIGlkPSJncm91cDUwNTgtMTYiIHRyYW5zZm9ybT0idHJhbnNsYXRlKDkuMjA0NSwtNi44MTgxNSkiPiYjeGE7CQkJPHRpdGxlIGlkPSJ0aXRsZTg5MjU4Ij5EeW5hbWljLWdyb3VwPC90aXRsZT4mI3hhOwkJCTxnIGlkPSJzaGFwZTUwNTktMTciPiYjeGE7CQkJCTx0aXRsZSBpZD0idGl0bGU4OTI2MCI+cGF0aC0xNzwvdGl0bGU+JiN4YTsJCQkJPHBhdGggaWQ9InBhdGg4OTI2MiIgaW5rc2NhcGU6Y29ubmVjdG9yLWN1cnZhdHVyZT0iMCIgc3R5bGU9ImZpbGw6I0U2RTZFNjsiIGQ9Ik0wLDU4Ljk1YzAsMC4zOCwwLjMxLDAuNjgsMC42OCwwLjY4ICAgICAgbDI3Ljk2LDAuMDFjMC4zOCwwLDAuNjgtMC4zMSwwLjY4LTAuNjhsMC03LjE2YzAtMC4zOC0wLjMxLTAuNjgtMC42OC0wLjY4TDAuNjgsNTEuMTFDMC4zLDUxLjExLDAsNTEuNDIsMCw1MS43OUwwLDU4Ljk1eiIvPiYjeGE7CQkJPC9nPiYjeGE7CQk8L2c+JiN4YTsJPC9nPiYjeGE7PC9nPiYjeGE7PC9zdmc+;" parent="1" vertex="1">
          <mxGeometry x="393.96" y="-80" width="65.08" height="80" as="geometry" />
        </mxCell>
        <mxCell id="_L3SbqxIfx6lYunLBiMm-25" value="Cerrar Session" style="shape=image;html=1;verticalAlign=top;verticalLabelPosition=bottom;labelBackgroundColor=#ffffff;imageAspect=0;aspect=fixed;image=https://cdn3.iconfinder.com/data/icons/arrows-396/48/arrow_login-128.png" parent="1" vertex="1">
          <mxGeometry x="645" y="159" width="60" height="60" as="geometry" />
        </mxCell>
        <mxCell id="_L3SbqxIfx6lYunLBiMm-26" value="Profile" style="html=1;strokeColor=none;fillColor=#0079D6;labelPosition=center;verticalLabelPosition=middle;verticalAlign=top;align=center;fontSize=12;outlineConnect=0;spacingTop=-6;fontColor=#FFFFFF;sketch=0;shape=mxgraph.sitemap.profile;" parent="1" vertex="1">
          <mxGeometry x="140" y="159" width="120" height="70" as="geometry" />
        </mxCell>
        <mxCell id="_L3SbqxIfx6lYunLBiMm-29" value="Menu" style="shape=image;verticalLabelPosition=bottom;labelBackgroundColor=#ffffff;verticalAlign=top;aspect=fixed;imageAspect=0;image=data:image/svg+xml,PHN2ZyB4bWxuczpjYz0iaHR0cDovL2NyZWF0aXZlY29tbW9ucy5vcmcvbnMjIiB4bWxuczpkYz0iaHR0cDovL3B1cmwub3JnL2RjL2VsZW1lbnRzLzEuMS8iIHhtbG5zOmlua3NjYXBlPSJodHRwOi8vd3d3Lmlua3NjYXBlLm9yZy9uYW1lc3BhY2VzL2lua3NjYXBlIiB4bWxuczpyZGY9Imh0dHA6Ly93d3cudzMub3JnLzE5OTkvMDIvMjItcmRmLXN5bnRheC1ucyMiIHhtbG5zOnNvZGlwb2RpPSJodHRwOi8vc29kaXBvZGkuc291cmNlZm9yZ2UubmV0L0RURC9zb2RpcG9kaS0wLmR0ZCIgeG1sbnM6c3ZnPSJodHRwOi8vd3d3LnczLm9yZy8yMDAwL3N2ZyIgeG1sbnM9Imh0dHA6Ly93d3cudzMub3JnLzIwMDAvc3ZnIiB4bWxuczp4bGluaz0iaHR0cDovL3d3dy53My5vcmcvMTk5OS94bGluayIgdmVyc2lvbj0iMS4xIiBpZD0ic3ZnNTg2MzQiIGlua3NjYXBlOnZlcnNpb249IjAuOTIuMyAoMjQwNTU0NiwgMjAxOC0wMy0xMSkiIHNvZGlwb2RpOmRvY25hbWU9ImFwcHMuc3ZnIiB4PSIwcHgiIHk9IjBweCIgdmlld0JveD0iMCAwIDUzLjI2IDUzLjkyIiBzdHlsZT0iZW5hYmxlLWJhY2tncm91bmQ6bmV3IDAgMCA1My4yNiA1My45MjsiIHhtbDpzcGFjZT0icHJlc2VydmUiPiYjeGE7PHNvZGlwb2RpOm5hbWVkdmlldyBib3JkZXJjb2xvcj0iIzY2NjY2NiIgYm9yZGVyb3BhY2l0eT0iMSIgZml0LW1hcmdpbi1ib3R0b209IjAiIGZpdC1tYXJnaW4tbGVmdD0iMCIgZml0LW1hcmdpbi1yaWdodD0iMCIgZml0LW1hcmdpbi10b3A9IjAiIGdyaWR0b2xlcmFuY2U9IjEwIiBndWlkZXRvbGVyYW5jZT0iMTAiIGlkPSJuYW1lZHZpZXc1ODYzNiIgaW5rc2NhcGU6Y3VycmVudC1sYXllcj0ic3ZnNTg2MzQiIGlua3NjYXBlOmN4PSIzNS41MDU2OTUiIGlua3NjYXBlOmN5PSIzNS45NDg0MjgiIGlua3NjYXBlOnBhZ2VvcGFjaXR5PSIwIiBpbmtzY2FwZTpwYWdlc2hhZG93PSIyIiBpbmtzY2FwZTp3aW5kb3ctaGVpZ2h0PSIxMDE3IiBpbmtzY2FwZTp3aW5kb3ctbWF4aW1pemVkPSIxIiBpbmtzY2FwZTp3aW5kb3ctd2lkdGg9IjE5MjAiIGlua3NjYXBlOndpbmRvdy14PSItOCIgaW5rc2NhcGU6d2luZG93LXk9Ii04IiBpbmtzY2FwZTp6b29tPSIxMi4wNjAxMjYiIG9iamVjdHRvbGVyYW5jZT0iMTAiIHBhZ2Vjb2xvcj0iI2ZmZmZmZiIgc2hvd2dyaWQ9ImZhbHNlIj4mI3hhOwk8L3NvZGlwb2RpOm5hbWVkdmlldz4mI3hhOzxnIGlkPSJnNTg2MzIiIHRyYW5zZm9ybT0idHJhbnNsYXRlKDAsMC4wMDQ0NDg2MykiPiYjeGE7CTx0aXRsZSBpZD0idGl0bGU1ODU4MiI+UGFnZS0xPC90aXRsZT4mI3hhOwk8ZyBpZD0iZ3JvdXA1NDcwLTEiPiYjeGE7CQk8dGl0bGUgaWQ9InRpdGxlNTg1ODQiPkFwcHM8L3RpdGxlPiYjeGE7CQk8ZyBpZD0ic2hhcGU1NDcxLTIiIHRyYW5zZm9ybT0idHJhbnNsYXRlKDAsLTM3LjM3NDUpIj4mI3hhOwkJCTx0aXRsZSBpZD0idGl0bGU1ODU4NiI+U2hlZXQuNTQ3MTwvdGl0bGU+JiN4YTsJCQk8cGF0aCBpZD0icGF0aDU4NTg4IiBpbmtzY2FwZTpjb25uZWN0b3ItY3VydmF0dXJlPSIwIiBzdHlsZT0iZmlsbDojNTk1OTU5OyIgZD0iTTAsMzcuMzd2MTYuNTVoMTUuOTJWMzcuMzdIMHoiLz4mI3hhOwkJPC9nPiYjeGE7CQk8ZyBpZD0ic2hhcGU1NDcyLTQiIHRyYW5zZm9ybT0idHJhbnNsYXRlKDE4LjM2NSwtMzcuMzc0NSkiPiYjeGE7CQkJPHRpdGxlIGlkPSJ0aXRsZTU4NTkxIj5TaGVldC41NDcyPC90aXRsZT4mI3hhOwkJCTxwYXRoIGlkPSJwYXRoNTg1OTMiIGlua3NjYXBlOmNvbm5lY3Rvci1jdXJ2YXR1cmU9IjAiIHN0eWxlPSJmaWxsOiM1OTU5NTk7IiBkPSJNMCwzNy4zN3YxNi41NWgxNS45MlYzNy4zN0gweiIvPiYjeGE7CQk8L2c+JiN4YTsJCTxnIGlkPSJzaGFwZTU0NzMtNiIgdHJhbnNmb3JtPSJ0cmFuc2xhdGUoMzcuMzQyMiwtMzcuMzc0NSkiPiYjeGE7CQkJPHRpdGxlIGlkPSJ0aXRsZTU4NTk2Ij5TaGVldC41NDczPC90aXRsZT4mI3hhOwkJCTxwYXRoIGlkPSJwYXRoNTg1OTgiIGlua3NjYXBlOmNvbm5lY3Rvci1jdXJ2YXR1cmU9IjAiIHN0eWxlPSJmaWxsOiM1OTU5NTk7IiBkPSJNMCwzNy4zN3YxNi41NWgxNS45MlYzNy4zN0gweiIvPiYjeGE7CQk8L2c+JiN4YTsJCTxnIGlkPSJzaGFwZTU0NzQtOCIgdHJhbnNmb3JtPSJ0cmFuc2xhdGUoMCwtMTguMzgwOSkiPiYjeGE7CQkJPHRpdGxlIGlkPSJ0aXRsZTU4NjAxIj5TaGVldC41NDc0PC90aXRsZT4mI3hhOwkJCTxwYXRoIGlkPSJwYXRoNTg2MDMiIGlua3NjYXBlOmNvbm5lY3Rvci1jdXJ2YXR1cmU9IjAiIHN0eWxlPSJmaWxsOiM1OTU5NTk7IiBkPSJNMCwzNy4zN3YxNi41NWgxNS45MlYzNy4zN0gweiIvPiYjeGE7CQk8L2c+JiN4YTsJCTxnIGlkPSJzaGFwZTU0NzUtMTAiIHRyYW5zZm9ybT0idHJhbnNsYXRlKDE4LjM2NSwtMTguMzgwOSkiPiYjeGE7CQkJPHRpdGxlIGlkPSJ0aXRsZTU4NjA2Ij5TaGVldC41NDc1PC90aXRsZT4mI3hhOwkJCTxwYXRoIGlkPSJwYXRoNTg2MDgiIGlua3NjYXBlOmNvbm5lY3Rvci1jdXJ2YXR1cmU9IjAiIHN0eWxlPSJmaWxsOiM1OTU5NTk7IiBkPSJNMCwzNy4zN3YxNi41NWgxNS45MlYzNy4zN0gweiIvPiYjeGE7CQk8L2c+JiN4YTsJCTxnIGlkPSJzaGFwZTU0NzYtMTIiIHRyYW5zZm9ybT0idHJhbnNsYXRlKDM3LjM0MjIsLTE4LjM4MDkpIj4mI3hhOwkJCTx0aXRsZSBpZD0idGl0bGU1ODYxMSI+U2hlZXQuNTQ3NjwvdGl0bGU+JiN4YTsJCQk8cGF0aCBpZD0icGF0aDU4NjEzIiBpbmtzY2FwZTpjb25uZWN0b3ItY3VydmF0dXJlPSIwIiBzdHlsZT0iZmlsbDojNTk1OTU5OyIgZD0iTTAsMzcuMzd2MTYuNTVoMTUuOTJWMzcuMzdIMHoiLz4mI3hhOwkJPC9nPiYjeGE7CQk8ZyBpZD0ic2hhcGU1NDc3LTE0Ij4mI3hhOwkJCTx0aXRsZSBpZD0idGl0bGU1ODYxNiI+U2hlZXQuNTQ3NzwvdGl0bGU+JiN4YTsJCQk8cGF0aCBpZD0icGF0aDU4NjE4IiBpbmtzY2FwZTpjb25uZWN0b3ItY3VydmF0dXJlPSIwIiBzdHlsZT0iZmlsbDojNTk1OTU5OyIgZD0iTTAsMzcuOTl2MTUuOTNoMTUuOTJWMzcuOTlIMHoiLz4mI3hhOwkJPC9nPiYjeGE7CQk8ZyBpZD0ic2hhcGU1NDc4LTE2IiB0cmFuc2Zvcm09InRyYW5zbGF0ZSgxOC4zNjUpIj4mI3hhOwkJCTx0aXRsZSBpZD0idGl0bGU1ODYyMSI+U2hlZXQuNTQ3ODwvdGl0bGU+JiN4YTsJCQk8cGF0aCBpZD0icGF0aDU4NjIzIiBpbmtzY2FwZTpjb25uZWN0b3ItY3VydmF0dXJlPSIwIiBzdHlsZT0iZmlsbDojNTk1OTU5OyIgZD0iTTAsMzcuOTl2MTUuOTNoMTUuOTJWMzcuOTlIMHoiLz4mI3hhOwkJPC9nPiYjeGE7CQk8ZyBpZD0ic2hhcGU1NDc5LTE4IiB0cmFuc2Zvcm09InRyYW5zbGF0ZSgzNy4zNDIyKSI+JiN4YTsJCQk8dGl0bGUgaWQ9InRpdGxlNTg2MjYiPlNoZWV0LjU0Nzk8L3RpdGxlPiYjeGE7CQkJPHBhdGggaWQ9InBhdGg1ODYyOCIgaW5rc2NhcGU6Y29ubmVjdG9yLWN1cnZhdHVyZT0iMCIgc3R5bGU9ImZpbGw6IzU5NTk1OTsiIGQ9Ik0wLDM3Ljk5djE1LjkzaDE1LjkyVjM3Ljk5SDB6Ii8+JiN4YTsJCTwvZz4mI3hhOwk8L2c+JiN4YTs8L2c+JiN4YTs8L3N2Zz4=;" parent="1" vertex="1">
          <mxGeometry x="1223.5" y="40" width="53" height="54" as="geometry" />
        </mxCell>
        <mxCell id="_L3SbqxIfx6lYunLBiMm-30" value="Dashboard" style="sketch=0;pointerEvents=1;shadow=0;dashed=0;html=1;strokeColor=none;labelPosition=center;verticalLabelPosition=bottom;verticalAlign=top;align=center;fillColor=#505050;shape=mxgraph.mscae.intune.dashboard" parent="1" vertex="1">
          <mxGeometry x="1213.96" y="154" width="80" height="70" as="geometry" />
        </mxCell>
        <mxCell id="_L3SbqxIfx6lYunLBiMm-31" value="Procesar" style="verticalLabelPosition=bottom;html=1;verticalAlign=top;align=center;strokeColor=none;fillColor=#00BEF2;shape=mxgraph.azure.cloud_service_package_file;" parent="1" vertex="1">
          <mxGeometry x="980" y="307" width="42.5" height="50" as="geometry" />
        </mxCell>
        <mxCell id="_L3SbqxIfx6lYunLBiMm-32" value="Recibir" style="shape=image;verticalLabelPosition=bottom;labelBackgroundColor=default;verticalAlign=top;aspect=fixed;imageAspect=0;image=data:image/png,iVBORw0KGgoAAAANSUhEUgAAAOEAAADhCAMAAAAJbSJIAAAAflBMVEX///8AAADy8vL4+Pj19fX6+vrx8fGUlJRYWFiurq6/v79UVFSjo6OmpqZfX1+NjY22trabm5sSEhLR0dHExMTl5eXKysro6OiKiopLS0sZGRnd3d1vb291dXVDQ0PV1dWAgIBnZ2cuLi4nJycfHx96eno3NzcUFBRFRUUzMzMqKcoXAAASRklEQVR4nOWd62LqKBCA1QRvtVarMbZaL9V6et7/BdckkACZW5T0cpY/u6ehE74wwDAM004HLkoX5HHTet8lLtibArWoqThBPfRRVBROgq7GvklWL7C4DvERorAt+i5xeD9HcVE4Eboa19PfJC77Bghh/K2AcTBxBSLwrCEg16JvFAdrsop7eWFF9HQ9rkWtiOvJvhcFyImIArcouDh0AH1bi4KLuw/wx/dggQg864UFFIprCNi/Q1xgwJZ6kFmd/teAgcdgOyoqFdcDHkkB+2EBheICKESzHuz/71X0ewGh18bxbwC8fQxm9vrPB+xLexB4lm1IfjzgPSqqNOE/DFgQ/hPLBKSiqiDkNnBSwJ+3TBjCf2IdhHrQEP6rplr+OCP82ZPMfYA54T+hoqi4K+HP7sE7lgldg3Ux/2oV7ZDHM3n5HcsEAciVX6KijDii/HoV5crvNdWE5XeoKCeOKL9jHfwCFf3ZY5AQ8ztUlAXEm/U7ANlTO5xQCtgwjISrJqwn7sEIFQUBzrbDWnnQpf7kpnoPaL3t+AbA/JwbeQRMMtvu95ZDDZA/8kcJoR5cfjNgt7v3ANkejFFCcAwOvhuwO2kGWMQqgITwOvhTCMWAPZQQmUV/CCG/4TWAmlAM+EMIGwD2kHATdB3UhIflOC8zXcZImRXVnxeroiysstFNXlrVCXHLj5JQrKL9grAJoCGc6XpcBJPShB0osEUTWrVJcRNDKB+DOUMzQEM4skRQuhJpQgWJ8wkZU60kNK0TqChSjTLVbEKBLWoT1sR5hJwtaghN82g+qnWkLWoRSka7RVgX5xKy30sTziP5GIS/F21sV4Si3URFCIhzCPndhEtIvZUWx+zoS0LZdqkkhMTZhILtkkNIvpU8MOa2S4ZQiQA7fTOXQsUilHwvm5B+q6AHcXtdEz5GIkCVyghFCqGN/nF8D6CiVbTjE7I7ehmhcEc/zGoP43scBGVkMP7bDiHvshARSl0W/cHpNOiLTDUUMOYAHUKBT0ZCGAkBrzWUiu5ZJpSONiGVwCKUOJ0khLEUUDBWk00S4YA62oTW8opQ5FWTE4YAVJmLZa1QwIKQGcYlocxtKCYM4hfdmq8PBk5pQm6eetKETDVz+CIlDOJmHRXy3hX4vUw8DddyTTgStiiWEYp6MFaqv1k9DtaH9WC02tS6U3/N7qsCxWlC+k2dOBIRVp88EhEKAGMVjw+f525Vzi+DhVNtpx9MESkZIXd36doWCaGlUyJCXkWjaPHWhco6Kautzc8SRIzi7xlm6iQgtAeNhJAFjHuzF5Av7zHdkaUjF2saH22S2woCQmdW0IR/KEIOUC1xvqwMN9dqPfOvLSqIPQYpJnWW0J32NGH3OK2V4VRCqKI+rJ92WXc6D/p/z0TEEAOoLQWO0JvXI7RVVSEB1fJZIOJyMP+3x0UxgCYCnCH0F647CZWaO1Wfhx/z8WqxHK2PF1DWnMFgAXuur40FvJNQRQer3ut6Ya2BKnl8qIl6uBtQ0YR10+MuQhVbR3m7Zb1CenAlPfdvBbSsXooQipM5soBvKKCq5pjLCq7T/7BFAR9BVmwfA0EIGo/prkuXFzwe9KmsRAyvxd+y1jEEIEGIWcfLiVvmuhT/QvomA5yVTccnyGw8vorqEcX1EqGE0jNnaZ6G2BzcdC9U3VhZYxFfDKm1wnODYYTBA4FiY8i8UFXjqOrpLmnQiFuEEAaPk4kedaN3lMg4TtxRjSg9Hm1S/+QwYfhAoL5pM7UAXPc6nsl6AsXh0SbA4QtIGD6cshxdC6Je3Kum23f9X8D5oPBoE6hFEGELiQKM8h1IcdHKAA7ML5xqwhUebQK2CCBsIVZNDdjJMRPXN3v+l2oDPPPF4dEm8PlgnbCNcMr+X2TKdsQps//qptfW6j2IZ5oqIp4GblGNsI1ow3iJqZwDOOna/WaiRBwnhorRaBPsk/uErYRTmi0Fbqxljt29ASwsW+Nqm3jikGgTVKc8wnbiRWNtiKErRe6bNxavWSGm5Zh0xDXN/eEStgSoDbZP8/PIk58dvqhyV7HRPx3rf3viYB8pOMnUCVuK+DWWmInR23q7p9wlZniqFVDH7pRLKJXchJj2bMLWYrafnM4ptG/giIsT476x/L/vYv2i5nWLsL2oe+2eKH7B7DFeYktcXHowLKl6fjrcBWgRtnjz5ZS/41I8WBiWwqwuLtSXAYS2VaeN9QcHEHgt3aKSsM2bL8U79Jbd2j0MTA+urJ9URQ/Nv3cBVoRtjcGK8KCfWa6YlzQ/4e2bbf2LI0T39ok+T+V0yos2aeXmS+QSVmcu1zLONh5H86/UkaJH7PkuQI+wnas9PmFnVbliuuueMpvj7tgVUxLeA+gStnXzpXjHR1Wjbzl/H8pTpg9PTqmlOEUUc4AOYWt3l4p3OCedlWexLO9+M7WhcFEEYMzqlEXY3uWsYul+d6qtaic0G0+QCXwbKgIwZgdNRdjiNXNtQzsNUYnnkqn7K/Ske1AIhSx7S0nY5j16feBkr+bZPs+eU7vDuqxXawSBgKLsLYZQeBp32wVJvXRb28NCucYV4HP9C5tj4AVMIczeIo2nue8GqI5RqQaijlWL+qWmAo5RHU7TRQLSZNlblCza5O5Lyvr40zgkLHFah54AaXpFmSr4u4qytyhZtMn9uSw0xxoQl5uk0CmTsV8nSMiFJHuLkkWbBLikvLEHmxdOqWYj0HdvfMhIOI0ke0vWIglhiFvYerwNOmKFMF2IHiLy8TRFUCNPGOSSsjlRSqXiOkd8CtIv5MJNtJ+PJQxzzVydTY8IAY2xusPfyEjQO3qWMFSiADP1T5QI0DhLbz/KL69X0NEmATMhmCOJVSRQiNJt80JX5FsUM/E0ATMhGEfFeROzqRKroI2aNS4s1spMEgbNZfFWInKtqwAHTFWuRdnqRBGGTdYRvQs7pmem0Zt11LGtCMLA+WRU5Ub0zwSdsql2VSlVT9oinPBuU80XZwXUbHGhpdOGCbvhW6Q/OUoYOJ9MfvgyqVqPbNf2VsgVtVAQq72vUxhhaMBCmBV7eZ7XdFAth9Vz3/Hm1iT+0ow/aBDCwAlzymBPJx5oOrLmnP7q8G4/RK217LV4tEl9VoAJW+nB/ObLouuU193b4HE0PwxP3s+xHUUBiBIChy8gYSNAcySb+YXoCIK8Xm/Y5cuWvG2NR5tA8zpEKFfRK1K8WSwnh+3083I6n8/vl4fjx2C8sc+zfXEjmu7agdQQpLK3gAsXQCjd36hOOp5PL2Bk+uvnYdx3xFmmWv8A/UpZBuSLIzzaBF6Z64RCFY1nhxPZ0G73kk2X4H1LgnFAWw4Rnr0FMT1qhJIejPaDT4ZOl89JosDbetEIGI/PwxnzXSM8ewtmW/mEPKDypnWuHJcqAsWl44N1QPM8PIwTblebn64gfywIAfQJWcDVxysMQpQdbodGvc0yy+6ySNNYyTI7wz5S3Dp2CYnUBVnZrGkUtJxJW1v6BwAKJ11DQDh7CwjYf0TC9C/Tj/l4sd8k17LZL8aD7Ut9fv2LM8pt9wKiGSCYvQUCXIB53d4/JpsUeGN/M69NJDtklZMCEpfgyQ2cRUgtE8CB5p/DmLTWerOj9xsv0Na3YQ82BhRmb9n7eC9z7i5EfFWn/sg7IzzWzE0xIJF3gASsZ28Bx6CbEey6J5DdbuxF0d5b29f+sVTLPVjP3gLPota+7uExFZz5WC1KXQ1/tk4R++NZIko5onsQymDCOlFk2VuMlp7micrDH5ynyXiynu5Or8/PZ730uTqlvFFsppx8szgTZOS4dZIBCNE36WV+qzun/Hl/tfZuDWYnaDWd6rsL6S7f3mq/9ia+K7kJB+gS4qaaGU1PWRdqcelqMAQ2FgnYotRdbYZ7K9eXEBBS0YbZWwhjuwy3e5ll02GyHG0x43SGDOmNO69OE5NFieaj0iQ1zd5Cbsv4C9imrGJMp1Z/nYp68zUB3maVGA8KbZq9hd7wpl1hueAL13V7f67/Ak1I9WDD7C3cjn5WbxtUdpuYWHU6UT3XJhkGQuViC5y9pefdM/e4nmarTdrfLDYRCdjxb/pey5Hw3RMq2kL2FoX3YnnNQKFj0Crp0fv1lxFyEYPMxdZC9pZo439+U0wvSH1Y9Y3KdAY4SOndajvZW3qjNz1X7NbV7DouxYkAVS+O9vXN2Ofcu5vI/AGAFrK3lJZMvkJXOmsmQ8L8r4mLVQL5C4bzZfnbXLrAjJAHbJK9xbFFN5WtZgK2Gh83Ro9gLoy/26fZJtW53Ii1IHj2Fhswsdb/9W2AuS3qHjY55bR7OI7IxU66gZNmb7EAl1OrJeaknfFhgYBZSalk1EfqewnjRaXZWwxgb+nuaI1/qckYtAGzsvpAnee0i04CyGVvsf5qQy/Zjw7eTum098TdeCKuVh9wepo1LKcBYEQQroa7l4fpcfv2dpwOX3aARfkWueIaq6j9LJlM62+4NdrEdo6ghKwdeipPae9RUacsJtM/zjtuDRiyvT8oIcN3ntTEhQnaSJaTLZOLji1OizDCBGXLyvtjDIvDi9RtqOJy6JBn+URxW+Rmna8KtR88+ldcAwJeTbUyzwseeUmuFZ6DUhPu/Oxr9axURbkc3DAX4+cLFld0rWLMAKILm2dv4cvr53E93vvbnOCBU9W96GpPVi+C7C1lizjC+Xg2G6/2SQpu4UKr6LVKnJr1Hz83ILK31H3oHCEZHhhgHayJK/O84HmwmmVvoXwTefEvBdriQq2DlriovI2I3kIQZG+xW0SvCvm3xHI9tDAGr/pgfMyYOUNlb4FbNCbx8jL/ijFYKER5JfhMAHLZW/wWqaXz519mZbE89rv5MvfFqP24vLsUVkX1uUkZn4lkWxJkb+FmhTxqrHDxIJbpMbbEhVXRKosSMvozX15OiAM2ahEyC51XLQHGqdnAnOCtvSR7S7MWYTF2ayMvqIr2FHUbsRQHx9PcGhCbIMFduw1zGtcIUA/p6hICdBuxFEcC3hAQO4I9DM9ZLoTAPVgaH7CVIUmNcdO1AjWDA4WeOFdQU8BqSICL012ZIzwRtSfJBNppHGl5UIuS4+m09saYUdFqXQYXilYB85IuVsvlIrEv0b+TsdhAi8xi9zaresn0YAUIp8NtS0UBcbY3Eb8RAQCmtvd3ONnYrbMAwVlG0oPBFi4nwSjrZq3E1Vaev+tFeQ+jAgR3FO2raCXuOmiixJp6yHndem0Ku++3szSOYmuSATIrfC1gocg9S1MfiCie6rVEeP5wvqlspwcqQJ3K3hJqDJZvslp8qk19tRYlmNPHL7vmgNyhuitCBpjb7hsrFtrT1FqLnINCKlk26JghHeWS7C3NxmD1vZTlg/9ru6b9Fjl/cHja6/RmWyRSvPEYNPE0gS9ngT6sKqbSa9HCUVATTb5aA10J5nKnAUXZW25RUV3s3vnj/93i/LVuMNuDFVYS7+decC14zEQCasKwgN7NF3vnkYfjOy1K3Ugx9+LRdRebjo7wUxGgNHvLPYAdL/z7+bFv4mmujzYun+PPqpLDaX19bWyLdqTZW/Srbg7wXLmzxtsqypx91w2Ju0C8LyFxxeqUTD7m4Bdm7Cxh9pa7ejB/dnRQupfBflGbLQdOQ5g4mVrrEAph9hYRIH34suSusHkOVzNn3Qkozd7Cf0redlfkXaFPb4gF2woIs7fcp6KmJEeM7+JflGH/MKrXOpwiMCDnZt2Dpud77SJQKBXly22mGi4uVvu3Px7ftO4TDOwoF4gImGgvVqn954wuAzyc8gsB77joAImLOv3Zx/N16T9OQBcOFfF7Q+skIph6t+kU2q5wkwxXQs6iDVpEXAy5RZxAxO2m2k0tCgxIPP6mHgysooLsLe2MQVZcMEDc1PneHgwVGdYkewtc2gEMFZVCZW/5N1SUz97yu5cJIp7mm1Q0cOCUIHtLYFNNEE4ZsgcF2Vu+eAwGXgcF2Vu+egyG7kE2e8tvV9Eel70l0I6+6ToYErAHBgz9G+ugVoi7AAOraC+8isKt+yYVDex0oi51f1MPtjDJ/CzAdlSUSm7yxTv6ViYZEpCW0JKKBl514NQYjQBDt+grAAW5PzrNI8MCAQqjfRhAQWoMMWD84wDztBF8YoWGLQoE2DReC6KIiswYLKD+DvzWWva9dDX2ezV7LSQuz6rAvqkxoGALLvkLPkEAc8TQgIw4JQRs+FoMkD/p7uQfIWKP/Du6Gve9vlRceZE+YIt+2PeSACol+xDNqn2ZuFBv+pmA/wHhMfV3+FPiOQAAAABJRU5ErkJggg==;" parent="1" vertex="1">
          <mxGeometry x="1090" y="300" width="65" height="65" as="geometry" />
        </mxCell>
        <mxCell id="_L3SbqxIfx6lYunLBiMm-33" value="Bodega" style="shape=image;verticalLabelPosition=bottom;labelBackgroundColor=default;verticalAlign=top;aspect=fixed;imageAspect=0;image=data:image/png,iVBORw0KGgoAAAANSUhEUgAAAOEAAADhCAMAAAAJbSJIAAABJlBMVEUAAAD+/v9I0K3u7u5lbnj////+zlTt7e34+Pn09PT7+/vx8fJJ0q8eVkhN3bh8fHvOzs7/3VopeWUwJQ9xdHVNVFtaRxzBnECGeTH111cOEQ9XX2b/2FhhaXP/3lotgWylljzb29zCr0e1nkCXgjXpzVPbs0kTFRcrKysmKi7/1FY5Qku7vL2nqKlpbG9HSk0gISFcXV6VlpdOT1GhoqMsMDDFxcZM47wqUUkwQ0KHiIk2ODkABRQQGyZESU4qYlRDqpBQiX9gYmJKxaYTAAsycmI7IDRarpwbKSY7kHoaOjIiABRHZWNbx65Gu54qSUIfFxtSd3QlHAySdTBiVCJ1ZSn/6V5UQxs5LhMYEggxQUILEBVoqJ8kMS4JHhksJC0QMCipiDf7d0VBAAARzklEQVR4nO1dDXvTRhKW4m61WrmKDYZeQ2qqKy0Q7Hw4xg42BENIA7QlhdK00ON6/f9/4mZ3pZWsHcmSLdlymnke0nolr/bVzM6+M/thw/SF2DVfHBIUBSUWDYpMKyhiQQlVRaSKVdWMK4RXCK8QrrqqK4RXCNcBIQnEtnxxVFEtKKJBiRmUWCwooqqomlUZdiBUSaYiO6WoUlUZms4JUzo3g6JA51ZN2YoTFNmqyKpiVWYEYVAUqcuM1VWL1BWUYM2qUFVXCK8Q5m+WfckRgh9nQWWXESEhXm+355n2ihAifjmtrpwuXuAbGVxGnmjJAlXlaJVpOIFQ5gtVRSylyA5KbFWUVhXwD6+1ZUjZannUnruqnK1aFmsj1uZdI5StzRpZFmtTOi+RLhPitIy49C1T2tT6xxagiP5YA2gY9/o24xjXHSHg6z5G8HF53LW5za03QkK7+wn4uOyDHmvri9CCMKBzkIKPy2GHu4r1ROgws4P1P60/dpiPcc0Q2mxwiMD57B6ixwEj5SEsaTwEfHs6FO5aUMez55U3HgZQayEDVEXhG1FvMigxQwaoisKqgMDs6jDArRBKGQweiPO5NSA2VtXCrdJ5aU6Oq5FJ/rqtTaS/9T1CbcYTKMTrI9c3LRKrqohWFR9bQN2eTmCMu0DTTBsAMkDIGKlNkThfWp6PscrRE+iv9afW9C3edpsy20+IMTtKxEP5s2cLjJVFaNWI3UPsD8IloP1cgYzn+wApiBkEU9MiMFYVIYQLPWQsOGiAa7OFeQr1mcJW4aNJGs/12+/1oD9WEiHA6D/UG/xgABeozX0Mc6QzZw6Hy50OIYMH+lce9hkrqlXFIQQYA8TmpP4o1xmoD0jqsXHcpUQi5N2SkAbC6570LVYYQksbP5kqMrXxs6bGXScoEr6BsA5CYI4blAjvAv8YVfccAk3ztcj1SBuI6scDSmuLtcoXgy4q4DQI6RwjxtYlJvcpTBpklKSOOyaMHUwaL4DoIhj3OoQt3DiQxVkbgMDw7fUZ8R2LCSCczjSIh53AscIfUG8f4XjHg0pkMWBgQ+zT6Dp8gODmCaoCp6kDOPSgUuFYTd4fnS5Sy66nOtuKYguShI8nfgGfGBjAYd5C7hFUlAgtyv5IMFd84DG6QoScYOvEZGtkEe46JYUxURKudATPDXwRjPObSG27HuMzAatACOMyQkANwGdyB8INFAKJBnZPKC2LuyP+MoTHsjCa02qAj1wBQiAwemP2W8DGRMcSggcZ0zriIQV4JEe8FvCwLSS0AtpnLxchjECsdx952x4RnFMwT6hylJaFUm9lZHNaDh7JEbQAC03u98wgtFoAoZUVIQ8AMWvabRDBryn3HQQn1k//8xQpHcnQEcIr8E1g2VjP7fnhYzYPjyA0Qx2qIsWBpiJtx7RHmNdrMNFM4UApqfUQ/X1647rum0/6hf1+jQhmIJYYEBOjcg+74JZZUquk6PF/bQ7WhmbQDgbgMUQTudMgZhex4aPJ0N3YqLvDyZF+8X7XJJKOc55gkgGGsQPWl5u1hTpXbySZ4/IAsIMxLKE/GUKI0Rt5B0cTt74hpe5iGMfAEij1zQBoDsISAGNoYaXEFibBCPbjDuXjOxU+n7NMpGn/nbjuRiiuO0FsdQ+YAu+M8lUR2kGycjyDXBZCi9odJMDlzRKkhHtQTmAQ/f01GdY3pqU+nPyF6HEgB1OBkeAva9wgMtVRNEKbeUjX8E1LshJG0Hu2np24G7q4J890CsNpGvG1SIXBI51iV2SsCkVoQ89FXfiICYImkzB4VsK4XXfjCgy6Y/02cv/zhu+0mAw7EgYmkm1ZRzaEJmXeDf0x+zBEUdMOkqAMc/F3T5Pw+RhPkaxiMPBIFgDkCRl4bljh1P7CCMEvowTUI9I6oQM6JjbNCwP8SQo+2R1PEArwuOUQvzNyVaLkYX9ElRYXymKYCeQE6icOYzITwdB7XpzWh6nwpAzrpy8S3h/QHEck5ghF2+CZzuzxcMaKCJpgIx6RwZEYvUB/yD2ns/QX2urJKaKjls2TBCJNwp10Uj+ZtXRD56XROMVCAwhBQKURyQwads+1E22ASLXVa0gdPSbGIZnPMRPoqshiBP2K6WNlamzB7BFCvnjYKvsfeBl4DV3dV7w4P8uov1CPZ+e6rd7tWkTQccEDiIkF02OxGCBAqHxjBoRJ4+1AvFfJz2CAxwjaD5Oc+LgAzfkBa79IiPgZO4byCeAcLD9C8J8dvS7OmZiKHxLSR6/PhtgAnwHj8Ow1Up/gFEykc0TiEuWNNqvhC1eSEIJB4LyXSPpJhf6wFODLV2kDYLrAN1+91KscD0yJUbptlPuPOzyGyowQT7WPu34al5soKBmbxn75yp1Pfwqji2Hc47GZYE7c75hJ8ZudDSEM/Xj8STkplqk/ZtIGkgV+vYD+onpEbPW4QU0ZO4r8j43RVU6FUhFa/liBE1AgOLbDVIYQWyYzWRyfj3GCUIADD96wyKILjo/nUYKJ8uhoEZ1/4D0Z6388D8RkYAr/gOQgU2I/vprTv2DiDl/9iLTf4zTYluYKFpWQCzMjcEBirM1uId/iGd7gLfBlFtgU/E9ZCUw2AZrzk/4QkXmkgsmJXJA1QjLILYc5CVmMhHzspieJBfcxJk6Cjac/5yAwGTEOf07IyhHBpsQYmZiTtvXYAvpfDXsjPNik/hwRY+jyAuOoWP0pjO4Jks3Zaok5Azll5yTNK3gkhhDYOcW80yFfYkAla+Lztcg7MM7nITDZxB1OzvUHjkfw0vmgJUJTljg3RCIIncS5LTOYgOAZUGyZz9M3hdtnVOrDN5it9mvC50hTBYxYagGoEJEILQiXMHLyAAgo9SmaWKqFjLLnb0rTn8LovsH02Lf99TlicQ7DFjzs9cUeMMOi6Oh53PH1J2IXsGEksfdFefY5jXHyhf7wxx0SpGgpp1jYPLTIPBoUG9zEWgLBAkVylmIE7dOzpeCTGJ8hNGc84Is6fJ9DE9ZKeMSwdAU+6TOe7PKnLgm6zvfHRQjaSX6IdYwCHIChmVTmkCkwScRRjB1Di88f9nlkTQPmwDCW+/K0QAKTTdzhKRZ2gLExRy63ApfD+lrKumXEOIxYcwXORc7B49P0W9c2lmagodTdjWvIYHVoCQpAZQJZX3cWN9GeTYIZJJ6hwCYrX9xeBT4uEJjdRii5pKK2nChn+NpBX/5sOURm1Llp4+t8XxauvzydkusRsdVdP3MrepZNHGT9Z/guREJETLHUsCn4a+UQtDwY0azcpiMGb9OfXcBszzBg7JDLIsUUoIfo+sVRvgA+t8vMJkDJEVvtW4QGHID7fxRh2GFtbJ3ox/IJTDYBmvNRb9494UN8upqAkNkBPiSD/dO8GbQyxB2eIVRuX/pJ0ccSdAihZYL+cgYQJdlnRFwXCzu4HiXDSUDIp3A7CEH7ZbJYBi2HZH83gPEXvaliojzRSoEBDZ7oF15PKmSfUYHwEaGrT4CuJumQYtz106ReTXxc3Dq24IHHDRjCBpYB/d+CGd7SxXUxSr7XwBadIwT7/lt3NQNEHk/l1t8i+cEs2wJBis+glSH14c/Z4CBSOL6TyN/ipF5fOcKSh8cKICxbLj3CvDo8DLMd64ewi2WHp2W3QRooQheXYUJ5tss5btIkClG12Ju1cn5vAPEHhrDuvv2iWvI2HKnrUYTEjG8hj2QK73cZsywbQVg/wZYQrFZen9QxhHwNySBCAZ4bCs/YX8+AIkQilZXLedg8VdaQi90jKdCBYcp0BV+vIQ9TQRDWz5bY8OxyVtcQesFaIMdfX9zje9e80fPNbrhaE+mH7qultz6L3HYxK/VXKph2d/P5yCN87xqBcIqEazEwhFh6a/WSitCyqUmZjZ0agVhpxRFOWam+/zCYx1f7M5DxcH0QNoLNJWmnRqwPwmu6lTb8Bc6pp0akIrw72ly1jNRaF1SHvr+cG+E9snq5VzJCKs9D4NvPg2U2y/1YOkLbz4zLmR42z0d7ge9iCJF+uAhCOd9K/I10wUx46kfTTrA3vnNU3kf9BesZPoYIr5VkpXIuUm6IDF6ygIF/FIteB5sPNDneHMj18NSfU2dKuQkfJcjcVqrvt5ipQ7UNIXy1bPpNBx+FTRKWdKLZARMTfmJXLaPB3KzcB+fvRIx+lK9jlpVq+y3ihyzY5gyE8r3KnU40WDIsp8bVrjN5Ao2/dwnduCRlFCwWkdXZ/lYgsRTYf4Dfbf3K+bRSGkJPbbJWkpO13ePr3Pi2DconB/hSVgb0z5RHI1FT/odfBeZLxAdKvESAnGXJquS35XdlLUyWqkrD+lKtNECTdmpEKsKHc4xf2BRCIJ056lOrKxBPE2HeyCroSxZb/JMRrnX01Lj0CC+ZDpHoKR2hH1mtXz9EdJh6asSlQJh+asQ6I2xQnbXlY96VklKip3f/1uRXdfuN4kTV+av+wHfBtVKip+vtnc+npf2luv2z4kTV+WUz9ryd9vW4DotFGH/g59slI9yOP7CpISzUSnWEzUuPcGfZCLeXbaUr1GFGT5NvPKxAP9R1WE8fD7VTI1jFEab2Q4/MPjUiPYtRAYTp/TDLqRE5ES69H6aOh4tHT5XypbmjpyyxRQWsVO+HhWaiLgXCqvfDpSOsAKfJm8VYH4QpGeGUUyPs9HmLyvdDMw4nfmrETNamxYdl98MM8eEM1paTeV+0m9Ny8Xe5CC9iz2vvqBi/lOjJuK7JB3XtrpL9G3OgurEfVqDqfKc9TwEsJ3rKLOPcADPukIhIKXma7JJXi8h5c7OkHCvNLPdzIkT2vVQc4datXABvIRvRsyJckZVWB2FZWf0lIMRW7iHjofq/gteXrkaH2PrSfNFT9REuGlu8+wbkvfp055u4/LYwwt+0Ou+oQf49fPpb4zTFRk/t7Z2LO+rTd9s703Lx7cIIv23H6mx+pZjonfZOM5WXFhMfNiMItUijAIRaNPFdiLA5KyNcSBZjxQhTs4nF5Gkqo8PLb6UZEeYbDyuAcIaV6uOhivaD8H/mzExldIhGT3E4NOd+iwogTJ97Wni/RQUQLmEOuHIIC58DrpyVXjaEuqe5bFb6T9JhboRrMlpkQhgdLbSfhqg6whnjofYjHXlZW3vlCNvp0dOiWYzr2+1mNAJuT0uzkAg4LhGEF812ydGT8fvNm+//CD58uBmX97+rO/fvBzJOyn/fGKt7wjPw/niv1fohei18QpV2IxyjAJGTt3JJlRCisxiLAqzWfot9BGGW37dMlWrte/paA/j1wnVWa9/TChGWldWPSZkIq3FqxJIQrvDUiDIQlnJqxId/aaJmMYxftWtqFiMV4W/a98I9HO/1B6rxv5zo6aK5PS0X4Xqatnbt+0wIv2/Hvte+UNe+vIhda16scL9FM76aaDsjQn1lV4hw9Wv1d1IQ7syJcKeZgjB9TVS5uxGWrcNy9j3lstJSdJg7i1HgfotVISz01IhKWWkpp0Ysx9Ms4EuzZDHmX+ddmA4zWmkp0dNy+uECVrouCOf2NCXvRqgCpyl3N8KqOM3ydpSsitMUempEJfthoadGrAvC+U+N4PMWsQdGEGroC0CoVZo+b4Gwtgjz5sTGtqM69MW9rRBufxWTyIkDO/FrX0UQcohTf26FCLXv7YQI2/FrUV8aNDBEyHfHmtTBsxiE9FqHBwcH4WHRTz8eHZ0/enR0pH7uZEubU7ipZjEM/Vp0FuMhn56I/AkXlP6uf1Fd+0O/pr74y9HRo0fnR0cfwx+BFO1v9RjyO6Q1K8K4118a6sedQ4QOWTjLXiHZZ7oOKfZLpOsrXf3Xckny2X/rKD1dhymnG66jjPQshp12+N/6SXhcYXhqBEF+cXVt5QFDTo1g1hzbxyoqLYthzJtSb9S6DDJqJJyLYdXkoiFTmbCpLFgJy1W0sqpS40PLCdwQqfm3RVhe8EVLkQZVl0UiL6syVSEIa5G6Qs6ar1kVquoK4eVCmGLxagY8UpeWL8jWeZZdFXJqRGSrgl6SrahSVSFZDKaKlIdWswA15aAdS8sXVLMqff7QVHTAUhYc6lzZihOUKJ9NrCpWhcyQVqFZVwivEF4hXH2zrhBeIYwi/D+QhLzABlpMWwAAAABJRU5ErkJggg==;" parent="1" vertex="1">
          <mxGeometry x="1220" y="302.5" width="65" height="65" as="geometry" />
        </mxCell>
        <mxCell id="_L3SbqxIfx6lYunLBiMm-34" value="Paquetes" style="shape=image;verticalLabelPosition=bottom;labelBackgroundColor=default;verticalAlign=top;aspect=fixed;imageAspect=0;image=data:image/png,iVBORw0KGgoAAAANSUhEUgAAAOEAAADhCAMAAAAJbSJIAAAAhFBMVEX///8AAAD6+vqDg4OZmZnp6enk5OSmpqbw8PD09PTe3t5ERET39/fl5eX7+/urq6uWlpazs7M/Pz9LS0tSUlKfn5+Li4u5ublWVlY2NjbAwMBgYGBpaWnQ0NDY2NhcXFxtbW0nJyd7e3sYGBgfHx8LCws4ODguLi58fHyHh4ccHBwUFBRZbbv7AAAMAUlEQVR4nO1d53rqOhA0hA6hd2LAJKGE93+/Q8daJGtWxcD5PP/OvZGlQW01u1oFQVrI5+LIp1ZvesgYvj8yhu+PjOH7I2P4/sgYvj8yhi+GRo1dxJZhrcouYoFRbsMuY8twk+uwy5girB+aWOaWsmRYPhTqhtxSRiguz22sMMvZMayciy2LzHIGaF/buGIWtGO4vRZsMwtyMY01krnYWDGsxYpOeUVZmPfjjezzClsxFCv2Nx1/hEbmRqzCNgynYsU/rMIWFW2anMIWDJsbsWKP43Qm1sSa9RYMC2K1M16jWaiJVbF2DHOGFVIr355i4EOsa8koas5wKVb6wWsyE2Izc7m5aVEGwzmp07PR3hJrq+MljRnWxSpb/EbzsBbrw61hU4YdscK1SaNZCMUKf+CmGjLMk004BeP7S6xxiJYzZDgUq/syazQLn2KVOdTaN2NYJLV9mjabA/KrovuvGUNiY8Ajxg7kZwVnhhFDMutz5o1mYSTWCq5uRgzJys2z9S3QE+vFdigThmT37dk0mgUydn4bSCEDho1fsaJ0ZJoTiKW4RcoYMNyK1SxtmswEtfZLQBk+wxKphat9WaEt1r0AivAZLsRKfGtQBN9i7cCpm82QKArf9o1mgS9ocBmmKF3IMRbrH2gLcBkOxArGLhrNAj2Xav0mTIZV8n3GWdsVVmILtBI4kyH38x7Q4P7IjTh0f0yHCGRUuEZZbANTAtegL35cP829gCx2Ls1iYtzzvZVuQHaMyJ0Ilo/ET6e+U1xhI4EngphMPkXuZPgyHE3MXk8gErgrmShVkTsZTfJju/EoUO8Iy8XlGoJcO3blMqkJp4r0QjCk6N4a8uNywZtGt+92HX7WBDdBo+D4wzfDO0XpQo6zBL5yf/6urJyuXuY4itI9P4b//KjppRBAo8PQo4o5SkvkTobPxfzlQxgzZMiQIUMGPvLhbvMRPkU3SwXhx1m7irZPt6Z9IPyIB8b8rf4vks2QyB0nbMOnHt7doRFu/yT8jtivwlSviXhBuNoo6J0RLZ+mhbpAuE1kd8XqPUk2pHNPTfLNtpBGuIoY/I74W77RnJwuf/SMJPj+eovhOl3pqSRgOX3pLaRqSe9KMtXAGRz56cpscD5iv3zBhWe6/NW3nIOXmpON6VLf4hP+DtMM7+qv0UusrlWY3vd17OVDBsknz8nm9Etlc1KspvEOOWyYYLn9bPS8OTn90jfwDKnxCZPMzUZP2ELwwRklHAXDbYT+RukO18roa481bL/VaBb58AMlmdqcbI4W6MawChG/g/x8LEXf/5xsjGb6dpzwzdIpwi26uo47HkkeBifYjMPcY68N4Tb5rHzHrOPFqVgdzcDBuTfVCxvzIdqTs47jOYkPztyHnYg2H+qrOGPccWbxVDoLfX0nuBFCwx06XPstBz1Z7KC9t/lwpw6GuwlY66JlNScbnbG+jhP2O2hjwNGcD8Et99CT5qtrX//5I/52fgRseOExDt7t6L+dy012PmPM58O1vgnGgWEV/TCJhnPvNvF8qJ+Te7MVR2v6D9O6IVBr67Zio1B+en1TxGaYrvNI15MmrYmSPphGNiOCSuKYivgf1NkWY7uNiAm91cEOD6NxujJ0y+kc2Kqtnr4x7Phk5JsH9Mq+e7LYAq0O5iXhlv6LV4zL/kLpiy3UJM4xU4LQi2Ma1L3MyUoHHEhXcM4asIh2w9rxnKy06vpKCRgXT6b6r0nQL7hKWlEcoBa/CNgRQG8dLQtd6Qcf0SvbX0golUGDPzcpEEUzQg8ZdCs8jL9SAdUX1gObOVkpo4Pzt334MavEmgM3RXq58WK4lwqQmX/AZGA2XItldKxM2pexQo8/mKVMiMSuGNcG6OrWG3C3EHxw1tsxHmTCTpCqyNVQkvOmNECHUX2Az8lSGf3p1m3xp6P5gIC0qjSpz+OlwuIAFVGiAtKT+Pc2ktWaXFUE7mcQ4Une7XhPTtrJJEsDdO51C/IxQX4e7aZIt0LluasEz8l6WzVc8XldV9ALHs+xmvstTbL8Jp6di3BPriUN/IR7b5K8bJFz42+yrkL+eq/bQvH960+Yk58DVPXtavfXBtGTEnuF2eMnMGyQ4bkna23YRoLWY3hmBfH7kieg2TaK8GLfHYZttNd7sHVENsWEO5kknQjnZlwFtkcwbDhHa7rDKTMw0MvnzKTkRUhsQFAvM80+aqWoVibSQEbmzjtJxplcASPNgIx8haJBclEYZoSBdRUpTHUfelqQLpFUuTC/549pY4+oW+gENNhBpmjQrdC4siP4Pdm3VO30myLdCq1DAzlzcmwvSuo3RWJjOLkkXoU8rD03UQdEPXtIaSNRLpwgryHZdxZvQBOiEEWDboUuEy6rQwEsnfAEVMUWNx2y+LnORVGVWWp11/GxxKoSNkVK33Ved7kv0rUHknqTYgORDmHXWTzosxEXOH/EgbwwEFtMqIjvdn6ofZFuU0I8zvfbhiAbQ07CjS5Q+yLdzQb5xnSZB01FzEWv5WgpUNtwjhIDK/fd/VnR2Ckb4MLWSPZFOtiViq2EuLTd8S+oWU7Qb1l6lJJ9kZbDRGv/Hg9IelGhazUnk32RNtZhFXCh1h+Px4o/ND7Y6HyRphZ+BTyiDQJYGBpzpYUTGpHms7DPL45iGT23dI9eiVIb9RvwPUrasJzLYsDBJ3z2jO5qe6kQgYUmPAcoEpbD2hRxTe+POhNwmbbLcIAiTlXI53cCrsuu5VGFNYZYiw1XKsDKgSWY/YS1dQW9M0oFdE4iPUmVWhX0A78I+0cipafr/rEB6q/f6HoSDYLX+Pxw//4GcskGR78e+ot1k34xKsCqkeABcuGnVHwY9terPkzf90qCItAfd6GqPMSJwLM+bKRzknNzXebz+4T9+6byNSevhSQo4cEXmfCvR0UDD19Ii2HuYbiS1WEhPjFEH68QnuPB5166DHPCTvToixT++bCT3LQh3PSIwQHDGXM/opE8g4eXA6SRSbj5uBYGgQOGg4NNgQ6dI8lHX+TD2wgPPr8aHDl3tKmEQeKA4WkQlcqoVU+bOpcwpOICSq9/NjQE6dAVwwA/eIo4Ppf0+L4FlmNJRPemHPliGJg4QE+P4Ehe8PhW/L0KgtLgkWHAdoBOFQxZ0dZ9ojH4ZcgjeVabZK+woHkZZB5i7wwDfE5WlAypw0QOudaXBsMAuwV9UX2lL+nob670VT6UlBgG+rvQV1+k/K2gZPslyUWUHsPgKM0m9OTVWJUzTJCqNM6hVBkGx2vfChXlFkWteO+JRjFf0NP699NmGBzTZkh6cnKLZ1UwbEpOSWMk8cUTGAbHOUnX/7tor3qzi54jv8C8Hs9hGNAUGsv7/1C+Shb/URjJLp7G8Ih7GpSYU0LJ8Pa82bjDycvwVIa3VDbxTADql+VOV3vYSWeezDA4JbQRoqgT3s5bmKSbeT5DCtPX41XIGALIGDKRMeQiYwggY8hExpCLjCGAjCETGUMuMoYAMoZMvDpD+7B61wyHjhnaZy9zypD6hRxFKthFQ7tjKIl+dheLYZG9zBHDYksmrjuNNjEIFD7BBcNPVSCB63iauglJa4ZJ8bMeIoaY0dCBLUNN9LOfmKgeLx2UBcOiNjzYW9QXlpnjDFOGUGYRM4ZYuIsmeYwlw2IZiyPaGjEcoUFKEZRsj8+QkUDK9OHsWsFhBDKTobfoZ4uKNHHIHIZ4rYmB5ijQuaAJ3ocZci4LOLvNy4u8tGGIX/gwMjuSgKeD6g6lJAGGnEs7ri/Un4BnL5tIelLHEI+ftUuvqYHF1bFEht4uz5lAfnyRNkYgqWZYY2SA9ZeVmZBEIy+79+B9BcM5PPdogKln4JmMfy4kZQxr7Qj8ytp74nApSTga+kRS+C8neuirdPVn0DsDH66TnRiaDz7NkfObER0C/pKQCfoppe7XALn5b4K6uxed7FGBXxVCoYx+fh7wl6H0cJ0gxxnc9GTPYWocD8hbLjx9V0lxfKKCP0NHsPDz7J8P4C8l3uH8wT/faMji2pVwl3ovVeTBRyEdvmSYPg7DVUMSDc1/YSS9HPwiL287gPT158UzXmr2h8b0K35j9Hf23/ReDJXbcE35Ceo00ZiuflfTdN9K/wezHbFxMnFpeAAAAABJRU5ErkJggg==;" parent="1" vertex="1">
          <mxGeometry x="1350" y="299.5" width="65" height="65" as="geometry" />
        </mxCell>
        <mxCell id="_L3SbqxIfx6lYunLBiMm-35" value="Mis Paquetes" style="shape=image;verticalLabelPosition=bottom;labelBackgroundColor=default;verticalAlign=top;aspect=fixed;imageAspect=0;image=data:image/png,iVBORw0KGgoAAAANSUhEUgAAAOEAAADhCAMAAAAJbSJIAAAAhFBMVEX///8AAAD6+vqDg4OZmZnp6enk5OSmpqbw8PD09PTe3t5ERET39/fl5eX7+/urq6uWlpazs7M/Pz9LS0tSUlKfn5+Li4u5ublWVlY2NjbAwMBgYGBpaWnQ0NDY2NhcXFxtbW0nJyd7e3sYGBgfHx8LCws4ODguLi58fHyHh4ccHBwUFBRZbbv7AAAMAUlEQVR4nO1d53rqOhA0hA6hd2LAJKGE93+/Q8daJGtWxcD5PP/OvZGlQW01u1oFQVrI5+LIp1ZvesgYvj8yhu+PjOH7I2P4/sgYvj8yhi+GRo1dxJZhrcouYoFRbsMuY8twk+uwy5girB+aWOaWsmRYPhTqhtxSRiguz22sMMvZMayciy2LzHIGaF/buGIWtGO4vRZsMwtyMY01krnYWDGsxYpOeUVZmPfjjezzClsxFCv2Nx1/hEbmRqzCNgynYsU/rMIWFW2anMIWDJsbsWKP43Qm1sSa9RYMC2K1M16jWaiJVbF2DHOGFVIr355i4EOsa8koas5wKVb6wWsyE2Izc7m5aVEGwzmp07PR3hJrq+MljRnWxSpb/EbzsBbrw61hU4YdscK1SaNZCMUKf+CmGjLMk004BeP7S6xxiJYzZDgUq/syazQLn2KVOdTaN2NYJLV9mjabA/KrovuvGUNiY8Ajxg7kZwVnhhFDMutz5o1mYSTWCq5uRgzJys2z9S3QE+vFdigThmT37dk0mgUydn4bSCEDho1fsaJ0ZJoTiKW4RcoYMNyK1SxtmswEtfZLQBk+wxKphat9WaEt1r0AivAZLsRKfGtQBN9i7cCpm82QKArf9o1mgS9ocBmmKF3IMRbrH2gLcBkOxArGLhrNAj2Xav0mTIZV8n3GWdsVVmILtBI4kyH38x7Q4P7IjTh0f0yHCGRUuEZZbANTAtegL35cP829gCx2Ls1iYtzzvZVuQHaMyJ0Ilo/ET6e+U1xhI4EngphMPkXuZPgyHE3MXk8gErgrmShVkTsZTfJju/EoUO8Iy8XlGoJcO3blMqkJp4r0QjCk6N4a8uNywZtGt+92HX7WBDdBo+D4wzfDO0XpQo6zBL5yf/6urJyuXuY4itI9P4b//KjppRBAo8PQo4o5SkvkTobPxfzlQxgzZMiQIUMGPvLhbvMRPkU3SwXhx1m7irZPt6Z9IPyIB8b8rf4vks2QyB0nbMOnHt7doRFu/yT8jtivwlSviXhBuNoo6J0RLZ+mhbpAuE1kd8XqPUk2pHNPTfLNtpBGuIoY/I74W77RnJwuf/SMJPj+eovhOl3pqSRgOX3pLaRqSe9KMtXAGRz56cpscD5iv3zBhWe6/NW3nIOXmpON6VLf4hP+DtMM7+qv0UusrlWY3vd17OVDBsknz8nm9Etlc1KspvEOOWyYYLn9bPS8OTn90jfwDKnxCZPMzUZP2ELwwRklHAXDbYT+RukO18roa481bL/VaBb58AMlmdqcbI4W6MawChG/g/x8LEXf/5xsjGb6dpzwzdIpwi26uo47HkkeBifYjMPcY68N4Tb5rHzHrOPFqVgdzcDBuTfVCxvzIdqTs47jOYkPztyHnYg2H+qrOGPccWbxVDoLfX0nuBFCwx06XPstBz1Z7KC9t/lwpw6GuwlY66JlNScbnbG+jhP2O2hjwNGcD8Et99CT5qtrX//5I/52fgRseOExDt7t6L+dy012PmPM58O1vgnGgWEV/TCJhnPvNvF8qJ+Te7MVR2v6D9O6IVBr67Zio1B+en1TxGaYrvNI15MmrYmSPphGNiOCSuKYivgf1NkWY7uNiAm91cEOD6NxujJ0y+kc2Kqtnr4x7Phk5JsH9Mq+e7LYAq0O5iXhlv6LV4zL/kLpiy3UJM4xU4LQi2Ma1L3MyUoHHEhXcM4asIh2w9rxnKy06vpKCRgXT6b6r0nQL7hKWlEcoBa/CNgRQG8dLQtd6Qcf0SvbX0golUGDPzcpEEUzQg8ZdCs8jL9SAdUX1gObOVkpo4Pzt334MavEmgM3RXq58WK4lwqQmX/AZGA2XItldKxM2pexQo8/mKVMiMSuGNcG6OrWG3C3EHxw1tsxHmTCTpCqyNVQkvOmNECHUX2Az8lSGf3p1m3xp6P5gIC0qjSpz+OlwuIAFVGiAtKT+Pc2ktWaXFUE7mcQ4Une7XhPTtrJJEsDdO51C/IxQX4e7aZIt0LluasEz8l6WzVc8XldV9ALHs+xmvstTbL8Jp6di3BPriUN/IR7b5K8bJFz42+yrkL+eq/bQvH960+Yk58DVPXtavfXBtGTEnuF2eMnMGyQ4bkna23YRoLWY3hmBfH7kieg2TaK8GLfHYZttNd7sHVENsWEO5kknQjnZlwFtkcwbDhHa7rDKTMw0MvnzKTkRUhsQFAvM80+aqWoVibSQEbmzjtJxplcASPNgIx8haJBclEYZoSBdRUpTHUfelqQLpFUuTC/549pY4+oW+gENNhBpmjQrdC4siP4Pdm3VO30myLdCq1DAzlzcmwvSuo3RWJjOLkkXoU8rD03UQdEPXtIaSNRLpwgryHZdxZvQBOiEEWDboUuEy6rQwEsnfAEVMUWNx2y+LnORVGVWWp11/GxxKoSNkVK33Ved7kv0rUHknqTYgORDmHXWTzosxEXOH/EgbwwEFtMqIjvdn6ofZFuU0I8zvfbhiAbQ07CjS5Q+yLdzQb5xnSZB01FzEWv5WgpUNtwjhIDK/fd/VnR2Ckb4MLWSPZFOtiViq2EuLTd8S+oWU7Qb1l6lJJ9kZbDRGv/Hg9IelGhazUnk32RNtZhFXCh1h+Px4o/ND7Y6HyRphZ+BTyiDQJYGBpzpYUTGpHms7DPL45iGT23dI9eiVIb9RvwPUrasJzLYsDBJ3z2jO5qe6kQgYUmPAcoEpbD2hRxTe+POhNwmbbLcIAiTlXI53cCrsuu5VGFNYZYiw1XKsDKgSWY/YS1dQW9M0oFdE4iPUmVWhX0A78I+0cipafr/rEB6q/f6HoSDYLX+Pxw//4GcskGR78e+ot1k34xKsCqkeABcuGnVHwY9terPkzf90qCItAfd6GqPMSJwLM+bKRzknNzXebz+4T9+6byNSevhSQo4cEXmfCvR0UDD19Ii2HuYbiS1WEhPjFEH68QnuPB5166DHPCTvToixT++bCT3LQh3PSIwQHDGXM/opE8g4eXA6SRSbj5uBYGgQOGg4NNgQ6dI8lHX+TD2wgPPr8aHDl3tKmEQeKA4WkQlcqoVU+bOpcwpOICSq9/NjQE6dAVwwA/eIo4Ppf0+L4FlmNJRPemHPliGJg4QE+P4Ehe8PhW/L0KgtLgkWHAdoBOFQxZ0dZ9ojH4ZcgjeVabZK+woHkZZB5i7wwDfE5WlAypw0QOudaXBsMAuwV9UX2lL+nob670VT6UlBgG+rvQV1+k/K2gZPslyUWUHsPgKM0m9OTVWJUzTJCqNM6hVBkGx2vfChXlFkWteO+JRjFf0NP699NmGBzTZkh6cnKLZ1UwbEpOSWMk8cUTGAbHOUnX/7tor3qzi54jv8C8Hs9hGNAUGsv7/1C+Shb/URjJLp7G8Ih7GpSYU0LJ8Pa82bjDycvwVIa3VDbxTADql+VOV3vYSWeezDA4JbQRoqgT3s5bmKSbeT5DCtPX41XIGALIGDKRMeQiYwggY8hExpCLjCGAjCETGUMuMoYAMoZMvDpD+7B61wyHjhnaZy9zypD6hRxFKthFQ7tjKIl+dheLYZG9zBHDYksmrjuNNjEIFD7BBcNPVSCB63iauglJa4ZJ8bMeIoaY0dCBLUNN9LOfmKgeLx2UBcOiNjzYW9QXlpnjDFOGUGYRM4ZYuIsmeYwlw2IZiyPaGjEcoUFKEZRsj8+QkUDK9OHsWsFhBDKTobfoZ4uKNHHIHIZ4rYmB5ijQuaAJ3ocZci4LOLvNy4u8tGGIX/gwMjuSgKeD6g6lJAGGnEs7ri/Un4BnL5tIelLHEI+ftUuvqYHF1bFEht4uz5lAfnyRNkYgqWZYY2SA9ZeVmZBEIy+79+B9BcM5PPdogKln4JmMfy4kZQxr7Qj8ytp74nApSTga+kRS+C8neuirdPVn0DsDH66TnRiaDz7NkfObER0C/pKQCfoppe7XALn5b4K6uxed7FGBXxVCoYx+fh7wl6H0cJ0gxxnc9GTPYWocD8hbLjx9V0lxfKKCP0NHsPDz7J8P4C8l3uH8wT/faMji2pVwl3ovVeTBRyEdvmSYPg7DVUMSDc1/YSS9HPwiL287gPT158UzXmr2h8b0K35j9Hf23/ReDJXbcE35Ceo00ZiuflfTdN9K/wezHbFxMnFpeAAAAABJRU5ErkJggg==;" parent="1" vertex="1">
          <mxGeometry x="1460" y="300" width="65" height="65" as="geometry" />
        </mxCell>
        <mxCell id="_L3SbqxIfx6lYunLBiMm-36" value="Paquetes" style="html=1;outlineConnect=0;whiteSpace=wrap;fillColor=#dae8fc;shape=mxgraph.archimate3.application;archiType=rounded;strokeColor=#6c8ebf;" parent="1" vertex="1">
          <mxGeometry x="960" y="250" width="580" height="40" as="geometry" />
        </mxCell>
        <mxCell id="_L3SbqxIfx6lYunLBiMm-37" value="Administrar" style="html=1;outlineConnect=0;whiteSpace=wrap;fillColor=#d5e8d4;shape=mxgraph.archimate3.application;archiType=rounded;strokeColor=#82b366;" parent="1" vertex="1">
          <mxGeometry x="962.5" y="400" width="580" height="40" as="geometry" />
        </mxCell>
        <mxCell id="_L3SbqxIfx6lYunLBiMm-38" value="Nuevo Casillero" style="shape=image;html=1;verticalAlign=top;verticalLabelPosition=bottom;labelBackgroundColor=#ffffff;imageAspect=0;aspect=fixed;image=https://cdn4.iconfinder.com/data/icons/dot/128/locker_bagage_key.png" parent="1" vertex="1">
          <mxGeometry x="962.5" y="453.5" width="78" height="78" as="geometry" />
        </mxCell>
        <mxCell id="_L3SbqxIfx6lYunLBiMm-39" value="Transporte" style="html=1;outlineConnect=0;whiteSpace=wrap;fillColor=#e1d5e7;shape=mxgraph.archimate3.application;archiType=rounded;strokeColor=#9673a6;" parent="1" vertex="1">
          <mxGeometry x="962.5" y="560" width="580" height="40" as="geometry" />
        </mxCell>
        <mxCell id="_L3SbqxIfx6lYunLBiMm-40" value="Casilleros" style="shape=image;html=1;verticalAlign=top;verticalLabelPosition=bottom;labelBackgroundColor=#ffffff;imageAspect=0;aspect=fixed;image=https://cdn0.iconfinder.com/data/icons/education-1006/32/locker_door_school_metal_storage_safety_lock_box_locker_room_cabinet-128.png" parent="1" vertex="1">
          <mxGeometry x="1070" y="470" width="61.5" height="61.5" as="geometry" />
        </mxCell>
        <mxCell id="_L3SbqxIfx6lYunLBiMm-41" value="&lt;span style=&quot;white-space: pre;&quot;&gt; &lt;/span&gt;Envios" style="sketch=0;pointerEvents=1;shadow=0;dashed=0;html=1;strokeColor=none;fillColor=#005F4B;labelPosition=center;verticalLabelPosition=bottom;verticalAlign=top;align=center;outlineConnect=0;shape=mxgraph.veeam2.transport;" parent="1" vertex="1">
          <mxGeometry x="960" y="620" width="74" height="40" as="geometry" />
        </mxCell>
        <mxCell id="_L3SbqxIfx6lYunLBiMm-42" value="Facturacion" style="html=1;outlineConnect=0;whiteSpace=wrap;fillColor=#ffe6cc;shape=mxgraph.archimate3.application;archiType=rounded;strokeColor=#d79b00;" parent="1" vertex="1">
          <mxGeometry x="962.5" y="690" width="580" height="40" as="geometry" />
        </mxCell>
        <mxCell id="_L3SbqxIfx6lYunLBiMm-43" value="Facturas" style="shape=image;html=1;verticalAlign=top;verticalLabelPosition=bottom;labelBackgroundColor=#ffffff;imageAspect=0;aspect=fixed;image=https://cdn0.iconfinder.com/data/icons/elasto-online-store/26/00-ELASTOFONT-STORE-READY_invoice-128.png" parent="1" vertex="1">
          <mxGeometry x="962.5" y="750" width="78" height="78" as="geometry" />
        </mxCell>
        <mxCell id="_L3SbqxIfx6lYunLBiMm-44" value="Login" style="shape=image;verticalLabelPosition=bottom;labelBackgroundColor=#ffffff;verticalAlign=top;aspect=fixed;imageAspect=0;image=data:image/svg+xml,PHN2ZyB4bWxuczpjYz0iaHR0cDovL2NyZWF0aXZlY29tbW9ucy5vcmcvbnMjIiB4bWxuczpkYz0iaHR0cDovL3B1cmwub3JnL2RjL2VsZW1lbnRzLzEuMS8iIHhtbG5zOmlua3NjYXBlPSJodHRwOi8vd3d3Lmlua3NjYXBlLm9yZy9uYW1lc3BhY2VzL2lua3NjYXBlIiB4bWxuczpyZGY9Imh0dHA6Ly93d3cudzMub3JnLzE5OTkvMDIvMjItcmRmLXN5bnRheC1ucyMiIHhtbG5zOnNvZGlwb2RpPSJodHRwOi8vc29kaXBvZGkuc291cmNlZm9yZ2UubmV0L0RURC9zb2RpcG9kaS0wLmR0ZCIgeG1sbnM6c3ZnPSJodHRwOi8vd3d3LnczLm9yZy8yMDAwL3N2ZyIgeG1sbnM9Imh0dHA6Ly93d3cudzMub3JnLzIwMDAvc3ZnIiB4bWxuczp4bGluaz0iaHR0cDovL3d3dy53My5vcmcvMTk5OS94bGluayIgdmVyc2lvbj0iMS4xIiBpZD0ic3ZnODkyNjkiIGlua3NjYXBlOnZlcnNpb249IjAuOTIuMyAoMjQwNTU0NiwgMjAxOC0wMy0xMSkiIHNvZGlwb2RpOmRvY25hbWU9ImxvZ2luLnN2ZyIgeD0iMHB4IiB5PSIwcHgiIHZpZXdCb3g9IjAgMCA0OC4yMyA1OS4xNCIgc3R5bGU9ImVuYWJsZS1iYWNrZ3JvdW5kOm5ldyAwIDAgNDguMjMgNTkuMTQ7IiB4bWw6c3BhY2U9InByZXNlcnZlIj4mI3hhOzxzb2RpcG9kaTpuYW1lZHZpZXcgYm9yZGVyY29sb3I9IiM2NjY2NjYiIGJvcmRlcm9wYWNpdHk9IjEiIGZpdC1tYXJnaW4tYm90dG9tPSIwIiBmaXQtbWFyZ2luLWxlZnQ9IjAiIGZpdC1tYXJnaW4tcmlnaHQ9IjAiIGZpdC1tYXJnaW4tdG9wPSIwIiBncmlkdG9sZXJhbmNlPSIxMCIgZ3VpZGV0b2xlcmFuY2U9IjEwIiBpZD0ibmFtZWR2aWV3ODkyNzEiIGlua3NjYXBlOmN1cnJlbnQtbGF5ZXI9InN2Zzg5MjY5IiBpbmtzY2FwZTpjeD0iMzIuMTUxNDIzIiBpbmtzY2FwZTpjeT0iMzkuNDI5Mjg4IiBpbmtzY2FwZTpwYWdlb3BhY2l0eT0iMCIgaW5rc2NhcGU6cGFnZXNoYWRvdz0iMiIgaW5rc2NhcGU6d2luZG93LWhlaWdodD0iMTAxNyIgaW5rc2NhcGU6d2luZG93LW1heGltaXplZD0iMSIgaW5rc2NhcGU6d2luZG93LXdpZHRoPSIxOTIwIiBpbmtzY2FwZTp3aW5kb3cteD0iLTgiIGlua3NjYXBlOndpbmRvdy15PSItOCIgaW5rc2NhcGU6em9vbT0iMTAuOTAzNjMyIiBvYmplY3R0b2xlcmFuY2U9IjEwIiBwYWdlY29sb3I9IiNmZmZmZmYiIHNob3dncmlkPSJmYWxzZSI+JiN4YTsJPC9zb2RpcG9kaTpuYW1lZHZpZXc+JiN4YTs8ZyBpZD0iZzg5MjY3IiB0cmFuc2Zvcm09InRyYW5zbGF0ZSgtMC4yNDk5NzQwMywtMC4yNDk5NzQwMykiPiYjeGE7CTx0aXRsZSBpZD0idGl0bGU4OTIxOCI+UGFnZS0xPC90aXRsZT4mI3hhOwk8ZyBpZD0iZ3JvdXA1MDQ5LTEiIHRyYW5zZm9ybT0idHJhbnNsYXRlKDAuNSwtMC41KSI+JiN4YTsJCTx0aXRsZSBpZD0idGl0bGU4OTIyMCI+TG9naW48L3RpdGxlPiYjeGE7CQk8ZyBpZD0ic2hhcGU1MDUwLTIiPiYjeGE7CQkJPHRpdGxlIGlkPSJ0aXRsZTg5MjIyIj5wYXRoLTk8L3RpdGxlPiYjeGE7CQkJJiN4YTsJCQkJPHBhdGggaWQ9InBhdGg4OTIyNCIgaW5rc2NhcGU6Y29ubmVjdG9yLWN1cnZhdHVyZT0iMCIgc3R5bGU9ImZpbGw6I0FBRTlGQjtzdHJva2U6IzU1NkE4QTtzdHJva2Utd2lkdGg6MC41O3N0cm9rZS1taXRlcmxpbWl0OjM7IiBkPSIgICAgIE0wLDU4LjYxYzAsMC41NiwwLjQ1LDEuMDMsMS4wMiwxLjAzYzAsMCwwLDAsMCwwSDQ2LjdjMC41NiwwLDEuMDMtMC40NSwxLjAzLTEuMDJjMCwwLDAtMC4wMSwwLTAuMDFWMi4wMiAgICAgQzQ3LjczLDEuNDYsNDcuMjcsMSw0Ni43LDFjMCwwLDAsMCwwLDBIMS4wMkMwLjQ2LDEsMCwxLjQ2LDAsMi4wMlY1OC42MXoiLz4mI3hhOwkJPC9nPiYjeGE7CQk8ZyBpZD0iZ3JvdXA1MDUxLTQiIHRyYW5zZm9ybT0idHJhbnNsYXRlKDE1LjM0MDgsLTMxLjAyMjYpIj4mI3hhOwkJCTx0aXRsZSBpZD0idGl0bGU4OTIyNyI+RmlsbC0xNDwvdGl0bGU+JiN4YTsJCQk8ZyBpZD0iZ3JvdXA1MDUyLTUiPiYjeGE7CQkJCTx0aXRsZSBpZD0idGl0bGU4OTIyOSI+TWFzazwvdGl0bGU+JiN4YTsJCQkJPGcgaWQ9InNoYXBlNTA1My02Ij4mI3hhOwkJCQkJPHRpdGxlIGlkPSJ0aXRsZTg5MjMxIj5wYXRoLTExPC90aXRsZT4mI3hhOwkJCQkJPGNpcmNsZSBpZD0iZWxsaXBzZTg5MjMzIiBzdHlsZT0iZmlsbDojRUI0RTQ4OyIgY3g9IjguNTIiIGN5PSI1MS4xMSIgcj0iOC41MiIvPiYjeGE7CQkJCTwvZz4mI3hhOwkJCQk8ZyBpZD0ic2hhcGU1MDU0LTgiPiYjeGE7CQkJCQk8dGl0bGUgaWQ9InRpdGxlODkyMzYiPlNoZWV0LjUwNTQ8L3RpdGxlPiYjeGE7CQkJCQkmI3hhOwkJCQkJCTxjaXJjbGUgaWQ9ImVsbGlwc2U4OTIzOCIgc3R5bGU9ImZpbGw6bm9uZTtzdHJva2U6I0NDQ0NDQztzdHJva2Utd2lkdGg6NC41O3N0cm9rZS1taXRlcmxpbWl0OjM7IiBjeD0iOC41MiIgY3k9IjUxLjExIiByPSI4LjUyIi8+JiN4YTsJCQkJPC9nPiYjeGE7CQkJCTxnIGlkPSJzaGFwZTUwNTUtMTAiPiYjeGE7CQkJCQk8dGl0bGUgaWQ9InRpdGxlODkyNDEiPlNoZWV0LjUwNTU8L3RpdGxlPiYjeGE7CQkJCQkmI3hhOwkJCQkJCTxjaXJjbGUgaWQ9ImVsbGlwc2U4OTI0MyIgc3R5bGU9ImZpbGw6bm9uZTtzdHJva2U6I0ZGRkZGRjtzdHJva2Utd2lkdGg6NC41O3N0cm9rZS1taXRlcmxpbWl0OjM7IiBjeD0iOC41MiIgY3k9IjUxLjExIiByPSI4LjUyIi8+JiN4YTsJCQkJPC9nPiYjeGE7CQkJPC9nPiYjeGE7CQkJPGcgaWQ9InNoYXBlNTA1Ni0xMiIgdHJhbnNmb3JtPSJ0cmFuc2xhdGUoMi4zODYzNSkiPiYjeGE7CQkJCTx0aXRsZSBpZD0idGl0bGU4OTI0NyI+U2hlZXQuNTA1NjwvdGl0bGU+JiN4YTsJCQkJPHBhdGggaWQ9InBhdGg4OTI0OSIgaW5rc2NhcGU6Y29ubmVjdG9yLWN1cnZhdHVyZT0iMCIgc3R5bGU9ImZpbGw6I0ZGRkZGRjsiIGQ9Ik0xMi42MSw1OC4xM3YxLjUxSDB2LTEuNTFsNC4yLTIuN3YtMS4wNSAgICAgIGMtMC4yNSwwLTAuNDktMC4yNi0wLjcyLTAuNzhjLTAuMjItMC41Mi0wLjMzLTAuOTYtMC4zMy0xLjMydi0yLjFjMC0wLjg3LDAuMzEtMS42MiwwLjkzLTIuMjNjMC42Mi0wLjYyLDEuMzYtMC45MywyLjIzLTAuOTMgICAgICBzMS42MSwwLjMxLDIuMjMsMC45M2MwLjYxLDAuNjEsMC45MiwxLjM2LDAuOTIsMi4yM3YyLjFjMCwwLjM2LTAuMTEsMC44LTAuMzMsMS4zMnMtMC40NiwwLjc4LTAuNzIsMC43OHYxLjA1TDEyLjYxLDU4LjEzeiIvPiYjeGE7CQkJPC9nPiYjeGE7CQk8L2c+JiN4YTsJCTxnIGlkPSJzaGFwZTUwNTctMTQiIHRyYW5zZm9ybT0idHJhbnNsYXRlKDkuMjA0NSwtMTcuMDQ1NCkiPiYjeGE7CQkJPHRpdGxlIGlkPSJ0aXRsZTg5MjUzIj5wYXRoLTE1PC90aXRsZT4mI3hhOwkJCSYjeGE7CQkJCTxwYXRoIGlkPSJwYXRoODkyNTUiIGlua3NjYXBlOmNvbm5lY3Rvci1jdXJ2YXR1cmU9IjAiIHN0eWxlPSJmaWxsOiNGRkZGRkY7c3Ryb2tlOiM1NTZBOEE7c3Ryb2tlLXdpZHRoOjAuNTtzdHJva2UtbWl0ZXJsaW1pdDozOyIgZD0iICAgICBNMCw1OC45NWMwLDAuMzgsMC4zMSwwLjY4LDAuNjgsMC42OGwyNy45NiwwLjAxYzAuMzgsMCwwLjY4LTAuMzEsMC42OC0wLjY4bDAtNy4xNmMwLTAuMzgtMC4zMS0wLjY4LTAuNjgtMC42OEwwLjY4LDUxLjExICAgICBDMC4zLDUxLjExLDAsNTEuNDIsMCw1MS43OUwwLDU4Ljk1eiIvPiYjeGE7CQk8L2c+JiN4YTsJCTxnIGlkPSJncm91cDUwNTgtMTYiIHRyYW5zZm9ybT0idHJhbnNsYXRlKDkuMjA0NSwtNi44MTgxNSkiPiYjeGE7CQkJPHRpdGxlIGlkPSJ0aXRsZTg5MjU4Ij5EeW5hbWljLWdyb3VwPC90aXRsZT4mI3hhOwkJCTxnIGlkPSJzaGFwZTUwNTktMTciPiYjeGE7CQkJCTx0aXRsZSBpZD0idGl0bGU4OTI2MCI+cGF0aC0xNzwvdGl0bGU+JiN4YTsJCQkJPHBhdGggaWQ9InBhdGg4OTI2MiIgaW5rc2NhcGU6Y29ubmVjdG9yLWN1cnZhdHVyZT0iMCIgc3R5bGU9ImZpbGw6I0U2RTZFNjsiIGQ9Ik0wLDU4Ljk1YzAsMC4zOCwwLjMxLDAuNjgsMC42OCwwLjY4ICAgICAgbDI3Ljk2LDAuMDFjMC4zOCwwLDAuNjgtMC4zMSwwLjY4LTAuNjhsMC03LjE2YzAtMC4zOC0wLjMxLTAuNjgtMC42OC0wLjY4TDAuNjgsNTEuMTFDMC4zLDUxLjExLDAsNTEuNDIsMCw1MS43OUwwLDU4Ljk1eiIvPiYjeGE7CQkJPC9nPiYjeGE7CQk8L2c+JiN4YTsJPC9nPiYjeGE7PC9nPiYjeGE7PC9zdmc+;" parent="1" vertex="1">
          <mxGeometry x="1213.96" y="-80" width="65.08" height="80" as="geometry" />
        </mxCell>
        <mxCell id="_L3SbqxIfx6lYunLBiMm-45" value="Cerrar Session" style="shape=image;html=1;verticalAlign=top;verticalLabelPosition=bottom;labelBackgroundColor=#ffffff;imageAspect=0;aspect=fixed;image=https://cdn3.iconfinder.com/data/icons/arrows-396/48/arrow_login-128.png" parent="1" vertex="1">
          <mxGeometry x="1465" y="159" width="60" height="60" as="geometry" />
        </mxCell>
        <mxCell id="_L3SbqxIfx6lYunLBiMm-46" value="Profile" style="html=1;strokeColor=none;fillColor=#0079D6;labelPosition=center;verticalLabelPosition=middle;verticalAlign=top;align=center;fontSize=12;outlineConnect=0;spacingTop=-6;fontColor=#FFFFFF;sketch=0;shape=mxgraph.sitemap.profile;" parent="1" vertex="1">
          <mxGeometry x="960" y="159" width="120" height="70" as="geometry" />
        </mxCell>
        <mxCell id="_L3SbqxIfx6lYunLBiMm-47" value="Menu" style="shape=image;verticalLabelPosition=bottom;labelBackgroundColor=#ffffff;verticalAlign=top;aspect=fixed;imageAspect=0;image=data:image/svg+xml,PHN2ZyB4bWxuczpjYz0iaHR0cDovL2NyZWF0aXZlY29tbW9ucy5vcmcvbnMjIiB4bWxuczpkYz0iaHR0cDovL3B1cmwub3JnL2RjL2VsZW1lbnRzLzEuMS8iIHhtbG5zOmlua3NjYXBlPSJodHRwOi8vd3d3Lmlua3NjYXBlLm9yZy9uYW1lc3BhY2VzL2lua3NjYXBlIiB4bWxuczpyZGY9Imh0dHA6Ly93d3cudzMub3JnLzE5OTkvMDIvMjItcmRmLXN5bnRheC1ucyMiIHhtbG5zOnNvZGlwb2RpPSJodHRwOi8vc29kaXBvZGkuc291cmNlZm9yZ2UubmV0L0RURC9zb2RpcG9kaS0wLmR0ZCIgeG1sbnM6c3ZnPSJodHRwOi8vd3d3LnczLm9yZy8yMDAwL3N2ZyIgeG1sbnM9Imh0dHA6Ly93d3cudzMub3JnLzIwMDAvc3ZnIiB4bWxuczp4bGluaz0iaHR0cDovL3d3dy53My5vcmcvMTk5OS94bGluayIgdmVyc2lvbj0iMS4xIiBpZD0ic3ZnNTg2MzQiIGlua3NjYXBlOnZlcnNpb249IjAuOTIuMyAoMjQwNTU0NiwgMjAxOC0wMy0xMSkiIHNvZGlwb2RpOmRvY25hbWU9ImFwcHMuc3ZnIiB4PSIwcHgiIHk9IjBweCIgdmlld0JveD0iMCAwIDUzLjI2IDUzLjkyIiBzdHlsZT0iZW5hYmxlLWJhY2tncm91bmQ6bmV3IDAgMCA1My4yNiA1My45MjsiIHhtbDpzcGFjZT0icHJlc2VydmUiPiYjeGE7PHNvZGlwb2RpOm5hbWVkdmlldyBib3JkZXJjb2xvcj0iIzY2NjY2NiIgYm9yZGVyb3BhY2l0eT0iMSIgZml0LW1hcmdpbi1ib3R0b209IjAiIGZpdC1tYXJnaW4tbGVmdD0iMCIgZml0LW1hcmdpbi1yaWdodD0iMCIgZml0LW1hcmdpbi10b3A9IjAiIGdyaWR0b2xlcmFuY2U9IjEwIiBndWlkZXRvbGVyYW5jZT0iMTAiIGlkPSJuYW1lZHZpZXc1ODYzNiIgaW5rc2NhcGU6Y3VycmVudC1sYXllcj0ic3ZnNTg2MzQiIGlua3NjYXBlOmN4PSIzNS41MDU2OTUiIGlua3NjYXBlOmN5PSIzNS45NDg0MjgiIGlua3NjYXBlOnBhZ2VvcGFjaXR5PSIwIiBpbmtzY2FwZTpwYWdlc2hhZG93PSIyIiBpbmtzY2FwZTp3aW5kb3ctaGVpZ2h0PSIxMDE3IiBpbmtzY2FwZTp3aW5kb3ctbWF4aW1pemVkPSIxIiBpbmtzY2FwZTp3aW5kb3ctd2lkdGg9IjE5MjAiIGlua3NjYXBlOndpbmRvdy14PSItOCIgaW5rc2NhcGU6d2luZG93LXk9Ii04IiBpbmtzY2FwZTp6b29tPSIxMi4wNjAxMjYiIG9iamVjdHRvbGVyYW5jZT0iMTAiIHBhZ2Vjb2xvcj0iI2ZmZmZmZiIgc2hvd2dyaWQ9ImZhbHNlIj4mI3hhOwk8L3NvZGlwb2RpOm5hbWVkdmlldz4mI3hhOzxnIGlkPSJnNTg2MzIiIHRyYW5zZm9ybT0idHJhbnNsYXRlKDAsMC4wMDQ0NDg2MykiPiYjeGE7CTx0aXRsZSBpZD0idGl0bGU1ODU4MiI+UGFnZS0xPC90aXRsZT4mI3hhOwk8ZyBpZD0iZ3JvdXA1NDcwLTEiPiYjeGE7CQk8dGl0bGUgaWQ9InRpdGxlNTg1ODQiPkFwcHM8L3RpdGxlPiYjeGE7CQk8ZyBpZD0ic2hhcGU1NDcxLTIiIHRyYW5zZm9ybT0idHJhbnNsYXRlKDAsLTM3LjM3NDUpIj4mI3hhOwkJCTx0aXRsZSBpZD0idGl0bGU1ODU4NiI+U2hlZXQuNTQ3MTwvdGl0bGU+JiN4YTsJCQk8cGF0aCBpZD0icGF0aDU4NTg4IiBpbmtzY2FwZTpjb25uZWN0b3ItY3VydmF0dXJlPSIwIiBzdHlsZT0iZmlsbDojNTk1OTU5OyIgZD0iTTAsMzcuMzd2MTYuNTVoMTUuOTJWMzcuMzdIMHoiLz4mI3hhOwkJPC9nPiYjeGE7CQk8ZyBpZD0ic2hhcGU1NDcyLTQiIHRyYW5zZm9ybT0idHJhbnNsYXRlKDE4LjM2NSwtMzcuMzc0NSkiPiYjeGE7CQkJPHRpdGxlIGlkPSJ0aXRsZTU4NTkxIj5TaGVldC41NDcyPC90aXRsZT4mI3hhOwkJCTxwYXRoIGlkPSJwYXRoNTg1OTMiIGlua3NjYXBlOmNvbm5lY3Rvci1jdXJ2YXR1cmU9IjAiIHN0eWxlPSJmaWxsOiM1OTU5NTk7IiBkPSJNMCwzNy4zN3YxNi41NWgxNS45MlYzNy4zN0gweiIvPiYjeGE7CQk8L2c+JiN4YTsJCTxnIGlkPSJzaGFwZTU0NzMtNiIgdHJhbnNmb3JtPSJ0cmFuc2xhdGUoMzcuMzQyMiwtMzcuMzc0NSkiPiYjeGE7CQkJPHRpdGxlIGlkPSJ0aXRsZTU4NTk2Ij5TaGVldC41NDczPC90aXRsZT4mI3hhOwkJCTxwYXRoIGlkPSJwYXRoNTg1OTgiIGlua3NjYXBlOmNvbm5lY3Rvci1jdXJ2YXR1cmU9IjAiIHN0eWxlPSJmaWxsOiM1OTU5NTk7IiBkPSJNMCwzNy4zN3YxNi41NWgxNS45MlYzNy4zN0gweiIvPiYjeGE7CQk8L2c+JiN4YTsJCTxnIGlkPSJzaGFwZTU0NzQtOCIgdHJhbnNmb3JtPSJ0cmFuc2xhdGUoMCwtMTguMzgwOSkiPiYjeGE7CQkJPHRpdGxlIGlkPSJ0aXRsZTU4NjAxIj5TaGVldC41NDc0PC90aXRsZT4mI3hhOwkJCTxwYXRoIGlkPSJwYXRoNTg2MDMiIGlua3NjYXBlOmNvbm5lY3Rvci1jdXJ2YXR1cmU9IjAiIHN0eWxlPSJmaWxsOiM1OTU5NTk7IiBkPSJNMCwzNy4zN3YxNi41NWgxNS45MlYzNy4zN0gweiIvPiYjeGE7CQk8L2c+JiN4YTsJCTxnIGlkPSJzaGFwZTU0NzUtMTAiIHRyYW5zZm9ybT0idHJhbnNsYXRlKDE4LjM2NSwtMTguMzgwOSkiPiYjeGE7CQkJPHRpdGxlIGlkPSJ0aXRsZTU4NjA2Ij5TaGVldC41NDc1PC90aXRsZT4mI3hhOwkJCTxwYXRoIGlkPSJwYXRoNTg2MDgiIGlua3NjYXBlOmNvbm5lY3Rvci1jdXJ2YXR1cmU9IjAiIHN0eWxlPSJmaWxsOiM1OTU5NTk7IiBkPSJNMCwzNy4zN3YxNi41NWgxNS45MlYzNy4zN0gweiIvPiYjeGE7CQk8L2c+JiN4YTsJCTxnIGlkPSJzaGFwZTU0NzYtMTIiIHRyYW5zZm9ybT0idHJhbnNsYXRlKDM3LjM0MjIsLTE4LjM4MDkpIj4mI3hhOwkJCTx0aXRsZSBpZD0idGl0bGU1ODYxMSI+U2hlZXQuNTQ3NjwvdGl0bGU+JiN4YTsJCQk8cGF0aCBpZD0icGF0aDU4NjEzIiBpbmtzY2FwZTpjb25uZWN0b3ItY3VydmF0dXJlPSIwIiBzdHlsZT0iZmlsbDojNTk1OTU5OyIgZD0iTTAsMzcuMzd2MTYuNTVoMTUuOTJWMzcuMzdIMHoiLz4mI3hhOwkJPC9nPiYjeGE7CQk8ZyBpZD0ic2hhcGU1NDc3LTE0Ij4mI3hhOwkJCTx0aXRsZSBpZD0idGl0bGU1ODYxNiI+U2hlZXQuNTQ3NzwvdGl0bGU+JiN4YTsJCQk8cGF0aCBpZD0icGF0aDU4NjE4IiBpbmtzY2FwZTpjb25uZWN0b3ItY3VydmF0dXJlPSIwIiBzdHlsZT0iZmlsbDojNTk1OTU5OyIgZD0iTTAsMzcuOTl2MTUuOTNoMTUuOTJWMzcuOTlIMHoiLz4mI3hhOwkJPC9nPiYjeGE7CQk8ZyBpZD0ic2hhcGU1NDc4LTE2IiB0cmFuc2Zvcm09InRyYW5zbGF0ZSgxOC4zNjUpIj4mI3hhOwkJCTx0aXRsZSBpZD0idGl0bGU1ODYyMSI+U2hlZXQuNTQ3ODwvdGl0bGU+JiN4YTsJCQk8cGF0aCBpZD0icGF0aDU4NjIzIiBpbmtzY2FwZTpjb25uZWN0b3ItY3VydmF0dXJlPSIwIiBzdHlsZT0iZmlsbDojNTk1OTU5OyIgZD0iTTAsMzcuOTl2MTUuOTNoMTUuOTJWMzcuOTlIMHoiLz4mI3hhOwkJPC9nPiYjeGE7CQk8ZyBpZD0ic2hhcGU1NDc5LTE4IiB0cmFuc2Zvcm09InRyYW5zbGF0ZSgzNy4zNDIyKSI+JiN4YTsJCQk8dGl0bGUgaWQ9InRpdGxlNTg2MjYiPlNoZWV0LjU0Nzk8L3RpdGxlPiYjeGE7CQkJPHBhdGggaWQ9InBhdGg1ODYyOCIgaW5rc2NhcGU6Y29ubmVjdG9yLWN1cnZhdHVyZT0iMCIgc3R5bGU9ImZpbGw6IzU5NTk1OTsiIGQ9Ik0wLDM3Ljk5djE1LjkzaDE1LjkyVjM3Ljk5SDB6Ii8+JiN4YTsJCTwvZz4mI3hhOwk8L2c+JiN4YTs8L2c+JiN4YTs8L3N2Zz4=;" parent="1" vertex="1">
          <mxGeometry x="-318.5" y="40" width="53" height="54" as="geometry" />
        </mxCell>
        <mxCell id="_L3SbqxIfx6lYunLBiMm-48" value="Dashboard" style="sketch=0;pointerEvents=1;shadow=0;dashed=0;html=1;strokeColor=none;labelPosition=center;verticalLabelPosition=bottom;verticalAlign=top;align=center;fillColor=#505050;shape=mxgraph.mscae.intune.dashboard" parent="1" vertex="1">
          <mxGeometry x="-328.03999999999996" y="154" width="80" height="70" as="geometry" />
        </mxCell>
        <mxCell id="_L3SbqxIfx6lYunLBiMm-49" value="Procesar" style="verticalLabelPosition=bottom;html=1;verticalAlign=top;align=center;strokeColor=none;fillColor=#00BEF2;shape=mxgraph.azure.cloud_service_package_file;" parent="1" vertex="1">
          <mxGeometry x="-562" y="307" width="42.5" height="50" as="geometry" />
        </mxCell>
        <mxCell id="_L3SbqxIfx6lYunLBiMm-50" value="Recibir" style="shape=image;verticalLabelPosition=bottom;labelBackgroundColor=default;verticalAlign=top;aspect=fixed;imageAspect=0;image=data:image/png,iVBORw0KGgoAAAANSUhEUgAAAOEAAADhCAMAAAAJbSJIAAAAflBMVEX///8AAADy8vL4+Pj19fX6+vrx8fGUlJRYWFiurq6/v79UVFSjo6OmpqZfX1+NjY22trabm5sSEhLR0dHExMTl5eXKysro6OiKiopLS0sZGRnd3d1vb291dXVDQ0PV1dWAgIBnZ2cuLi4nJycfHx96eno3NzcUFBRFRUUzMzMqKcoXAAASRklEQVR4nOWd62LqKBCA1QRvtVarMbZaL9V6et7/BdckkACZW5T0cpY/u6ehE74wwDAM004HLkoX5HHTet8lLtibArWoqThBPfRRVBROgq7GvklWL7C4DvERorAt+i5xeD9HcVE4Eboa19PfJC77Bghh/K2AcTBxBSLwrCEg16JvFAdrsop7eWFF9HQ9rkWtiOvJvhcFyImIArcouDh0AH1bi4KLuw/wx/dggQg864UFFIprCNi/Q1xgwJZ6kFmd/teAgcdgOyoqFdcDHkkB+2EBheICKESzHuz/71X0ewGh18bxbwC8fQxm9vrPB+xLexB4lm1IfjzgPSqqNOE/DFgQ/hPLBKSiqiDkNnBSwJ+3TBjCf2IdhHrQEP6rplr+OCP82ZPMfYA54T+hoqi4K+HP7sE7lgldg3Ux/2oV7ZDHM3n5HcsEAciVX6KijDii/HoV5crvNdWE5XeoKCeOKL9jHfwCFf3ZY5AQ8ztUlAXEm/U7ANlTO5xQCtgwjISrJqwn7sEIFQUBzrbDWnnQpf7kpnoPaL3t+AbA/JwbeQRMMtvu95ZDDZA/8kcJoR5cfjNgt7v3ANkejFFCcAwOvhuwO2kGWMQqgITwOvhTCMWAPZQQmUV/CCG/4TWAmlAM+EMIGwD2kHATdB3UhIflOC8zXcZImRXVnxeroiysstFNXlrVCXHLj5JQrKL9grAJoCGc6XpcBJPShB0osEUTWrVJcRNDKB+DOUMzQEM4skRQuhJpQgWJ8wkZU60kNK0TqChSjTLVbEKBLWoT1sR5hJwtaghN82g+qnWkLWoRSka7RVgX5xKy30sTziP5GIS/F21sV4Si3URFCIhzCPndhEtIvZUWx+zoS0LZdqkkhMTZhILtkkNIvpU8MOa2S4ZQiQA7fTOXQsUilHwvm5B+q6AHcXtdEz5GIkCVyghFCqGN/nF8D6CiVbTjE7I7ehmhcEc/zGoP43scBGVkMP7bDiHvshARSl0W/cHpNOiLTDUUMOYAHUKBT0ZCGAkBrzWUiu5ZJpSONiGVwCKUOJ0khLEUUDBWk00S4YA62oTW8opQ5FWTE4YAVJmLZa1QwIKQGcYlocxtKCYM4hfdmq8PBk5pQm6eetKETDVz+CIlDOJmHRXy3hX4vUw8DddyTTgStiiWEYp6MFaqv1k9DtaH9WC02tS6U3/N7qsCxWlC+k2dOBIRVp88EhEKAGMVjw+f525Vzi+DhVNtpx9MESkZIXd36doWCaGlUyJCXkWjaPHWhco6Kautzc8SRIzi7xlm6iQgtAeNhJAFjHuzF5Av7zHdkaUjF2saH22S2woCQmdW0IR/KEIOUC1xvqwMN9dqPfOvLSqIPQYpJnWW0J32NGH3OK2V4VRCqKI+rJ92WXc6D/p/z0TEEAOoLQWO0JvXI7RVVSEB1fJZIOJyMP+3x0UxgCYCnCH0F647CZWaO1Wfhx/z8WqxHK2PF1DWnMFgAXuur40FvJNQRQer3ut6Ya2BKnl8qIl6uBtQ0YR10+MuQhVbR3m7Zb1CenAlPfdvBbSsXooQipM5soBvKKCq5pjLCq7T/7BFAR9BVmwfA0EIGo/prkuXFzwe9KmsRAyvxd+y1jEEIEGIWcfLiVvmuhT/QvomA5yVTccnyGw8vorqEcX1EqGE0jNnaZ6G2BzcdC9U3VhZYxFfDKm1wnODYYTBA4FiY8i8UFXjqOrpLmnQiFuEEAaPk4kedaN3lMg4TtxRjSg9Hm1S/+QwYfhAoL5pM7UAXPc6nsl6AsXh0SbA4QtIGD6cshxdC6Je3Kum23f9X8D5oPBoE6hFEGELiQKM8h1IcdHKAA7ML5xqwhUebQK2CCBsIVZNDdjJMRPXN3v+l2oDPPPF4dEm8PlgnbCNcMr+X2TKdsQps//qptfW6j2IZ5oqIp4GblGNsI1ow3iJqZwDOOna/WaiRBwnhorRaBPsk/uErYRTmi0Fbqxljt29ASwsW+Nqm3jikGgTVKc8wnbiRWNtiKErRe6bNxavWSGm5Zh0xDXN/eEStgSoDbZP8/PIk58dvqhyV7HRPx3rf3viYB8pOMnUCVuK+DWWmInR23q7p9wlZniqFVDH7pRLKJXchJj2bMLWYrafnM4ptG/giIsT476x/L/vYv2i5nWLsL2oe+2eKH7B7DFeYktcXHowLKl6fjrcBWgRtnjz5ZS/41I8WBiWwqwuLtSXAYS2VaeN9QcHEHgt3aKSsM2bL8U79Jbd2j0MTA+urJ9URQ/Nv3cBVoRtjcGK8KCfWa6YlzQ/4e2bbf2LI0T39ok+T+V0yos2aeXmS+QSVmcu1zLONh5H86/UkaJH7PkuQI+wnas9PmFnVbliuuueMpvj7tgVUxLeA+gStnXzpXjHR1Wjbzl/H8pTpg9PTqmlOEUUc4AOYWt3l4p3OCedlWexLO9+M7WhcFEEYMzqlEXY3uWsYul+d6qtaic0G0+QCXwbKgIwZgdNRdjiNXNtQzsNUYnnkqn7K/Ske1AIhSx7S0nY5j16feBkr+bZPs+eU7vDuqxXawSBgKLsLYZQeBp32wVJvXRb28NCucYV4HP9C5tj4AVMIczeIo2nue8GqI5RqQaijlWL+qWmAo5RHU7TRQLSZNlblCza5O5Lyvr40zgkLHFah54AaXpFmSr4u4qytyhZtMn9uSw0xxoQl5uk0CmTsV8nSMiFJHuLkkWbBLikvLEHmxdOqWYj0HdvfMhIOI0ke0vWIglhiFvYerwNOmKFMF2IHiLy8TRFUCNPGOSSsjlRSqXiOkd8CtIv5MJNtJ+PJQxzzVydTY8IAY2xusPfyEjQO3qWMFSiADP1T5QI0DhLbz/KL69X0NEmATMhmCOJVSRQiNJt80JX5FsUM/E0ATMhGEfFeROzqRKroI2aNS4s1spMEgbNZfFWInKtqwAHTFWuRdnqRBGGTdYRvQs7pmem0Zt11LGtCMLA+WRU5Ub0zwSdsql2VSlVT9oinPBuU80XZwXUbHGhpdOGCbvhW6Q/OUoYOJ9MfvgyqVqPbNf2VsgVtVAQq72vUxhhaMBCmBV7eZ7XdFAth9Vz3/Hm1iT+0ow/aBDCwAlzymBPJx5oOrLmnP7q8G4/RK217LV4tEl9VoAJW+nB/ObLouuU193b4HE0PwxP3s+xHUUBiBIChy8gYSNAcySb+YXoCIK8Xm/Y5cuWvG2NR5tA8zpEKFfRK1K8WSwnh+3083I6n8/vl4fjx2C8sc+zfXEjmu7agdQQpLK3gAsXQCjd36hOOp5PL2Bk+uvnYdx3xFmmWv8A/UpZBuSLIzzaBF6Z64RCFY1nhxPZ0G73kk2X4H1LgnFAWw4Rnr0FMT1qhJIejPaDT4ZOl89JosDbetEIGI/PwxnzXSM8ewtmW/mEPKDypnWuHJcqAsWl44N1QPM8PIwTblebn64gfywIAfQJWcDVxysMQpQdbodGvc0yy+6ySNNYyTI7wz5S3Dp2CYnUBVnZrGkUtJxJW1v6BwAKJ11DQDh7CwjYf0TC9C/Tj/l4sd8k17LZL8aD7Ut9fv2LM8pt9wKiGSCYvQUCXIB53d4/JpsUeGN/M69NJDtklZMCEpfgyQ2cRUgtE8CB5p/DmLTWerOj9xsv0Na3YQ82BhRmb9n7eC9z7i5EfFWn/sg7IzzWzE0xIJF3gASsZ28Bx6CbEey6J5DdbuxF0d5b29f+sVTLPVjP3gLPota+7uExFZz5WC1KXQ1/tk4R++NZIko5onsQymDCOlFk2VuMlp7micrDH5ynyXiynu5Or8/PZ730uTqlvFFsppx8szgTZOS4dZIBCNE36WV+qzun/Hl/tfZuDWYnaDWd6rsL6S7f3mq/9ia+K7kJB+gS4qaaGU1PWRdqcelqMAQ2FgnYotRdbYZ7K9eXEBBS0YbZWwhjuwy3e5ll02GyHG0x43SGDOmNO69OE5NFieaj0iQ1zd5Cbsv4C9imrGJMp1Z/nYp68zUB3maVGA8KbZq9hd7wpl1hueAL13V7f67/Ak1I9WDD7C3cjn5WbxtUdpuYWHU6UT3XJhkGQuViC5y9pefdM/e4nmarTdrfLDYRCdjxb/pey5Hw3RMq2kL2FoX3YnnNQKFj0Crp0fv1lxFyEYPMxdZC9pZo439+U0wvSH1Y9Y3KdAY4SOndajvZW3qjNz1X7NbV7DouxYkAVS+O9vXN2Ofcu5vI/AGAFrK3lJZMvkJXOmsmQ8L8r4mLVQL5C4bzZfnbXLrAjJAHbJK9xbFFN5WtZgK2Gh83Ro9gLoy/26fZJtW53Ii1IHj2Fhswsdb/9W2AuS3qHjY55bR7OI7IxU66gZNmb7EAl1OrJeaknfFhgYBZSalk1EfqewnjRaXZWwxgb+nuaI1/qckYtAGzsvpAnee0i04CyGVvsf5qQy/Zjw7eTum098TdeCKuVh9wepo1LKcBYEQQroa7l4fpcfv2dpwOX3aARfkWueIaq6j9LJlM62+4NdrEdo6ghKwdeipPae9RUacsJtM/zjtuDRiyvT8oIcN3ntTEhQnaSJaTLZOLji1OizDCBGXLyvtjDIvDi9RtqOJy6JBn+URxW+Rmna8KtR88+ldcAwJeTbUyzwseeUmuFZ6DUhPu/Oxr9axURbkc3DAX4+cLFld0rWLMAKILm2dv4cvr53E93vvbnOCBU9W96GpPVi+C7C1lizjC+Xg2G6/2SQpu4UKr6LVKnJr1Hz83ILK31H3oHCEZHhhgHayJK/O84HmwmmVvoXwTefEvBdriQq2DlriovI2I3kIQZG+xW0SvCvm3xHI9tDAGr/pgfMyYOUNlb4FbNCbx8jL/ijFYKER5JfhMAHLZW/wWqaXz519mZbE89rv5MvfFqP24vLsUVkX1uUkZn4lkWxJkb+FmhTxqrHDxIJbpMbbEhVXRKosSMvozX15OiAM2ahEyC51XLQHGqdnAnOCtvSR7S7MWYTF2ayMvqIr2FHUbsRQHx9PcGhCbIMFduw1zGtcIUA/p6hICdBuxFEcC3hAQO4I9DM9ZLoTAPVgaH7CVIUmNcdO1AjWDA4WeOFdQU8BqSICL012ZIzwRtSfJBNppHGl5UIuS4+m09saYUdFqXQYXilYB85IuVsvlIrEv0b+TsdhAi8xi9zaresn0YAUIp8NtS0UBcbY3Eb8RAQCmtvd3ONnYrbMAwVlG0oPBFi4nwSjrZq3E1Vaev+tFeQ+jAgR3FO2raCXuOmiixJp6yHndem0Ku++3szSOYmuSATIrfC1gocg9S1MfiCie6rVEeP5wvqlspwcqQJ3K3hJqDJZvslp8qk19tRYlmNPHL7vmgNyhuitCBpjb7hsrFtrT1FqLnINCKlk26JghHeWS7C3NxmD1vZTlg/9ru6b9Fjl/cHja6/RmWyRSvPEYNPE0gS9ngT6sKqbSa9HCUVATTb5aA10J5nKnAUXZW25RUV3s3vnj/93i/LVuMNuDFVYS7+decC14zEQCasKwgN7NF3vnkYfjOy1K3Ugx9+LRdRebjo7wUxGgNHvLPYAdL/z7+bFv4mmujzYun+PPqpLDaX19bWyLdqTZW/Srbg7wXLmzxtsqypx91w2Ju0C8LyFxxeqUTD7m4Bdm7Cxh9pa7ejB/dnRQupfBflGbLQdOQ5g4mVrrEAph9hYRIH34suSusHkOVzNn3Qkozd7Cf0redlfkXaFPb4gF2woIs7fcp6KmJEeM7+JflGH/MKrXOpwiMCDnZt2Dpud77SJQKBXly22mGi4uVvu3Px7ftO4TDOwoF4gImGgvVqn954wuAzyc8gsB77joAImLOv3Zx/N16T9OQBcOFfF7Q+skIph6t+kU2q5wkwxXQs6iDVpEXAy5RZxAxO2m2k0tCgxIPP6mHgysooLsLe2MQVZcMEDc1PneHgwVGdYkewtc2gEMFZVCZW/5N1SUz97yu5cJIp7mm1Q0cOCUIHtLYFNNEE4ZsgcF2Vu+eAwGXgcF2Vu+egyG7kE2e8tvV9Eel70l0I6+6ToYErAHBgz9G+ugVoi7AAOraC+8isKt+yYVDex0oi51f1MPtjDJ/CzAdlSUSm7yxTv6ViYZEpCW0JKKBl514NQYjQBDt+grAAW5PzrNI8MCAQqjfRhAQWoMMWD84wDztBF8YoWGLQoE2DReC6KIiswYLKD+DvzWWva9dDX2ezV7LSQuz6rAvqkxoGALLvkLPkEAc8TQgIw4JQRs+FoMkD/p7uQfIWKP/Du6Gve9vlRceZE+YIt+2PeSACol+xDNqn2ZuFBv+pmA/wHhMfV3+FPiOQAAAABJRU5ErkJggg==;" parent="1" vertex="1">
          <mxGeometry x="-452" y="300" width="65" height="65" as="geometry" />
        </mxCell>
        <mxCell id="_L3SbqxIfx6lYunLBiMm-51" value="Bodega" style="shape=image;verticalLabelPosition=bottom;labelBackgroundColor=default;verticalAlign=top;aspect=fixed;imageAspect=0;image=data:image/png,iVBORw0KGgoAAAANSUhEUgAAAOEAAADhCAMAAAAJbSJIAAABJlBMVEUAAAD+/v9I0K3u7u5lbnj////+zlTt7e34+Pn09PT7+/vx8fJJ0q8eVkhN3bh8fHvOzs7/3VopeWUwJQ9xdHVNVFtaRxzBnECGeTH111cOEQ9XX2b/2FhhaXP/3lotgWylljzb29zCr0e1nkCXgjXpzVPbs0kTFRcrKysmKi7/1FY5Qku7vL2nqKlpbG9HSk0gISFcXV6VlpdOT1GhoqMsMDDFxcZM47wqUUkwQ0KHiIk2ODkABRQQGyZESU4qYlRDqpBQiX9gYmJKxaYTAAsycmI7IDRarpwbKSY7kHoaOjIiABRHZWNbx65Gu54qSUIfFxtSd3QlHAySdTBiVCJ1ZSn/6V5UQxs5LhMYEggxQUILEBVoqJ8kMS4JHhksJC0QMCipiDf7d0VBAAARzklEQVR4nO1dDXvTRhKW4m61WrmKDYZeQ2qqKy0Q7Hw4xg42BENIA7QlhdK00ON6/f9/4mZ3pZWsHcmSLdlymnke0nolr/bVzM6+M/thw/SF2DVfHBIUBSUWDYpMKyhiQQlVRaSKVdWMK4RXCK8QrrqqK4RXCNcBIQnEtnxxVFEtKKJBiRmUWCwooqqomlUZdiBUSaYiO6WoUlUZms4JUzo3g6JA51ZN2YoTFNmqyKpiVWYEYVAUqcuM1VWL1BWUYM2qUFVXCK8Q5m+WfckRgh9nQWWXESEhXm+355n2ihAifjmtrpwuXuAbGVxGnmjJAlXlaJVpOIFQ5gtVRSylyA5KbFWUVhXwD6+1ZUjZannUnruqnK1aFmsj1uZdI5StzRpZFmtTOi+RLhPitIy49C1T2tT6xxagiP5YA2gY9/o24xjXHSHg6z5G8HF53LW5za03QkK7+wn4uOyDHmvri9CCMKBzkIKPy2GHu4r1ROgws4P1P60/dpiPcc0Q2mxwiMD57B6ixwEj5SEsaTwEfHs6FO5aUMez55U3HgZQayEDVEXhG1FvMigxQwaoisKqgMDs6jDArRBKGQweiPO5NSA2VtXCrdJ5aU6Oq5FJ/rqtTaS/9T1CbcYTKMTrI9c3LRKrqohWFR9bQN2eTmCMu0DTTBsAMkDIGKlNkThfWp6PscrRE+iv9afW9C3edpsy20+IMTtKxEP5s2cLjJVFaNWI3UPsD8IloP1cgYzn+wApiBkEU9MiMFYVIYQLPWQsOGiAa7OFeQr1mcJW4aNJGs/12+/1oD9WEiHA6D/UG/xgABeozX0Mc6QzZw6Hy50OIYMH+lce9hkrqlXFIQQYA8TmpP4o1xmoD0jqsXHcpUQi5N2SkAbC6570LVYYQksbP5kqMrXxs6bGXScoEr6BsA5CYI4blAjvAv8YVfccAk3ztcj1SBuI6scDSmuLtcoXgy4q4DQI6RwjxtYlJvcpTBpklKSOOyaMHUwaL4DoIhj3OoQt3DiQxVkbgMDw7fUZ8R2LCSCczjSIh53AscIfUG8f4XjHg0pkMWBgQ+zT6Dp8gODmCaoCp6kDOPSgUuFYTd4fnS5Sy66nOtuKYguShI8nfgGfGBjAYd5C7hFUlAgtyv5IMFd84DG6QoScYOvEZGtkEe46JYUxURKudATPDXwRjPObSG27HuMzAatACOMyQkANwGdyB8INFAKJBnZPKC2LuyP+MoTHsjCa02qAj1wBQiAwemP2W8DGRMcSggcZ0zriIQV4JEe8FvCwLSS0AtpnLxchjECsdx952x4RnFMwT6hylJaFUm9lZHNaDh7JEbQAC03u98wgtFoAoZUVIQ8AMWvabRDBryn3HQQn1k//8xQpHcnQEcIr8E1g2VjP7fnhYzYPjyA0Qx2qIsWBpiJtx7RHmNdrMNFM4UApqfUQ/X1647rum0/6hf1+jQhmIJYYEBOjcg+74JZZUquk6PF/bQ7WhmbQDgbgMUQTudMgZhex4aPJ0N3YqLvDyZF+8X7XJJKOc55gkgGGsQPWl5u1hTpXbySZ4/IAsIMxLKE/GUKI0Rt5B0cTt74hpe5iGMfAEij1zQBoDsISAGNoYaXEFibBCPbjDuXjOxU+n7NMpGn/nbjuRiiuO0FsdQ+YAu+M8lUR2kGycjyDXBZCi9odJMDlzRKkhHtQTmAQ/f01GdY3pqU+nPyF6HEgB1OBkeAva9wgMtVRNEKbeUjX8E1LshJG0Hu2np24G7q4J890CsNpGvG1SIXBI51iV2SsCkVoQ89FXfiICYImkzB4VsK4XXfjCgy6Y/02cv/zhu+0mAw7EgYmkm1ZRzaEJmXeDf0x+zBEUdMOkqAMc/F3T5Pw+RhPkaxiMPBIFgDkCRl4bljh1P7CCMEvowTUI9I6oQM6JjbNCwP8SQo+2R1PEArwuOUQvzNyVaLkYX9ElRYXymKYCeQE6icOYzITwdB7XpzWh6nwpAzrpy8S3h/QHEck5ghF2+CZzuzxcMaKCJpgIx6RwZEYvUB/yD2ns/QX2urJKaKjls2TBCJNwp10Uj+ZtXRD56XROMVCAwhBQKURyQwads+1E22ASLXVa0gdPSbGIZnPMRPoqshiBP2K6WNlamzB7BFCvnjYKvsfeBl4DV3dV7w4P8uov1CPZ+e6rd7tWkTQccEDiIkF02OxGCBAqHxjBoRJ4+1AvFfJz2CAxwjaD5Oc+LgAzfkBa79IiPgZO4byCeAcLD9C8J8dvS7OmZiKHxLSR6/PhtgAnwHj8Ow1Up/gFEykc0TiEuWNNqvhC1eSEIJB4LyXSPpJhf6wFODLV2kDYLrAN1+91KscD0yJUbptlPuPOzyGyowQT7WPu34al5soKBmbxn75yp1Pfwqji2Hc47GZYE7c75hJ8ZudDSEM/Xj8STkplqk/ZtIGkgV+vYD+onpEbPW4QU0ZO4r8j43RVU6FUhFa/liBE1AgOLbDVIYQWyYzWRyfj3GCUIADD96wyKILjo/nUYKJ8uhoEZ1/4D0Z6388D8RkYAr/gOQgU2I/vprTv2DiDl/9iLTf4zTYluYKFpWQCzMjcEBirM1uId/iGd7gLfBlFtgU/E9ZCUw2AZrzk/4QkXmkgsmJXJA1QjLILYc5CVmMhHzspieJBfcxJk6Cjac/5yAwGTEOf07IyhHBpsQYmZiTtvXYAvpfDXsjPNik/hwRY+jyAuOoWP0pjO4Jks3Zaok5Azll5yTNK3gkhhDYOcW80yFfYkAla+Lztcg7MM7nITDZxB1OzvUHjkfw0vmgJUJTljg3RCIIncS5LTOYgOAZUGyZz9M3hdtnVOrDN5it9mvC50hTBYxYagGoEJEILQiXMHLyAAgo9SmaWKqFjLLnb0rTn8LovsH02Lf99TlicQ7DFjzs9cUeMMOi6Oh53PH1J2IXsGEksfdFefY5jXHyhf7wxx0SpGgpp1jYPLTIPBoUG9zEWgLBAkVylmIE7dOzpeCTGJ8hNGc84Is6fJ9DE9ZKeMSwdAU+6TOe7PKnLgm6zvfHRQjaSX6IdYwCHIChmVTmkCkwScRRjB1Di88f9nlkTQPmwDCW+/K0QAKTTdzhKRZ2gLExRy63ApfD+lrKumXEOIxYcwXORc7B49P0W9c2lmagodTdjWvIYHVoCQpAZQJZX3cWN9GeTYIZJJ6hwCYrX9xeBT4uEJjdRii5pKK2nChn+NpBX/5sOURm1Llp4+t8XxauvzydkusRsdVdP3MrepZNHGT9Z/guREJETLHUsCn4a+UQtDwY0azcpiMGb9OfXcBszzBg7JDLIsUUoIfo+sVRvgA+t8vMJkDJEVvtW4QGHID7fxRh2GFtbJ3ox/IJTDYBmvNRb9494UN8upqAkNkBPiSD/dO8GbQyxB2eIVRuX/pJ0ccSdAihZYL+cgYQJdlnRFwXCzu4HiXDSUDIp3A7CEH7ZbJYBi2HZH83gPEXvaliojzRSoEBDZ7oF15PKmSfUYHwEaGrT4CuJumQYtz106ReTXxc3Dq24IHHDRjCBpYB/d+CGd7SxXUxSr7XwBadIwT7/lt3NQNEHk/l1t8i+cEs2wJBis+glSH14c/Z4CBSOL6TyN/ipF5fOcKSh8cKICxbLj3CvDo8DLMd64ewi2WHp2W3QRooQheXYUJ5tss5btIkClG12Ju1cn5vAPEHhrDuvv2iWvI2HKnrUYTEjG8hj2QK73cZsywbQVg/wZYQrFZen9QxhHwNySBCAZ4bCs/YX8+AIkQilZXLedg8VdaQi90jKdCBYcp0BV+vIQ9TQRDWz5bY8OxyVtcQesFaIMdfX9zje9e80fPNbrhaE+mH7qultz6L3HYxK/VXKph2d/P5yCN87xqBcIqEazEwhFh6a/WSitCyqUmZjZ0agVhpxRFOWam+/zCYx1f7M5DxcH0QNoLNJWmnRqwPwmu6lTb8Bc6pp0akIrw72ly1jNRaF1SHvr+cG+E9snq5VzJCKs9D4NvPg2U2y/1YOkLbz4zLmR42z0d7ge9iCJF+uAhCOd9K/I10wUx46kfTTrA3vnNU3kf9BesZPoYIr5VkpXIuUm6IDF6ygIF/FIteB5sPNDneHMj18NSfU2dKuQkfJcjcVqrvt5ipQ7UNIXy1bPpNBx+FTRKWdKLZARMTfmJXLaPB3KzcB+fvRIx+lK9jlpVq+y3ihyzY5gyE8r3KnU40WDIsp8bVrjN5Ao2/dwnduCRlFCwWkdXZ/lYgsRTYf4Dfbf3K+bRSGkJPbbJWkpO13ePr3Pi2DconB/hSVgb0z5RHI1FT/odfBeZLxAdKvESAnGXJquS35XdlLUyWqkrD+lKtNECTdmpEKsKHc4xf2BRCIJ056lOrKxBPE2HeyCroSxZb/JMRrnX01Lj0CC+ZDpHoKR2hH1mtXz9EdJh6asSlQJh+asQ6I2xQnbXlY96VklKip3f/1uRXdfuN4kTV+av+wHfBtVKip+vtnc+npf2luv2z4kTV+WUz9ryd9vW4DotFGH/g59slI9yOP7CpISzUSnWEzUuPcGfZCLeXbaUr1GFGT5NvPKxAP9R1WE8fD7VTI1jFEab2Q4/MPjUiPYtRAYTp/TDLqRE5ES69H6aOh4tHT5XypbmjpyyxRQWsVO+HhWaiLgXCqvfDpSOsAKfJm8VYH4QpGeGUUyPs9HmLyvdDMw4nfmrETNamxYdl98MM8eEM1paTeV+0m9Ny8Xe5CC9iz2vvqBi/lOjJuK7JB3XtrpL9G3OgurEfVqDqfKc9TwEsJ3rKLOPcADPukIhIKXma7JJXi8h5c7OkHCvNLPdzIkT2vVQc4datXABvIRvRsyJckZVWB2FZWf0lIMRW7iHjofq/gteXrkaH2PrSfNFT9REuGlu8+wbkvfp055u4/LYwwt+0Ou+oQf49fPpb4zTFRk/t7Z2LO+rTd9s703Lx7cIIv23H6mx+pZjonfZOM5WXFhMfNiMItUijAIRaNPFdiLA5KyNcSBZjxQhTs4nF5Gkqo8PLb6UZEeYbDyuAcIaV6uOhivaD8H/mzExldIhGT3E4NOd+iwogTJ97Wni/RQUQLmEOuHIIC58DrpyVXjaEuqe5bFb6T9JhboRrMlpkQhgdLbSfhqg6whnjofYjHXlZW3vlCNvp0dOiWYzr2+1mNAJuT0uzkAg4LhGEF812ydGT8fvNm+//CD58uBmX97+rO/fvBzJOyn/fGKt7wjPw/niv1fohei18QpV2IxyjAJGTt3JJlRCisxiLAqzWfot9BGGW37dMlWrte/paA/j1wnVWa9/TChGWldWPSZkIq3FqxJIQrvDUiDIQlnJqxId/aaJmMYxftWtqFiMV4W/a98I9HO/1B6rxv5zo6aK5PS0X4Xqatnbt+0wIv2/Hvte+UNe+vIhda16scL9FM76aaDsjQn1lV4hw9Wv1d1IQ7syJcKeZgjB9TVS5uxGWrcNy9j3lstJSdJg7i1HgfotVISz01IhKWWkpp0Ysx9Ms4EuzZDHmX+ddmA4zWmkp0dNy+uECVrouCOf2NCXvRqgCpyl3N8KqOM3ydpSsitMUempEJfthoadGrAvC+U+N4PMWsQdGEGroC0CoVZo+b4Gwtgjz5sTGtqM69MW9rRBufxWTyIkDO/FrX0UQcohTf26FCLXv7YQI2/FrUV8aNDBEyHfHmtTBsxiE9FqHBwcH4WHRTz8eHZ0/enR0pH7uZEubU7ipZjEM/Vp0FuMhn56I/AkXlP6uf1Fd+0O/pr74y9HRo0fnR0cfwx+BFO1v9RjyO6Q1K8K4118a6sedQ4QOWTjLXiHZZ7oOKfZLpOsrXf3Xckny2X/rKD1dhymnG66jjPQshp12+N/6SXhcYXhqBEF+cXVt5QFDTo1g1hzbxyoqLYthzJtSb9S6DDJqJJyLYdXkoiFTmbCpLFgJy1W0sqpS40PLCdwQqfm3RVhe8EVLkQZVl0UiL6syVSEIa5G6Qs6ar1kVquoK4eVCmGLxagY8UpeWL8jWeZZdFXJqRGSrgl6SrahSVSFZDKaKlIdWswA15aAdS8sXVLMqff7QVHTAUhYc6lzZihOUKJ9NrCpWhcyQVqFZVwivEF4hXH2zrhBeIYwi/D+QhLzABlpMWwAAAABJRU5ErkJggg==;" parent="1" vertex="1">
          <mxGeometry x="-322" y="302.5" width="65" height="65" as="geometry" />
        </mxCell>
        <mxCell id="_L3SbqxIfx6lYunLBiMm-52" value="Paquetes" style="shape=image;verticalLabelPosition=bottom;labelBackgroundColor=default;verticalAlign=top;aspect=fixed;imageAspect=0;image=data:image/png,iVBORw0KGgoAAAANSUhEUgAAAOEAAADhCAMAAAAJbSJIAAAAhFBMVEX///8AAAD6+vqDg4OZmZnp6enk5OSmpqbw8PD09PTe3t5ERET39/fl5eX7+/urq6uWlpazs7M/Pz9LS0tSUlKfn5+Li4u5ublWVlY2NjbAwMBgYGBpaWnQ0NDY2NhcXFxtbW0nJyd7e3sYGBgfHx8LCws4ODguLi58fHyHh4ccHBwUFBRZbbv7AAAMAUlEQVR4nO1d53rqOhA0hA6hd2LAJKGE93+/Q8daJGtWxcD5PP/OvZGlQW01u1oFQVrI5+LIp1ZvesgYvj8yhu+PjOH7I2P4/sgYvj8yhi+GRo1dxJZhrcouYoFRbsMuY8twk+uwy5girB+aWOaWsmRYPhTqhtxSRiguz22sMMvZMayciy2LzHIGaF/buGIWtGO4vRZsMwtyMY01krnYWDGsxYpOeUVZmPfjjezzClsxFCv2Nx1/hEbmRqzCNgynYsU/rMIWFW2anMIWDJsbsWKP43Qm1sSa9RYMC2K1M16jWaiJVbF2DHOGFVIr355i4EOsa8koas5wKVb6wWsyE2Izc7m5aVEGwzmp07PR3hJrq+MljRnWxSpb/EbzsBbrw61hU4YdscK1SaNZCMUKf+CmGjLMk004BeP7S6xxiJYzZDgUq/syazQLn2KVOdTaN2NYJLV9mjabA/KrovuvGUNiY8Ajxg7kZwVnhhFDMutz5o1mYSTWCq5uRgzJys2z9S3QE+vFdigThmT37dk0mgUydn4bSCEDho1fsaJ0ZJoTiKW4RcoYMNyK1SxtmswEtfZLQBk+wxKphat9WaEt1r0AivAZLsRKfGtQBN9i7cCpm82QKArf9o1mgS9ocBmmKF3IMRbrH2gLcBkOxArGLhrNAj2Xav0mTIZV8n3GWdsVVmILtBI4kyH38x7Q4P7IjTh0f0yHCGRUuEZZbANTAtegL35cP829gCx2Ls1iYtzzvZVuQHaMyJ0Ilo/ET6e+U1xhI4EngphMPkXuZPgyHE3MXk8gErgrmShVkTsZTfJju/EoUO8Iy8XlGoJcO3blMqkJp4r0QjCk6N4a8uNywZtGt+92HX7WBDdBo+D4wzfDO0XpQo6zBL5yf/6urJyuXuY4itI9P4b//KjppRBAo8PQo4o5SkvkTobPxfzlQxgzZMiQIUMGPvLhbvMRPkU3SwXhx1m7irZPt6Z9IPyIB8b8rf4vks2QyB0nbMOnHt7doRFu/yT8jtivwlSviXhBuNoo6J0RLZ+mhbpAuE1kd8XqPUk2pHNPTfLNtpBGuIoY/I74W77RnJwuf/SMJPj+eovhOl3pqSRgOX3pLaRqSe9KMtXAGRz56cpscD5iv3zBhWe6/NW3nIOXmpON6VLf4hP+DtMM7+qv0UusrlWY3vd17OVDBsknz8nm9Etlc1KspvEOOWyYYLn9bPS8OTn90jfwDKnxCZPMzUZP2ELwwRklHAXDbYT+RukO18roa481bL/VaBb58AMlmdqcbI4W6MawChG/g/x8LEXf/5xsjGb6dpzwzdIpwi26uo47HkkeBifYjMPcY68N4Tb5rHzHrOPFqVgdzcDBuTfVCxvzIdqTs47jOYkPztyHnYg2H+qrOGPccWbxVDoLfX0nuBFCwx06XPstBz1Z7KC9t/lwpw6GuwlY66JlNScbnbG+jhP2O2hjwNGcD8Et99CT5qtrX//5I/52fgRseOExDt7t6L+dy012PmPM58O1vgnGgWEV/TCJhnPvNvF8qJ+Te7MVR2v6D9O6IVBr67Zio1B+en1TxGaYrvNI15MmrYmSPphGNiOCSuKYivgf1NkWY7uNiAm91cEOD6NxujJ0y+kc2Kqtnr4x7Phk5JsH9Mq+e7LYAq0O5iXhlv6LV4zL/kLpiy3UJM4xU4LQi2Ma1L3MyUoHHEhXcM4asIh2w9rxnKy06vpKCRgXT6b6r0nQL7hKWlEcoBa/CNgRQG8dLQtd6Qcf0SvbX0golUGDPzcpEEUzQg8ZdCs8jL9SAdUX1gObOVkpo4Pzt334MavEmgM3RXq58WK4lwqQmX/AZGA2XItldKxM2pexQo8/mKVMiMSuGNcG6OrWG3C3EHxw1tsxHmTCTpCqyNVQkvOmNECHUX2Az8lSGf3p1m3xp6P5gIC0qjSpz+OlwuIAFVGiAtKT+Pc2ktWaXFUE7mcQ4Une7XhPTtrJJEsDdO51C/IxQX4e7aZIt0LluasEz8l6WzVc8XldV9ALHs+xmvstTbL8Jp6di3BPriUN/IR7b5K8bJFz42+yrkL+eq/bQvH960+Yk58DVPXtavfXBtGTEnuF2eMnMGyQ4bkna23YRoLWY3hmBfH7kieg2TaK8GLfHYZttNd7sHVENsWEO5kknQjnZlwFtkcwbDhHa7rDKTMw0MvnzKTkRUhsQFAvM80+aqWoVibSQEbmzjtJxplcASPNgIx8haJBclEYZoSBdRUpTHUfelqQLpFUuTC/549pY4+oW+gENNhBpmjQrdC4siP4Pdm3VO30myLdCq1DAzlzcmwvSuo3RWJjOLkkXoU8rD03UQdEPXtIaSNRLpwgryHZdxZvQBOiEEWDboUuEy6rQwEsnfAEVMUWNx2y+LnORVGVWWp11/GxxKoSNkVK33Ved7kv0rUHknqTYgORDmHXWTzosxEXOH/EgbwwEFtMqIjvdn6ofZFuU0I8zvfbhiAbQ07CjS5Q+yLdzQb5xnSZB01FzEWv5WgpUNtwjhIDK/fd/VnR2Ckb4MLWSPZFOtiViq2EuLTd8S+oWU7Qb1l6lJJ9kZbDRGv/Hg9IelGhazUnk32RNtZhFXCh1h+Px4o/ND7Y6HyRphZ+BTyiDQJYGBpzpYUTGpHms7DPL45iGT23dI9eiVIb9RvwPUrasJzLYsDBJ3z2jO5qe6kQgYUmPAcoEpbD2hRxTe+POhNwmbbLcIAiTlXI53cCrsuu5VGFNYZYiw1XKsDKgSWY/YS1dQW9M0oFdE4iPUmVWhX0A78I+0cipafr/rEB6q/f6HoSDYLX+Pxw//4GcskGR78e+ot1k34xKsCqkeABcuGnVHwY9terPkzf90qCItAfd6GqPMSJwLM+bKRzknNzXebz+4T9+6byNSevhSQo4cEXmfCvR0UDD19Ii2HuYbiS1WEhPjFEH68QnuPB5166DHPCTvToixT++bCT3LQh3PSIwQHDGXM/opE8g4eXA6SRSbj5uBYGgQOGg4NNgQ6dI8lHX+TD2wgPPr8aHDl3tKmEQeKA4WkQlcqoVU+bOpcwpOICSq9/NjQE6dAVwwA/eIo4Ppf0+L4FlmNJRPemHPliGJg4QE+P4Ehe8PhW/L0KgtLgkWHAdoBOFQxZ0dZ9ojH4ZcgjeVabZK+woHkZZB5i7wwDfE5WlAypw0QOudaXBsMAuwV9UX2lL+nob670VT6UlBgG+rvQV1+k/K2gZPslyUWUHsPgKM0m9OTVWJUzTJCqNM6hVBkGx2vfChXlFkWteO+JRjFf0NP699NmGBzTZkh6cnKLZ1UwbEpOSWMk8cUTGAbHOUnX/7tor3qzi54jv8C8Hs9hGNAUGsv7/1C+Shb/URjJLp7G8Ih7GpSYU0LJ8Pa82bjDycvwVIa3VDbxTADql+VOV3vYSWeezDA4JbQRoqgT3s5bmKSbeT5DCtPX41XIGALIGDKRMeQiYwggY8hExpCLjCGAjCETGUMuMoYAMoZMvDpD+7B61wyHjhnaZy9zypD6hRxFKthFQ7tjKIl+dheLYZG9zBHDYksmrjuNNjEIFD7BBcNPVSCB63iauglJa4ZJ8bMeIoaY0dCBLUNN9LOfmKgeLx2UBcOiNjzYW9QXlpnjDFOGUGYRM4ZYuIsmeYwlw2IZiyPaGjEcoUFKEZRsj8+QkUDK9OHsWsFhBDKTobfoZ4uKNHHIHIZ4rYmB5ijQuaAJ3ocZci4LOLvNy4u8tGGIX/gwMjuSgKeD6g6lJAGGnEs7ri/Un4BnL5tIelLHEI+ftUuvqYHF1bFEht4uz5lAfnyRNkYgqWZYY2SA9ZeVmZBEIy+79+B9BcM5PPdogKln4JmMfy4kZQxr7Qj8ytp74nApSTga+kRS+C8neuirdPVn0DsDH66TnRiaDz7NkfObER0C/pKQCfoppe7XALn5b4K6uxed7FGBXxVCoYx+fh7wl6H0cJ0gxxnc9GTPYWocD8hbLjx9V0lxfKKCP0NHsPDz7J8P4C8l3uH8wT/faMji2pVwl3ovVeTBRyEdvmSYPg7DVUMSDc1/YSS9HPwiL287gPT158UzXmr2h8b0K35j9Hf23/ReDJXbcE35Ceo00ZiuflfTdN9K/wezHbFxMnFpeAAAAABJRU5ErkJggg==;" parent="1" vertex="1">
          <mxGeometry x="-192" y="299.5" width="65" height="65" as="geometry" />
        </mxCell>
        <mxCell id="_L3SbqxIfx6lYunLBiMm-53" value="Mis Paquetes" style="shape=image;verticalLabelPosition=bottom;labelBackgroundColor=default;verticalAlign=top;aspect=fixed;imageAspect=0;image=data:image/png,iVBORw0KGgoAAAANSUhEUgAAAOEAAADhCAMAAAAJbSJIAAAAhFBMVEX///8AAAD6+vqDg4OZmZnp6enk5OSmpqbw8PD09PTe3t5ERET39/fl5eX7+/urq6uWlpazs7M/Pz9LS0tSUlKfn5+Li4u5ublWVlY2NjbAwMBgYGBpaWnQ0NDY2NhcXFxtbW0nJyd7e3sYGBgfHx8LCws4ODguLi58fHyHh4ccHBwUFBRZbbv7AAAMAUlEQVR4nO1d53rqOhA0hA6hd2LAJKGE93+/Q8daJGtWxcD5PP/OvZGlQW01u1oFQVrI5+LIp1ZvesgYvj8yhu+PjOH7I2P4/sgYvj8yhi+GRo1dxJZhrcouYoFRbsMuY8twk+uwy5girB+aWOaWsmRYPhTqhtxSRiguz22sMMvZMayciy2LzHIGaF/buGIWtGO4vRZsMwtyMY01krnYWDGsxYpOeUVZmPfjjezzClsxFCv2Nx1/hEbmRqzCNgynYsU/rMIWFW2anMIWDJsbsWKP43Qm1sSa9RYMC2K1M16jWaiJVbF2DHOGFVIr355i4EOsa8koas5wKVb6wWsyE2Izc7m5aVEGwzmp07PR3hJrq+MljRnWxSpb/EbzsBbrw61hU4YdscK1SaNZCMUKf+CmGjLMk004BeP7S6xxiJYzZDgUq/syazQLn2KVOdTaN2NYJLV9mjabA/KrovuvGUNiY8Ajxg7kZwVnhhFDMutz5o1mYSTWCq5uRgzJys2z9S3QE+vFdigThmT37dk0mgUydn4bSCEDho1fsaJ0ZJoTiKW4RcoYMNyK1SxtmswEtfZLQBk+wxKphat9WaEt1r0AivAZLsRKfGtQBN9i7cCpm82QKArf9o1mgS9ocBmmKF3IMRbrH2gLcBkOxArGLhrNAj2Xav0mTIZV8n3GWdsVVmILtBI4kyH38x7Q4P7IjTh0f0yHCGRUuEZZbANTAtegL35cP829gCx2Ls1iYtzzvZVuQHaMyJ0Ilo/ET6e+U1xhI4EngphMPkXuZPgyHE3MXk8gErgrmShVkTsZTfJju/EoUO8Iy8XlGoJcO3blMqkJp4r0QjCk6N4a8uNywZtGt+92HX7WBDdBo+D4wzfDO0XpQo6zBL5yf/6urJyuXuY4itI9P4b//KjppRBAo8PQo4o5SkvkTobPxfzlQxgzZMiQIUMGPvLhbvMRPkU3SwXhx1m7irZPt6Z9IPyIB8b8rf4vks2QyB0nbMOnHt7doRFu/yT8jtivwlSviXhBuNoo6J0RLZ+mhbpAuE1kd8XqPUk2pHNPTfLNtpBGuIoY/I74W77RnJwuf/SMJPj+eovhOl3pqSRgOX3pLaRqSe9KMtXAGRz56cpscD5iv3zBhWe6/NW3nIOXmpON6VLf4hP+DtMM7+qv0UusrlWY3vd17OVDBsknz8nm9Etlc1KspvEOOWyYYLn9bPS8OTn90jfwDKnxCZPMzUZP2ELwwRklHAXDbYT+RukO18roa481bL/VaBb58AMlmdqcbI4W6MawChG/g/x8LEXf/5xsjGb6dpzwzdIpwi26uo47HkkeBifYjMPcY68N4Tb5rHzHrOPFqVgdzcDBuTfVCxvzIdqTs47jOYkPztyHnYg2H+qrOGPccWbxVDoLfX0nuBFCwx06XPstBz1Z7KC9t/lwpw6GuwlY66JlNScbnbG+jhP2O2hjwNGcD8Et99CT5qtrX//5I/52fgRseOExDt7t6L+dy012PmPM58O1vgnGgWEV/TCJhnPvNvF8qJ+Te7MVR2v6D9O6IVBr67Zio1B+en1TxGaYrvNI15MmrYmSPphGNiOCSuKYivgf1NkWY7uNiAm91cEOD6NxujJ0y+kc2Kqtnr4x7Phk5JsH9Mq+e7LYAq0O5iXhlv6LV4zL/kLpiy3UJM4xU4LQi2Ma1L3MyUoHHEhXcM4asIh2w9rxnKy06vpKCRgXT6b6r0nQL7hKWlEcoBa/CNgRQG8dLQtd6Qcf0SvbX0golUGDPzcpEEUzQg8ZdCs8jL9SAdUX1gObOVkpo4Pzt334MavEmgM3RXq58WK4lwqQmX/AZGA2XItldKxM2pexQo8/mKVMiMSuGNcG6OrWG3C3EHxw1tsxHmTCTpCqyNVQkvOmNECHUX2Az8lSGf3p1m3xp6P5gIC0qjSpz+OlwuIAFVGiAtKT+Pc2ktWaXFUE7mcQ4Une7XhPTtrJJEsDdO51C/IxQX4e7aZIt0LluasEz8l6WzVc8XldV9ALHs+xmvstTbL8Jp6di3BPriUN/IR7b5K8bJFz42+yrkL+eq/bQvH960+Yk58DVPXtavfXBtGTEnuF2eMnMGyQ4bkna23YRoLWY3hmBfH7kieg2TaK8GLfHYZttNd7sHVENsWEO5kknQjnZlwFtkcwbDhHa7rDKTMw0MvnzKTkRUhsQFAvM80+aqWoVibSQEbmzjtJxplcASPNgIx8haJBclEYZoSBdRUpTHUfelqQLpFUuTC/549pY4+oW+gENNhBpmjQrdC4siP4Pdm3VO30myLdCq1DAzlzcmwvSuo3RWJjOLkkXoU8rD03UQdEPXtIaSNRLpwgryHZdxZvQBOiEEWDboUuEy6rQwEsnfAEVMUWNx2y+LnORVGVWWp11/GxxKoSNkVK33Ved7kv0rUHknqTYgORDmHXWTzosxEXOH/EgbwwEFtMqIjvdn6ofZFuU0I8zvfbhiAbQ07CjS5Q+yLdzQb5xnSZB01FzEWv5WgpUNtwjhIDK/fd/VnR2Ckb4MLWSPZFOtiViq2EuLTd8S+oWU7Qb1l6lJJ9kZbDRGv/Hg9IelGhazUnk32RNtZhFXCh1h+Px4o/ND7Y6HyRphZ+BTyiDQJYGBpzpYUTGpHms7DPL45iGT23dI9eiVIb9RvwPUrasJzLYsDBJ3z2jO5qe6kQgYUmPAcoEpbD2hRxTe+POhNwmbbLcIAiTlXI53cCrsuu5VGFNYZYiw1XKsDKgSWY/YS1dQW9M0oFdE4iPUmVWhX0A78I+0cipafr/rEB6q/f6HoSDYLX+Pxw//4GcskGR78e+ot1k34xKsCqkeABcuGnVHwY9terPkzf90qCItAfd6GqPMSJwLM+bKRzknNzXebz+4T9+6byNSevhSQo4cEXmfCvR0UDD19Ii2HuYbiS1WEhPjFEH68QnuPB5166DHPCTvToixT++bCT3LQh3PSIwQHDGXM/opE8g4eXA6SRSbj5uBYGgQOGg4NNgQ6dI8lHX+TD2wgPPr8aHDl3tKmEQeKA4WkQlcqoVU+bOpcwpOICSq9/NjQE6dAVwwA/eIo4Ppf0+L4FlmNJRPemHPliGJg4QE+P4Ehe8PhW/L0KgtLgkWHAdoBOFQxZ0dZ9ojH4ZcgjeVabZK+woHkZZB5i7wwDfE5WlAypw0QOudaXBsMAuwV9UX2lL+nob670VT6UlBgG+rvQV1+k/K2gZPslyUWUHsPgKM0m9OTVWJUzTJCqNM6hVBkGx2vfChXlFkWteO+JRjFf0NP699NmGBzTZkh6cnKLZ1UwbEpOSWMk8cUTGAbHOUnX/7tor3qzi54jv8C8Hs9hGNAUGsv7/1C+Shb/URjJLp7G8Ih7GpSYU0LJ8Pa82bjDycvwVIa3VDbxTADql+VOV3vYSWeezDA4JbQRoqgT3s5bmKSbeT5DCtPX41XIGALIGDKRMeQiYwggY8hExpCLjCGAjCETGUMuMoYAMoZMvDpD+7B61wyHjhnaZy9zypD6hRxFKthFQ7tjKIl+dheLYZG9zBHDYksmrjuNNjEIFD7BBcNPVSCB63iauglJa4ZJ8bMeIoaY0dCBLUNN9LOfmKgeLx2UBcOiNjzYW9QXlpnjDFOGUGYRM4ZYuIsmeYwlw2IZiyPaGjEcoUFKEZRsj8+QkUDK9OHsWsFhBDKTobfoZ4uKNHHIHIZ4rYmB5ijQuaAJ3ocZci4LOLvNy4u8tGGIX/gwMjuSgKeD6g6lJAGGnEs7ri/Un4BnL5tIelLHEI+ftUuvqYHF1bFEht4uz5lAfnyRNkYgqWZYY2SA9ZeVmZBEIy+79+B9BcM5PPdogKln4JmMfy4kZQxr7Qj8ytp74nApSTga+kRS+C8neuirdPVn0DsDH66TnRiaDz7NkfObER0C/pKQCfoppe7XALn5b4K6uxed7FGBXxVCoYx+fh7wl6H0cJ0gxxnc9GTPYWocD8hbLjx9V0lxfKKCP0NHsPDz7J8P4C8l3uH8wT/faMji2pVwl3ovVeTBRyEdvmSYPg7DVUMSDc1/YSS9HPwiL287gPT158UzXmr2h8b0K35j9Hf23/ReDJXbcE35Ceo00ZiuflfTdN9K/wezHbFxMnFpeAAAAABJRU5ErkJggg==;" parent="1" vertex="1">
          <mxGeometry x="-82" y="300" width="65" height="65" as="geometry" />
        </mxCell>
        <mxCell id="_L3SbqxIfx6lYunLBiMm-54" value="Paquetes" style="html=1;outlineConnect=0;whiteSpace=wrap;fillColor=#dae8fc;shape=mxgraph.archimate3.application;archiType=rounded;strokeColor=#6c8ebf;" parent="1" vertex="1">
          <mxGeometry x="-582" y="250" width="580" height="40" as="geometry" />
        </mxCell>
        <mxCell id="_L3SbqxIfx6lYunLBiMm-55" value="Administrar" style="html=1;outlineConnect=0;whiteSpace=wrap;fillColor=#d5e8d4;shape=mxgraph.archimate3.application;archiType=rounded;strokeColor=#82b366;" parent="1" vertex="1">
          <mxGeometry x="-579.5" y="400" width="580" height="40" as="geometry" />
        </mxCell>
        <mxCell id="_L3SbqxIfx6lYunLBiMm-56" value="Nuevo Casillero" style="shape=image;html=1;verticalAlign=top;verticalLabelPosition=bottom;labelBackgroundColor=#ffffff;imageAspect=0;aspect=fixed;image=https://cdn4.iconfinder.com/data/icons/dot/128/locker_bagage_key.png" parent="1" vertex="1">
          <mxGeometry x="-579.5" y="453.5" width="78" height="78" as="geometry" />
        </mxCell>
        <mxCell id="_L3SbqxIfx6lYunLBiMm-57" value="Transporte" style="html=1;outlineConnect=0;whiteSpace=wrap;fillColor=#e1d5e7;shape=mxgraph.archimate3.application;archiType=rounded;strokeColor=#9673a6;" parent="1" vertex="1">
          <mxGeometry x="-579.5" y="560" width="580" height="40" as="geometry" />
        </mxCell>
        <mxCell id="_L3SbqxIfx6lYunLBiMm-58" value="Casilleros" style="shape=image;html=1;verticalAlign=top;verticalLabelPosition=bottom;labelBackgroundColor=#ffffff;imageAspect=0;aspect=fixed;image=https://cdn0.iconfinder.com/data/icons/education-1006/32/locker_door_school_metal_storage_safety_lock_box_locker_room_cabinet-128.png" parent="1" vertex="1">
          <mxGeometry x="-472" y="470" width="61.5" height="61.5" as="geometry" />
        </mxCell>
        <mxCell id="_L3SbqxIfx6lYunLBiMm-59" value="&lt;span style=&quot;white-space: pre;&quot;&gt; &lt;/span&gt;Envios" style="sketch=0;pointerEvents=1;shadow=0;dashed=0;html=1;strokeColor=none;fillColor=#005F4B;labelPosition=center;verticalLabelPosition=bottom;verticalAlign=top;align=center;outlineConnect=0;shape=mxgraph.veeam2.transport;" parent="1" vertex="1">
          <mxGeometry x="-582" y="620" width="74" height="40" as="geometry" />
        </mxCell>
        <mxCell id="_L3SbqxIfx6lYunLBiMm-60" value="Facturacion" style="html=1;outlineConnect=0;whiteSpace=wrap;fillColor=#ffe6cc;shape=mxgraph.archimate3.application;archiType=rounded;strokeColor=#d79b00;" parent="1" vertex="1">
          <mxGeometry x="-579.5" y="690" width="580" height="40" as="geometry" />
        </mxCell>
        <mxCell id="_L3SbqxIfx6lYunLBiMm-61" value="Facturas" style="shape=image;html=1;verticalAlign=top;verticalLabelPosition=bottom;labelBackgroundColor=#ffffff;imageAspect=0;aspect=fixed;image=https://cdn0.iconfinder.com/data/icons/elasto-online-store/26/00-ELASTOFONT-STORE-READY_invoice-128.png" parent="1" vertex="1">
          <mxGeometry x="-579.5" y="750" width="78" height="78" as="geometry" />
        </mxCell>
        <mxCell id="_L3SbqxIfx6lYunLBiMm-62" value="Login" style="shape=image;verticalLabelPosition=bottom;labelBackgroundColor=#ffffff;verticalAlign=top;aspect=fixed;imageAspect=0;image=data:image/svg+xml,PHN2ZyB4bWxuczpjYz0iaHR0cDovL2NyZWF0aXZlY29tbW9ucy5vcmcvbnMjIiB4bWxuczpkYz0iaHR0cDovL3B1cmwub3JnL2RjL2VsZW1lbnRzLzEuMS8iIHhtbG5zOmlua3NjYXBlPSJodHRwOi8vd3d3Lmlua3NjYXBlLm9yZy9uYW1lc3BhY2VzL2lua3NjYXBlIiB4bWxuczpyZGY9Imh0dHA6Ly93d3cudzMub3JnLzE5OTkvMDIvMjItcmRmLXN5bnRheC1ucyMiIHhtbG5zOnNvZGlwb2RpPSJodHRwOi8vc29kaXBvZGkuc291cmNlZm9yZ2UubmV0L0RURC9zb2RpcG9kaS0wLmR0ZCIgeG1sbnM6c3ZnPSJodHRwOi8vd3d3LnczLm9yZy8yMDAwL3N2ZyIgeG1sbnM9Imh0dHA6Ly93d3cudzMub3JnLzIwMDAvc3ZnIiB4bWxuczp4bGluaz0iaHR0cDovL3d3dy53My5vcmcvMTk5OS94bGluayIgdmVyc2lvbj0iMS4xIiBpZD0ic3ZnODkyNjkiIGlua3NjYXBlOnZlcnNpb249IjAuOTIuMyAoMjQwNTU0NiwgMjAxOC0wMy0xMSkiIHNvZGlwb2RpOmRvY25hbWU9ImxvZ2luLnN2ZyIgeD0iMHB4IiB5PSIwcHgiIHZpZXdCb3g9IjAgMCA0OC4yMyA1OS4xNCIgc3R5bGU9ImVuYWJsZS1iYWNrZ3JvdW5kOm5ldyAwIDAgNDguMjMgNTkuMTQ7IiB4bWw6c3BhY2U9InByZXNlcnZlIj4mI3hhOzxzb2RpcG9kaTpuYW1lZHZpZXcgYm9yZGVyY29sb3I9IiM2NjY2NjYiIGJvcmRlcm9wYWNpdHk9IjEiIGZpdC1tYXJnaW4tYm90dG9tPSIwIiBmaXQtbWFyZ2luLWxlZnQ9IjAiIGZpdC1tYXJnaW4tcmlnaHQ9IjAiIGZpdC1tYXJnaW4tdG9wPSIwIiBncmlkdG9sZXJhbmNlPSIxMCIgZ3VpZGV0b2xlcmFuY2U9IjEwIiBpZD0ibmFtZWR2aWV3ODkyNzEiIGlua3NjYXBlOmN1cnJlbnQtbGF5ZXI9InN2Zzg5MjY5IiBpbmtzY2FwZTpjeD0iMzIuMTUxNDIzIiBpbmtzY2FwZTpjeT0iMzkuNDI5Mjg4IiBpbmtzY2FwZTpwYWdlb3BhY2l0eT0iMCIgaW5rc2NhcGU6cGFnZXNoYWRvdz0iMiIgaW5rc2NhcGU6d2luZG93LWhlaWdodD0iMTAxNyIgaW5rc2NhcGU6d2luZG93LW1heGltaXplZD0iMSIgaW5rc2NhcGU6d2luZG93LXdpZHRoPSIxOTIwIiBpbmtzY2FwZTp3aW5kb3cteD0iLTgiIGlua3NjYXBlOndpbmRvdy15PSItOCIgaW5rc2NhcGU6em9vbT0iMTAuOTAzNjMyIiBvYmplY3R0b2xlcmFuY2U9IjEwIiBwYWdlY29sb3I9IiNmZmZmZmYiIHNob3dncmlkPSJmYWxzZSI+JiN4YTsJPC9zb2RpcG9kaTpuYW1lZHZpZXc+JiN4YTs8ZyBpZD0iZzg5MjY3IiB0cmFuc2Zvcm09InRyYW5zbGF0ZSgtMC4yNDk5NzQwMywtMC4yNDk5NzQwMykiPiYjeGE7CTx0aXRsZSBpZD0idGl0bGU4OTIxOCI+UGFnZS0xPC90aXRsZT4mI3hhOwk8ZyBpZD0iZ3JvdXA1MDQ5LTEiIHRyYW5zZm9ybT0idHJhbnNsYXRlKDAuNSwtMC41KSI+JiN4YTsJCTx0aXRsZSBpZD0idGl0bGU4OTIyMCI+TG9naW48L3RpdGxlPiYjeGE7CQk8ZyBpZD0ic2hhcGU1MDUwLTIiPiYjeGE7CQkJPHRpdGxlIGlkPSJ0aXRsZTg5MjIyIj5wYXRoLTk8L3RpdGxlPiYjeGE7CQkJJiN4YTsJCQkJPHBhdGggaWQ9InBhdGg4OTIyNCIgaW5rc2NhcGU6Y29ubmVjdG9yLWN1cnZhdHVyZT0iMCIgc3R5bGU9ImZpbGw6I0FBRTlGQjtzdHJva2U6IzU1NkE4QTtzdHJva2Utd2lkdGg6MC41O3N0cm9rZS1taXRlcmxpbWl0OjM7IiBkPSIgICAgIE0wLDU4LjYxYzAsMC41NiwwLjQ1LDEuMDMsMS4wMiwxLjAzYzAsMCwwLDAsMCwwSDQ2LjdjMC41NiwwLDEuMDMtMC40NSwxLjAzLTEuMDJjMCwwLDAtMC4wMSwwLTAuMDFWMi4wMiAgICAgQzQ3LjczLDEuNDYsNDcuMjcsMSw0Ni43LDFjMCwwLDAsMCwwLDBIMS4wMkMwLjQ2LDEsMCwxLjQ2LDAsMi4wMlY1OC42MXoiLz4mI3hhOwkJPC9nPiYjeGE7CQk8ZyBpZD0iZ3JvdXA1MDUxLTQiIHRyYW5zZm9ybT0idHJhbnNsYXRlKDE1LjM0MDgsLTMxLjAyMjYpIj4mI3hhOwkJCTx0aXRsZSBpZD0idGl0bGU4OTIyNyI+RmlsbC0xNDwvdGl0bGU+JiN4YTsJCQk8ZyBpZD0iZ3JvdXA1MDUyLTUiPiYjeGE7CQkJCTx0aXRsZSBpZD0idGl0bGU4OTIyOSI+TWFzazwvdGl0bGU+JiN4YTsJCQkJPGcgaWQ9InNoYXBlNTA1My02Ij4mI3hhOwkJCQkJPHRpdGxlIGlkPSJ0aXRsZTg5MjMxIj5wYXRoLTExPC90aXRsZT4mI3hhOwkJCQkJPGNpcmNsZSBpZD0iZWxsaXBzZTg5MjMzIiBzdHlsZT0iZmlsbDojRUI0RTQ4OyIgY3g9IjguNTIiIGN5PSI1MS4xMSIgcj0iOC41MiIvPiYjeGE7CQkJCTwvZz4mI3hhOwkJCQk8ZyBpZD0ic2hhcGU1MDU0LTgiPiYjeGE7CQkJCQk8dGl0bGUgaWQ9InRpdGxlODkyMzYiPlNoZWV0LjUwNTQ8L3RpdGxlPiYjeGE7CQkJCQkmI3hhOwkJCQkJCTxjaXJjbGUgaWQ9ImVsbGlwc2U4OTIzOCIgc3R5bGU9ImZpbGw6bm9uZTtzdHJva2U6I0NDQ0NDQztzdHJva2Utd2lkdGg6NC41O3N0cm9rZS1taXRlcmxpbWl0OjM7IiBjeD0iOC41MiIgY3k9IjUxLjExIiByPSI4LjUyIi8+JiN4YTsJCQkJPC9nPiYjeGE7CQkJCTxnIGlkPSJzaGFwZTUwNTUtMTAiPiYjeGE7CQkJCQk8dGl0bGUgaWQ9InRpdGxlODkyNDEiPlNoZWV0LjUwNTU8L3RpdGxlPiYjeGE7CQkJCQkmI3hhOwkJCQkJCTxjaXJjbGUgaWQ9ImVsbGlwc2U4OTI0MyIgc3R5bGU9ImZpbGw6bm9uZTtzdHJva2U6I0ZGRkZGRjtzdHJva2Utd2lkdGg6NC41O3N0cm9rZS1taXRlcmxpbWl0OjM7IiBjeD0iOC41MiIgY3k9IjUxLjExIiByPSI4LjUyIi8+JiN4YTsJCQkJPC9nPiYjeGE7CQkJPC9nPiYjeGE7CQkJPGcgaWQ9InNoYXBlNTA1Ni0xMiIgdHJhbnNmb3JtPSJ0cmFuc2xhdGUoMi4zODYzNSkiPiYjeGE7CQkJCTx0aXRsZSBpZD0idGl0bGU4OTI0NyI+U2hlZXQuNTA1NjwvdGl0bGU+JiN4YTsJCQkJPHBhdGggaWQ9InBhdGg4OTI0OSIgaW5rc2NhcGU6Y29ubmVjdG9yLWN1cnZhdHVyZT0iMCIgc3R5bGU9ImZpbGw6I0ZGRkZGRjsiIGQ9Ik0xMi42MSw1OC4xM3YxLjUxSDB2LTEuNTFsNC4yLTIuN3YtMS4wNSAgICAgIGMtMC4yNSwwLTAuNDktMC4yNi0wLjcyLTAuNzhjLTAuMjItMC41Mi0wLjMzLTAuOTYtMC4zMy0xLjMydi0yLjFjMC0wLjg3LDAuMzEtMS42MiwwLjkzLTIuMjNjMC42Mi0wLjYyLDEuMzYtMC45MywyLjIzLTAuOTMgICAgICBzMS42MSwwLjMxLDIuMjMsMC45M2MwLjYxLDAuNjEsMC45MiwxLjM2LDAuOTIsMi4yM3YyLjFjMCwwLjM2LTAuMTEsMC44LTAuMzMsMS4zMnMtMC40NiwwLjc4LTAuNzIsMC43OHYxLjA1TDEyLjYxLDU4LjEzeiIvPiYjeGE7CQkJPC9nPiYjeGE7CQk8L2c+JiN4YTsJCTxnIGlkPSJzaGFwZTUwNTctMTQiIHRyYW5zZm9ybT0idHJhbnNsYXRlKDkuMjA0NSwtMTcuMDQ1NCkiPiYjeGE7CQkJPHRpdGxlIGlkPSJ0aXRsZTg5MjUzIj5wYXRoLTE1PC90aXRsZT4mI3hhOwkJCSYjeGE7CQkJCTxwYXRoIGlkPSJwYXRoODkyNTUiIGlua3NjYXBlOmNvbm5lY3Rvci1jdXJ2YXR1cmU9IjAiIHN0eWxlPSJmaWxsOiNGRkZGRkY7c3Ryb2tlOiM1NTZBOEE7c3Ryb2tlLXdpZHRoOjAuNTtzdHJva2UtbWl0ZXJsaW1pdDozOyIgZD0iICAgICBNMCw1OC45NWMwLDAuMzgsMC4zMSwwLjY4LDAuNjgsMC42OGwyNy45NiwwLjAxYzAuMzgsMCwwLjY4LTAuMzEsMC42OC0wLjY4bDAtNy4xNmMwLTAuMzgtMC4zMS0wLjY4LTAuNjgtMC42OEwwLjY4LDUxLjExICAgICBDMC4zLDUxLjExLDAsNTEuNDIsMCw1MS43OUwwLDU4Ljk1eiIvPiYjeGE7CQk8L2c+JiN4YTsJCTxnIGlkPSJncm91cDUwNTgtMTYiIHRyYW5zZm9ybT0idHJhbnNsYXRlKDkuMjA0NSwtNi44MTgxNSkiPiYjeGE7CQkJPHRpdGxlIGlkPSJ0aXRsZTg5MjU4Ij5EeW5hbWljLWdyb3VwPC90aXRsZT4mI3hhOwkJCTxnIGlkPSJzaGFwZTUwNTktMTciPiYjeGE7CQkJCTx0aXRsZSBpZD0idGl0bGU4OTI2MCI+cGF0aC0xNzwvdGl0bGU+JiN4YTsJCQkJPHBhdGggaWQ9InBhdGg4OTI2MiIgaW5rc2NhcGU6Y29ubmVjdG9yLWN1cnZhdHVyZT0iMCIgc3R5bGU9ImZpbGw6I0U2RTZFNjsiIGQ9Ik0wLDU4Ljk1YzAsMC4zOCwwLjMxLDAuNjgsMC42OCwwLjY4ICAgICAgbDI3Ljk2LDAuMDFjMC4zOCwwLDAuNjgtMC4zMSwwLjY4LTAuNjhsMC03LjE2YzAtMC4zOC0wLjMxLTAuNjgtMC42OC0wLjY4TDAuNjgsNTEuMTFDMC4zLDUxLjExLDAsNTEuNDIsMCw1MS43OUwwLDU4Ljk1eiIvPiYjeGE7CQkJPC9nPiYjeGE7CQk8L2c+JiN4YTsJPC9nPiYjeGE7PC9nPiYjeGE7PC9zdmc+;" parent="1" vertex="1">
          <mxGeometry x="-328.03999999999996" y="-80" width="65.08" height="80" as="geometry" />
        </mxCell>
        <mxCell id="_L3SbqxIfx6lYunLBiMm-63" value="Cerrar Session" style="shape=image;html=1;verticalAlign=top;verticalLabelPosition=bottom;labelBackgroundColor=#ffffff;imageAspect=0;aspect=fixed;image=https://cdn3.iconfinder.com/data/icons/arrows-396/48/arrow_login-128.png" parent="1" vertex="1">
          <mxGeometry x="-77" y="159" width="60" height="60" as="geometry" />
        </mxCell>
        <mxCell id="_L3SbqxIfx6lYunLBiMm-64" value="Profile" style="html=1;strokeColor=none;fillColor=#0079D6;labelPosition=center;verticalLabelPosition=middle;verticalAlign=top;align=center;fontSize=12;outlineConnect=0;spacingTop=-6;fontColor=#FFFFFF;sketch=0;shape=mxgraph.sitemap.profile;" parent="1" vertex="1">
          <mxGeometry x="-582" y="159" width="120" height="70" as="geometry" />
        </mxCell>
        <mxCell id="_L3SbqxIfx6lYunLBiMm-65" value="" style="whiteSpace=wrap;html=1;strokeWidth=3;fillColor=#F19C99;strokeColor=#b85450;" parent="1" vertex="1">
          <mxGeometry x="980" y="300" width="460" height="90" as="geometry" />
        </mxCell>
        <mxCell id="_L3SbqxIfx6lYunLBiMm-66" value="" style="whiteSpace=wrap;html=1;strokeWidth=3;fillColor=#F19C99;strokeColor=#b85450;" parent="1" vertex="1">
          <mxGeometry x="960" y="460" width="197.5" height="90" as="geometry" />
        </mxCell>
        <mxCell id="_L3SbqxIfx6lYunLBiMm-67" value="" style="whiteSpace=wrap;html=1;strokeWidth=3;fillColor=#F19C99;strokeColor=#b85450;" parent="1" vertex="1">
          <mxGeometry x="962.5" y="600" width="90" height="90" as="geometry" />
        </mxCell>
        <mxCell id="_L3SbqxIfx6lYunLBiMm-68" value="Mis Facturas" style="shape=image;html=1;verticalAlign=top;verticalLabelPosition=bottom;labelBackgroundColor=#ffffff;imageAspect=0;aspect=fixed;image=https://cdn0.iconfinder.com/data/icons/elasto-online-store/26/00-ELASTOFONT-STORE-READY_invoice-128.png" parent="1" vertex="1">
          <mxGeometry x="1077" y="750" width="78" height="78" as="geometry" />
        </mxCell>
        <mxCell id="_L3SbqxIfx6lYunLBiMm-69" value="" style="whiteSpace=wrap;html=1;strokeWidth=3;fillColor=#F19C99;strokeColor=#b85450;" parent="1" vertex="1">
          <mxGeometry x="956.5" y="744" width="90" height="106" as="geometry" />
        </mxCell>
        <mxCell id="_L3SbqxIfx6lYunLBiMm-70" value="" style="whiteSpace=wrap;html=1;strokeWidth=3;fillColor=#F19C99;strokeColor=#b85450;" parent="1" vertex="1">
          <mxGeometry x="627.5" y="300" width="90" height="90" as="geometry" />
        </mxCell>
        <mxCell id="_L3SbqxIfx6lYunLBiMm-71" value="Mis Facturas" style="shape=image;html=1;verticalAlign=top;verticalLabelPosition=bottom;labelBackgroundColor=#ffffff;imageAspect=0;aspect=fixed;image=https://cdn0.iconfinder.com/data/icons/elasto-online-store/26/00-ELASTOFONT-STORE-READY_invoice-128.png" parent="1" vertex="1">
          <mxGeometry x="250" y="760" width="78" height="78" as="geometry" />
        </mxCell>
        <mxCell id="_L3SbqxIfx6lYunLBiMm-72" value="" style="whiteSpace=wrap;html=1;strokeWidth=3;fillColor=#F19C99;strokeColor=#b85450;" parent="1" vertex="1">
          <mxGeometry x="238" y="760" width="90" height="106" as="geometry" />
        </mxCell>
        <mxCell id="MKWB3BOUcwZ4W1m-4Asa-1" value="Marca" style="ellipse;whiteSpace=wrap;html=1;aspect=fixed;" vertex="1" parent="1">
          <mxGeometry x="-3100" width="80" height="80" as="geometry" />
        </mxCell>
        <mxCell id="MKWB3BOUcwZ4W1m-4Asa-4" value="Contenido" style="ellipse;whiteSpace=wrap;html=1;aspect=fixed;" vertex="1" parent="1">
          <mxGeometry x="-3200" y="200" width="80" height="80" as="geometry" />
        </mxCell>
        <mxCell id="MKWB3BOUcwZ4W1m-4Asa-5" value="Función" style="ellipse;whiteSpace=wrap;html=1;aspect=fixed;" vertex="1" parent="1">
          <mxGeometry x="-3000" y="200" width="80" height="80" as="geometry" />
        </mxCell>
        <mxCell id="MKWB3BOUcwZ4W1m-4Asa-8" value="Actor" style="shape=umlActor;verticalLabelPosition=bottom;verticalAlign=top;html=1;outlineConnect=0;" vertex="1" parent="1">
          <mxGeometry x="-3340" y="190" width="30" height="60" as="geometry" />
        </mxCell>
        <mxCell id="MKWB3BOUcwZ4W1m-4Asa-9" value="Que quieren Saber las Personas" style="text;html=1;strokeColor=none;fillColor=none;align=center;verticalAlign=middle;whiteSpace=wrap;rounded=0;" vertex="1" parent="1">
          <mxGeometry x="-3380" y="290" width="130" height="30" as="geometry" />
        </mxCell>
        <mxCell id="MKWB3BOUcwZ4W1m-4Asa-10" value="Que Recordaran las personas" style="text;html=1;strokeColor=none;fillColor=none;align=center;verticalAlign=middle;whiteSpace=wrap;rounded=0;" vertex="1" parent="1">
          <mxGeometry x="-2990" y="25" width="130" height="30" as="geometry" />
        </mxCell>
        <mxCell id="MKWB3BOUcwZ4W1m-4Asa-11" value="Que quieren Hacer las personas" style="text;html=1;strokeColor=none;fillColor=none;align=center;verticalAlign=middle;whiteSpace=wrap;rounded=0;" vertex="1" parent="1">
          <mxGeometry x="-2880" y="229" width="130" height="30" as="geometry" />
        </mxCell>
        <object label="Empleado" Prueba="weewe" id="MKWB3BOUcwZ4W1m-4Asa-12">
          <mxCell style="shape=umlActor;verticalLabelPosition=top;verticalAlign=bottom;outlineConnect=0;sketch=1;whiteSpace=wrap;fontSize=15;labelPosition=center;align=center;fontFamily=Comic Sans MS;" vertex="1" parent="1">
            <mxGeometry x="-3260" y="490" width="30" height="60" as="geometry" />
          </mxCell>
        </object>
        <mxCell id="MKWB3BOUcwZ4W1m-4Asa-15" value="&lt;font face=&quot;Comic Sans MS&quot; style=&quot;font-size: 14px;&quot;&gt;Cliente&lt;/font&gt;" style="shape=umlActor;verticalLabelPosition=bottom;verticalAlign=top;html=1;outlineConnect=0;comic=0;" vertex="1" parent="1">
          <mxGeometry x="-3360" y="480" width="50" height="80" as="geometry" />
        </mxCell>
      </root>
    </mxGraphModel>
  </diagram>
</mxfile>
